SeanSans-NormalExtralight.ufo
<glyph name="exclam" format="1">
  <advance width="244"/>
  <unicode hex="0021"/>
  <outline>
    <contour>
      <point x="141" y="229" type="line"/>
      <point x="146" y="722" type="line"/>
      <point x="96" y="722" type="line"/>
      <point x="101" y="229" type="line"/>
    </contour>
    <contour>
      <point x="150" y="20" type="curve"/>
      <point x="150" y="36"/>
      <point x="139" y="45"/>
      <point x="121" y="45" type="curve"/>
      <point x="105" y="45"/>
      <point x="94" y="35"/>
      <point x="94" y="20" type="curve"/>
      <point x="139" y="20"/>
      <point x="105" y="20"/>
      <point x="150" y="20" type="curve"/>
      <point x="150" y="3"/>
      <point x="139" y="-6"/>
      <point x="121" y="-6" type="curve"/>
      <point x="105" y="-6"/>
      <point x="94" y="3"/>
      <point x="94" y="20" type="curve"/>
      <point x="139" y="20"/>
      <point x="105" y="20"/>
    </contour>
  </outline>
</glyph>
<glyph name="quotedbl" format="1">
  <advance width="381"/>
  <unicode hex="0022"/>
  <outline>
    <contour>
      <point x="117" y="613" type="line"/>
      <point x="122" y="806" type="line"/>
      <point x="72" y="806" type="line"/>
      <point x="76" y="613" type="line"/>
    </contour>
    <contour>
      <point x="305" y="613" type="line"/>
      <point x="309" y="806" type="line"/>
      <point x="260" y="806" type="line"/>
      <point x="264" y="613" type="line"/>
    </contour>
  </outline>
</glyph>
<glyph name="numbersign" format="1">
  <advance width="693"/>
  <unicode hex="0023"/>
  <outline>
    <contour>
      <point x="44" y="242" type="curve"/>
      <point x="562" y="242" type="curve"/>
      <point x="573" y="278" type="curve"/>
      <point x="56" y="278" type="curve"/>
    </contour>
    <contour>
      <point x="119" y="482" type="curve"/>
      <point x="638" y="482" type="curve"/>
      <point x="648" y="517" type="curve"/>
      <point x="130" y="517" type="curve"/>
    </contour>
    <contour>
      <point x="406" y="39" type="curve"/>
      <point x="632" y="722" type="curve"/>
      <point x="589" y="722" type="curve"/>
      <point x="363" y="39" type="curve"/>
    </contour>
    <contour>
      <point x="123" y="46" type="curve"/>
      <point x="345" y="722" type="curve"/>
      <point x="303" y="722" type="curve"/>
      <point x="82" y="46" type="curve"/>
    </contour>
  </outline>
</glyph>
<glyph name="dollar" format="1">
  <advance width="562"/>
  <unicode hex="0024"/>
  <outline>
    <contour>
      <point x="283" y="-43" type="curve"/>
      <point x="283" y="-9"/>
      <point x="283" y="31"/>
      <point x="283" y="65" type="curve"/>
      <point x="240" y="65"/>
      <point x="283" y="65"/>
      <point x="240" y="65" type="curve"/>
      <point x="240" y="31"/>
      <point x="240" y="-9"/>
      <point x="240" y="-43" type="curve"/>
      <point x="283" y="-43"/>
      <point x="240" y="-43"/>
    </contour>
    <contour>
      <point x="295" y="665" type="curve"/>
      <point x="295" y="698"/>
      <point x="295" y="740"/>
      <point x="295" y="773" type="curve"/>
      <point x="252" y="773"/>
      <point x="295" y="773"/>
      <point x="252" y="773" type="curve"/>
      <point x="252" y="740"/>
      <point x="252" y="698"/>
      <point x="252" y="665" type="curve"/>
      <point x="295" y="665"/>
      <point x="252" y="665"/>
    </contour>
    <contour>
      <point x="52" y="98" type="curve"/>
      <point x="110" y="71"/>
      <point x="179" y="47"/>
      <point x="259" y="47" type="curve"/>
      <point x="396" y="47"/>
      <point x="507" y="91"/>
      <point x="507" y="202" type="curve"/>
      <point x="507" y="307"/>
      <point x="400" y="345"/>
      <point x="289" y="391" type="curve"/>
      <point x="195" y="429"/>
      <point x="117" y="457"/>
      <point x="117" y="539" type="curve"/>
      <point x="117" y="614"/>
      <point x="187" y="649"/>
      <point x="278" y="649" type="curve"/>
      <point x="351" y="649"/>
      <point x="401" y="633"/>
      <point x="465" y="602" type="curve"/>
      <point x="485" y="632"/>
      <point x="465" y="602"/>
      <point x="485" y="632" type="curve"/>
      <point x="417" y="666"/>
      <point x="360" y="684"/>
      <point x="281" y="684" type="curve"/>
      <point x="162" y="684"/>
      <point x="74" y="638"/>
      <point x="74" y="539" type="curve"/>
      <point x="74" y="439"/>
      <point x="158" y="402"/>
      <point x="264" y="359" type="curve"/>
      <point x="363" y="320"/>
      <point x="464" y="288"/>
      <point x="464" y="200" type="curve"/>
      <point x="464" y="116"/>
      <point x="374" y="82"/>
      <point x="263" y="82" type="curve"/>
      <point x="191" y="82"/>
      <point x="128" y="106"/>
      <point x="74" y="129" type="curve"/>
      <point x="52" y="98"/>
      <point x="74" y="129"/>
    </contour>
  </outline>
</glyph>
<glyph name="percent" format="1">
  <advance width="1083"/>
  <unicode hex="0025"/>
  <outline>
    <contour>
      <point x="357" y="-84" type="line"/>
      <point x="802" y="749" type="line"/>
      <point x="758" y="749" type="line"/>
      <point x="313" y="-84" type="line"/>
    </contour>
    <contour>
      <point x="80" y="544" type="curve"/>
      <point x="80" y="648"/>
      <point x="125" y="720"/>
      <point x="223" y="720" type="curve"/>
      <point x="321" y="721"/>
      <point x="366" y="648"/>
      <point x="366" y="545" type="curve"/>
      <point x="366" y="442"/>
      <point x="324" y="367"/>
      <point x="226" y="367" type="curve"/>
      <point x="126" y="367"/>
      <point x="80" y="440"/>
      <point x="80" y="544" type="curve"/>
      <point x="65" y="544"/>
      <point x="55" y="544"/>
      <point x="40" y="544" type="curve"/>
      <point x="40" y="419"/>
      <point x="103" y="334"/>
      <point x="224" y="334" type="curve"/>
      <point x="346" y="334"/>
      <point x="408" y="420"/>
      <point x="408" y="547" type="curve"/>
      <point x="408" y="671"/>
      <point x="345" y="754"/>
      <point x="225" y="754" type="curve"/>
      <point x="103" y="754"/>
      <point x="40" y="670"/>
      <point x="40" y="544" type="curve"/>
      <point x="55" y="544"/>
      <point x="65" y="544"/>
    </contour>
    <contour>
      <point x="716" y="120" type="curve"/>
      <point x="716" y="223"/>
      <point x="762" y="296"/>
      <point x="860" y="296" type="curve"/>
      <point x="958" y="297"/>
      <point x="1003" y="224"/>
      <point x="1003" y="121" type="curve"/>
      <point x="1003" y="18"/>
      <point x="960" y="-57"/>
      <point x="862" y="-57" type="curve"/>
      <point x="763" y="-57"/>
      <point x="716" y="16"/>
      <point x="716" y="120" type="curve"/>
      <point x="701" y="120"/>
      <point x="692" y="120"/>
      <point x="677" y="120" type="curve"/>
      <point x="677" y="-5"/>
      <point x="739" y="-90"/>
      <point x="861" y="-90" type="curve"/>
      <point x="982" y="-90"/>
      <point x="1044" y="-4"/>
      <point x="1044" y="123" type="curve"/>
      <point x="1044" y="247"/>
      <point x="982" y="330"/>
      <point x="861" y="330" type="curve"/>
      <point x="740" y="330"/>
      <point x="677" y="246"/>
      <point x="677" y="120" type="curve"/>
      <point x="692" y="120"/>
      <point x="701" y="120"/>
    </contour>
  </outline>
</glyph>
<glyph name="ampersand" format="1">
  <advance width="691"/>
  <unicode hex="0026"/>
  <outline>
    <contour>
      <point x="676" y="17" type="line"/>
      <point x="559" y="128"/>
      <point x="447" y="240"/>
      <point x="329" y="353" type="curve"/>
      <point x="263" y="423"/>
      <point x="181" y="474"/>
      <point x="181" y="573" type="curve"/>
      <point x="181" y="643"/>
      <point x="226" y="691"/>
      <point x="295" y="691" type="curve"/>
      <point x="370" y="691"/>
      <point x="421" y="648"/>
      <point x="421" y="575" type="curve"/>
      <point x="421" y="479"/>
      <point x="344" y="439"/>
      <point x="259" y="393" type="curve"/>
      <point x="159" y="337"/>
      <point x="68" y="292"/>
      <point x="68" y="181" type="curve"/>
      <point x="68" y="60"/>
      <point x="162" y="-5"/>
      <point x="289" y="-5" type="curve"/>
      <point x="479" y="-5"/>
      <point x="580" y="130"/>
      <point x="642" y="317" type="curve"/>
      <point x="606" y="326"/>
      <point x="642" y="317"/>
      <point x="606" y="326" type="curve"/>
      <point x="548" y="156"/>
      <point x="458" y="30"/>
      <point x="290" y="30" type="curve"/>
      <point x="187" y="30"/>
      <point x="111" y="82"/>
      <point x="111" y="181" type="curve"/>
      <point x="111" y="279"/>
      <point x="191" y="315"/>
      <point x="278" y="364" type="curve"/>
      <point x="375" y="419"/>
      <point x="463" y="465"/>
      <point x="464" y="575" type="curve"/>
      <point x="464" y="671"/>
      <point x="395" y="727"/>
      <point x="297" y="727" type="curve"/>
      <point x="202" y="727"/>
      <point x="139" y="667"/>
      <point x="139" y="573" type="curve"/>
      <point x="139" y="465"/>
      <point x="225" y="407"/>
      <point x="300" y="332" type="curve"/>
      <point x="414" y="221"/>
      <point x="536" y="102"/>
      <point x="649" y="-8" type="curve"/>
    </contour>
  </outline>
</glyph>
<glyph name="quotesingle" format="1">
  <advance width="194"/>
  <unicode hex="0027"/>
  <outline>
    <contour>
      <point x="117" y="613" type="line"/>
      <point x="122" y="806" type="line"/>
      <point x="72" y="806" type="line"/>
      <point x="76" y="613" type="line"/>
    </contour>
  </outline>
</glyph>
<glyph name="parenleft" format="1">
  <advance width="348"/>
  <unicode hex="0028"/>
  <outline>
    <contour>
      <point x="345" y="-231" type="curve"/>
      <point x="176" y="-68"/>
      <point x="101" y="90"/>
      <point x="101" y="326" type="curve"/>
      <point x="101" y="562"/>
      <point x="178" y="718"/>
      <point x="343" y="885" type="curve"/>
      <point x="318" y="907"/>
      <point x="343" y="885"/>
      <point x="318" y="907" type="curve"/>
      <point x="142" y="737"/>
      <point x="58" y="574"/>
      <point x="58" y="326" type="curve"/>
      <point x="58" y="78"/>
      <point x="142" y="-84"/>
      <point x="319" y="-256" type="curve"/>
      <point x="345" y="-231"/>
      <point x="319" y="-256"/>
    </contour>
  </outline>
</glyph>
<glyph name="parenright" format="1">
  <advance width="360"/>
  <unicode hex="0029"/>
  <outline>
    <contour>
      <point x="28" y="-271" type="curve"/>
      <point x="207" y="-92"/>
      <point x="302" y="71"/>
      <point x="302" y="327" type="curve"/>
      <point x="302" y="577"/>
      <point x="214" y="739"/>
      <point x="32" y="908" type="curve"/>
      <point x="6" y="884"/>
      <point x="32" y="908"/>
      <point x="6" y="884" type="curve"/>
      <point x="177" y="719"/>
      <point x="258" y="564"/>
      <point x="258" y="326" type="curve"/>
      <point x="258" y="82"/>
      <point x="168" y="-73"/>
      <point x="1" y="-248" type="curve"/>
      <point x="28" y="-271"/>
      <point x="1" y="-248"/>
    </contour>
  </outline>
</glyph>
<glyph name="asterisk" format="1">
  <advance width="657"/>
  <unicode hex="002A"/>
  <outline>
    <contour>
      <point x="343" y="601" type="line"/>
      <point x="347" y="795" type="line"/>
      <point x="305" y="795" type="line"/>
      <point x="308" y="601" type="line"/>
    </contour>
    <contour>
      <point x="397" y="543" type="line"/>
      <point x="582" y="600" type="line"/>
      <point x="569" y="640" type="line"/>
      <point x="386" y="576" type="line"/>
    </contour>
    <contour>
      <point x="359" y="473" type="line"/>
      <point x="471" y="316" type="line"/>
      <point x="505" y="341" type="line"/>
      <point x="386" y="495" type="line"/>
    </contour>
    <contour>
      <point x="280" y="490" type="line"/>
      <point x="161" y="337" type="line"/>
      <point x="195" y="311" type="line"/>
      <point x="308" y="469" type="line"/>
    </contour>
    <contour>
      <point x="271" y="568" type="line"/>
      <point x="88" y="633" type="line"/>
      <point x="74" y="593" type="line"/>
      <point x="260" y="535" type="line"/>
    </contour>
  </outline>
</glyph>
<glyph name="plus" format="1">
  <advance width="650"/>
  <unicode hex="002B"/>
  <outline>
    <contour>
      <point x="46" y="290" type="curve"/>
      <point x="605" y="290" type="line"/>
      <point x="605" y="329"/>
      <point x="605" y="290"/>
      <point x="605" y="329" type="curve"/>
      <point x="46" y="329" type="line"/>
      <point x="46" y="290"/>
      <point x="46" y="329"/>
    </contour>
    <contour>
      <point x="344" y="21" type="curve"/>
      <point x="344" y="587" type="line"/>
      <point x="301" y="587"/>
      <point x="345" y="587"/>
      <point x="302" y="587" type="curve"/>
      <point x="302" y="21" type="line"/>
      <point x="345" y="21"/>
      <point x="301" y="21"/>
    </contour>
  </outline>
</glyph>
<glyph name="comma" format="1">
  <advance width="144"/>
  <unicode hex="002C"/>
  <outline>
    <contour>
      <point x="29" y="-114" type="line"/>
      <point x="70" y="-92"/>
      <point x="102" y="-55"/>
      <point x="102" y="4" type="curve"/>
      <point x="102" y="34"/>
      <point x="93" y="58"/>
      <point x="68" y="58" type="curve"/>
      <point x="50" y="58"/>
      <point x="39" y="49"/>
      <point x="39" y="31" type="curve"/>
      <point x="39" y="16"/>
      <point x="47" y="7"/>
      <point x="64" y="3" type="curve"/>
      <point x="64" y="-23"/>
      <point x="52" y="-63"/>
      <point x="16" y="-87" type="curve"/>
    </contour>
  </outline>
</glyph>
<glyph name="period" format="1">
  <advance width="196"/>
  <unicode hex="002E"/>
  <outline>
    <contour>
      <point x="126" y="20" type="curve"/>
      <point x="126" y="36"/>
      <point x="115" y="45"/>
      <point x="98" y="45" type="curve"/>
      <point x="81" y="45"/>
      <point x="70" y="35"/>
      <point x="70" y="20" type="curve"/>
      <point x="116" y="20"/>
      <point x="81" y="20"/>
      <point x="126" y="20" type="curve"/>
      <point x="126" y="3"/>
      <point x="115" y="-6"/>
      <point x="98" y="-6" type="curve"/>
      <point x="81" y="-6"/>
      <point x="70" y="3"/>
      <point x="70" y="20" type="curve"/>
      <point x="116" y="20"/>
      <point x="81" y="20"/>
    </contour>
  </outline>
</glyph>
<glyph name="slash" format="1">
  <advance width="544"/>
  <unicode hex="002F"/>
  <outline>
    <contour>
      <point x="72" y="-59" type="curve"/>
      <point x="220" y="238"/>
      <point x="368" y="536"/>
      <point x="516" y="834" type="curve"/>
      <point x="473" y="834"/>
      <point x="516" y="834"/>
      <point x="473" y="834" type="curve"/>
      <point x="325" y="536"/>
      <point x="177" y="238"/>
      <point x="28" y="-59" type="curve"/>
      <point x="72" y="-59"/>
      <point x="28" y="-59"/>
    </contour>
  </outline>
</glyph>
<glyph name="zero" format="1">
  <advance width="734"/>
  <unicode hex="0030"/>
  <outline>
    <contour>
      <point x="113" y="360" type="curve"/>
      <point x="113" y="554"/>
      <point x="190" y="689"/>
      <point x="367" y="689" type="curve"/>
      <point x="545" y="689"/>
      <point x="621" y="554"/>
      <point x="621" y="363" type="curve"/>
      <point x="621" y="170"/>
      <point x="545" y="33"/>
      <point x="371" y="33" type="curve"/>
      <point x="195" y="33"/>
      <point x="113" y="167"/>
      <point x="113" y="360" type="curve"/>
      <point x="71" y="360"/>
      <point x="112" y="360"/>
      <point x="70" y="360" type="curve"/>
      <point x="70" y="143"/>
      <point x="164" y="-5"/>
      <point x="370" y="-5" type="curve"/>
      <point x="573" y="-5"/>
      <point x="664" y="145"/>
      <point x="664" y="363" type="curve"/>
      <point x="664" y="579"/>
      <point x="573" y="727"/>
      <point x="371" y="727" type="curve"/>
      <point x="165" y="727"/>
      <point x="70" y="579"/>
      <point x="70" y="360" type="curve"/>
      <point x="112" y="360"/>
      <point x="71" y="360"/>
    </contour>
  </outline>
</glyph>
<glyph name="one" format="1">
  <advance width="371"/>
  <unicode hex="0031"/>
  <outline>
    <contour>
      <point x="49" y="525" type="curve"/>
      <point x="267" y="700"/>
      <point x="49" y="525"/>
      <point x="267" y="700" type="curve"/>
      <point x="233" y="722"/>
      <point x="267" y="700"/>
      <point x="233" y="722" type="curve"/>
      <point x="25" y="555"/>
      <point x="233" y="722"/>
      <point x="25" y="555" type="curve"/>
      <point x="49" y="525"/>
      <point x="25" y="555"/>
    </contour>
    <contour>
      <point x="276" y="0" type="curve"/>
      <point x="276" y="241"/>
      <point x="276" y="481"/>
      <point x="276" y="722" type="curve"/>
      <point x="233" y="722"/>
      <point x="276" y="722"/>
      <point x="233" y="722" type="curve"/>
      <point x="233" y="481"/>
      <point x="233" y="241"/>
      <point x="233" y="0" type="curve"/>
      <point x="276" y="0"/>
      <point x="233" y="0"/>
    </contour>
  </outline>
</glyph>
<glyph name="two" format="1">
  <advance width="576"/>
  <unicode hex="0032"/>
  <outline>
    <contour>
      <point x="44" y="0" type="curve"/>
      <point x="216" y="0"/>
      <point x="361" y="0"/>
      <point x="519" y="0" type="curve"/>
      <point x="519" y="35"/>
      <point x="519" y="0"/>
      <point x="519" y="35" type="curve"/>
      <point x="354" y="35"/>
      <point x="208" y="35"/>
      <point x="44" y="35" type="curve"/>
      <point x="44" y="0"/>
      <point x="44" y="35"/>
    </contour>
    <contour>
      <point x="95" y="555" type="curve"/>
      <point x="144" y="636"/>
      <point x="195" y="689"/>
      <point x="287" y="689" type="curve"/>
      <point x="391" y="689"/>
      <point x="453" y="630"/>
      <point x="453" y="522" type="curve"/>
      <point x="453" y="399"/>
      <point x="365" y="312"/>
      <point x="281" y="244" type="curve"/>
      <point x="202" y="174"/>
      <point x="123" y="105"/>
      <point x="44" y="35" type="curve"/>
      <point x="54" y="0"/>
      <point x="44" y="35"/>
      <point x="54" y="0" type="curve"/>
      <point x="146" y="71"/>
      <point x="227" y="145"/>
      <point x="308" y="217" type="curve"/>
      <point x="401" y="292"/>
      <point x="494" y="382"/>
      <point x="494" y="524" type="curve"/>
      <point x="494" y="654"/>
      <point x="418" y="727"/>
      <point x="289" y="727" type="curve"/>
      <point x="182" y="727"/>
      <point x="112" y="668"/>
      <point x="63" y="575" type="curve"/>
      <point x="95" y="555"/>
      <point x="63" y="575"/>
    </contour>
  </outline>
</glyph>
<glyph name="three" format="1">
  <advance width="560"/>
  <unicode hex="0033"/>
  <outline>
    <contour>
      <point x="55" y="56" type="curve"/>
      <point x="118" y="18"/>
      <point x="173" y="-5"/>
      <point x="250" y="-5" type="curve"/>
      <point x="396" y="-5"/>
      <point x="493" y="55"/>
      <point x="493" y="198" type="curve"/>
      <point x="493" y="334"/>
      <point x="352" y="394"/>
      <point x="158" y="394" type="curve"/>
      <point x="158" y="368"/>
      <point x="158" y="389"/>
      <point x="158" y="363" type="curve"/>
      <point x="311" y="363"/>
      <point x="451" y="314"/>
      <point x="451" y="197" type="curve"/>
      <point x="451" y="78"/>
      <point x="358" y="34"/>
      <point x="252" y="34" type="curve"/>
      <point x="186" y="34"/>
      <point x="139" y="52"/>
      <point x="77" y="86" type="curve"/>
      <point x="55" y="56"/>
      <point x="77" y="86"/>
    </contour>
    <contour>
      <point x="88" y="616" type="curve"/>
      <point x="123" y="654"/>
      <point x="180" y="688"/>
      <point x="247" y="688" type="curve"/>
      <point x="349" y="688"/>
      <point x="417" y="646"/>
      <point x="417" y="549" type="curve"/>
      <point x="417" y="447"/>
      <point x="295" y="399"/>
      <point x="158" y="399" type="curve"/>
      <point x="158" y="374"/>
      <point x="158" y="394"/>
      <point x="158" y="369" type="curve"/>
      <point x="325" y="369"/>
      <point x="458" y="423"/>
      <point x="458" y="551" type="curve"/>
      <point x="458" y="670"/>
      <point x="375" y="727"/>
      <point x="250" y="727" type="curve"/>
      <point x="170" y="727"/>
      <point x="101" y="685"/>
      <point x="61" y="640" type="curve"/>
      <point x="88" y="616"/>
      <point x="61" y="640"/>
    </contour>
  </outline>
</glyph>
<glyph name="four" format="1">
  <advance width="631"/>
  <unicode hex="0034"/>
  <outline>
    <contour>
      <point x="49" y="267" type="line"/>
      <point x="398" y="706" type="line"/>
      <point x="364" y="718" type="line"/>
      <point x="26" y="297" type="line"/>
    </contour>
    <contour>
      <point x="590" y="297" type="line"/>
      <point x="26" y="297" type="line"/>
      <point x="26" y="259" type="line"/>
      <point x="590" y="259" type="line"/>
    </contour>
    <contour>
      <point x="407" y="0" type="line"/>
      <point x="407" y="718" type="line"/>
      <point x="364" y="718" type="line"/>
      <point x="364" y="0" type="line"/>
    </contour>
  </outline>
</glyph>
<glyph name="five" format="1">
  <advance width="544"/>
  <unicode hex="0035"/>
  <outline>
    <contour>
      <point x="103" y="722" type="curve"/>
      <point x="103" y="620"/>
      <point x="103" y="511"/>
      <point x="103" y="399" type="curve"/>
      <point x="144" y="387"/>
      <point x="103" y="399"/>
      <point x="143" y="387" type="curve"/>
      <point x="143" y="487"/>
      <point x="143" y="588"/>
      <point x="143" y="687" type="curve"/>
      <point x="103" y="722"/>
      <point x="143" y="687"/>
    </contour>
    <contour>
      <point x="143" y="387" type="curve"/>
      <point x="168" y="400"/>
      <point x="220" y="413"/>
      <point x="257" y="413" type="curve"/>
      <point x="371" y="413"/>
      <point x="441" y="339"/>
      <point x="441" y="227" type="curve"/>
      <point x="441" y="112"/>
      <point x="361" y="34"/>
      <point x="244" y="34" type="curve"/>
      <point x="181" y="34"/>
      <point x="134" y="49"/>
      <point x="76" y="77" type="curve"/>
      <point x="55" y="44"/>
      <point x="76" y="77"/>
      <point x="55" y="44" type="curve"/>
      <point x="114" y="12"/>
      <point x="173" y="-5"/>
      <point x="243" y="-5" type="curve"/>
      <point x="385" y="-5"/>
      <point x="484" y="87"/>
      <point x="484" y="227" type="curve"/>
      <point x="484" y="361"/>
      <point x="397" y="451"/>
      <point x="260" y="451" type="curve"/>
      <point x="207" y="451"/>
      <point x="142" y="434"/>
      <point x="105" y="404" type="curve"/>
      <point x="144" y="388"/>
      <point x="105" y="403"/>
    </contour>
    <contour>
      <point x="461" y="722" type="curve"/>
      <point x="337" y="722"/>
      <point x="224" y="722"/>
      <point x="103" y="722" type="curve"/>
      <point x="143" y="687"/>
      <point x="103" y="722"/>
      <point x="143" y="687" type="curve"/>
      <point x="251" y="687"/>
      <point x="351" y="687"/>
      <point x="461" y="687" type="curve"/>
      <point x="461" y="722"/>
      <point x="461" y="687"/>
    </contour>
  </outline>
</glyph>
<glyph name="six" format="1">
  <advance width="604"/>
  <unicode hex="0036"/>
  <outline>
    <contour>
      <point x="102" y="228" type="curve"/>
      <point x="141" y="319"/>
      <point x="213" y="378"/>
      <point x="314" y="378" type="curve"/>
      <point x="427" y="378"/>
      <point x="494" y="317"/>
      <point x="494" y="206" type="curve"/>
      <point x="494" y="102"/>
      <point x="427" y="35"/>
      <point x="318" y="35" type="curve"/>
      <point x="186" y="35"/>
      <point x="109" y="113"/>
      <point x="109" y="245" type="curve"/>
      <point x="109" y="501"/>
      <point x="290" y="628"/>
      <point x="542" y="701" type="curve"/>
      <point x="531" y="734"/>
      <point x="542" y="701"/>
      <point x="531" y="734" type="curve"/>
      <point x="261" y="660"/>
      <point x="66" y="522"/>
      <point x="66" y="243" type="curve"/>
      <point x="66" y="87"/>
      <point x="161" y="-6"/>
      <point x="317" y="-6" type="curve"/>
      <point x="454" y="-6"/>
      <point x="538" y="72"/>
      <point x="538" y="206" type="curve"/>
      <point x="538" y="341"/>
      <point x="453" y="415"/>
      <point x="318" y="415" type="curve"/>
      <point x="196" y="415"/>
      <point x="114" y="346"/>
      <point x="74" y="244" type="curve"/>
      <point x="102" y="228"/>
      <point x="75" y="244"/>
    </contour>
  </outline>
</glyph>
<glyph name="seven" format="1">
  <advance width="551"/>
  <unicode hex="0037"/>
  <outline>
    <contour>
      <point x="37" y="687" type="curve"/>
      <point x="536" y="687" type="curve"/>
      <point x="536" y="722" type="curve"/>
      <point x="37" y="722" type="curve"/>
    </contour>
    <contour>
      <point x="510" y="722" type="curve"/>
      <point x="76" y="0" type="curve"/>
      <point x="126" y="0" type="curve"/>
      <point x="536" y="687" type="curve"/>
    </contour>
  </outline>
</glyph>
<glyph name="eight" format="1">
  <advance width="585"/>
  <unicode hex="0038"/>
  <outline>
    <contour>
      <point x="90" y="559" type="curve"/>
      <point x="90" y="446"/>
      <point x="175" y="414"/>
      <point x="280" y="364" type="curve"/>
      <point x="385" y="314"/>
      <point x="471" y="280"/>
      <point x="471" y="173" type="curve"/>
      <point x="471" y="73"/>
      <point x="399" y="32"/>
      <point x="291" y="32" type="curve"/>
      <point x="183" y="32"/>
      <point x="113" y="74"/>
      <point x="113" y="173" type="curve"/>
      <point x="113" y="283"/>
      <point x="201" y="313"/>
      <point x="307" y="365" type="curve"/>
      <point x="409" y="416"/>
      <point x="494" y="446"/>
      <point x="494" y="557" type="curve"/>
      <point x="494" y="675"/>
      <point x="416" y="727"/>
      <point x="291" y="727" type="curve"/>
      <point x="169" y="727"/>
      <point x="90" y="673"/>
      <point x="90" y="559" type="curve"/>
      <point x="133" y="559"/>
      <point x="90" y="559"/>
      <point x="133" y="559" type="curve"/>
      <point x="133" y="647"/>
      <point x="194" y="690"/>
      <point x="289" y="690" type="curve"/>
      <point x="389" y="690"/>
      <point x="451" y="650"/>
      <point x="451" y="557" type="curve"/>
      <point x="451" y="462"/>
      <point x="372" y="435"/>
      <point x="279" y="391" type="curve"/>
      <point x="164" y="335"/>
      <point x="70" y="299"/>
      <point x="70" y="173" type="curve"/>
      <point x="70" y="50"/>
      <point x="156" y="-5"/>
      <point x="289" y="-5" type="curve"/>
      <point x="423" y="-5"/>
      <point x="514" y="47"/>
      <point x="514" y="173" type="curve"/>
      <point x="514" y="297"/>
      <point x="421" y="336"/>
      <point x="307" y="391" type="curve"/>
      <point x="213" y="437"/>
      <point x="133" y="462"/>
      <point x="133" y="559" type="curve"/>
      <point x="90" y="559"/>
      <point x="133" y="559"/>
    </contour>
  </outline>
</glyph>
<glyph name="nine" format="1">
  <advance width="603"/>
  <unicode hex="0039"/>
  <outline>
    <contour>
      <point x="503" y="490" type="curve"/>
      <point x="460" y="400"/>
      <point x="398" y="344"/>
      <point x="292" y="344" type="curve"/>
      <point x="179" y="344"/>
      <point x="109" y="406"/>
      <point x="109" y="517" type="curve"/>
      <point x="109" y="625"/>
      <point x="177" y="688"/>
      <point x="285" y="688" type="curve"/>
      <point x="417" y="688"/>
      <point x="495" y="608"/>
      <point x="495" y="477" type="curve"/>
      <point x="495" y="221"/>
      <point x="323" y="86"/>
      <point x="64" y="22" type="curve"/>
      <point x="77" y="-14"/>
      <point x="64" y="22"/>
      <point x="77" y="-14" type="curve"/>
      <point x="352" y="50"/>
      <point x="536" y="200"/>
      <point x="536" y="479" type="curve"/>
      <point x="536" y="635"/>
      <point x="444" y="728"/>
      <point x="287" y="728" type="curve"/>
      <point x="150" y="728"/>
      <point x="67" y="650"/>
      <point x="67" y="516" type="curve"/>
      <point x="67" y="381"/>
      <point x="151" y="307"/>
      <point x="288" y="307" type="curve"/>
      <point x="409" y="307"/>
      <point x="484" y="370"/>
      <point x="525" y="479" type="curve"/>
      <point x="503" y="490"/>
      <point x="525" y="479"/>
    </contour>
  </outline>
</glyph>
<glyph name="colon" format="1">
  <advance width="217"/>
  <unicode hex="003A"/>
  <outline>
    <contour>
      <point x="133" y="418" type="curve"/>
      <point x="133" y="435"/>
      <point x="121" y="444"/>
      <point x="104" y="444" type="curve"/>
      <point x="87" y="444"/>
      <point x="77" y="434"/>
      <point x="77" y="418" type="curve"/>
      <point x="122" y="418"/>
      <point x="87" y="418"/>
      <point x="133" y="418" type="curve"/>
      <point x="133" y="401"/>
      <point x="121" y="392"/>
      <point x="104" y="392" type="curve"/>
      <point x="87" y="392"/>
      <point x="77" y="401"/>
      <point x="77" y="418" type="curve"/>
      <point x="122" y="418"/>
      <point x="87" y="418"/>
    </contour>
    <contour>
      <point x="132" y="20" type="curve"/>
      <point x="132" y="37"/>
      <point x="121" y="46"/>
      <point x="104" y="46" type="curve"/>
      <point x="87" y="46"/>
      <point x="76" y="36"/>
      <point x="76" y="20" type="curve"/>
      <point x="122" y="20"/>
      <point x="87" y="20"/>
      <point x="132" y="20" type="curve"/>
      <point x="132" y="3"/>
      <point x="121" y="-5"/>
      <point x="104" y="-5" type="curve"/>
      <point x="87" y="-5"/>
      <point x="76" y="4"/>
      <point x="76" y="20" type="curve"/>
      <point x="122" y="20"/>
      <point x="87" y="20"/>
    </contour>
  </outline>
</glyph>
<glyph name="semicolon" format="1">
  <advance width="181"/>
  <unicode hex="003B"/>
  <outline>
    <contour>
      <point x="47" y="-101" type="line"/>
      <point x="88" y="-80"/>
      <point x="120" y="-43"/>
      <point x="120" y="17" type="curve"/>
      <point x="120" y="47"/>
      <point x="111" y="70"/>
      <point x="86" y="70" type="curve"/>
      <point x="68" y="70"/>
      <point x="57" y="61"/>
      <point x="57" y="44" type="curve"/>
      <point x="57" y="29"/>
      <point x="65" y="20"/>
      <point x="82" y="15" type="curve"/>
      <point x="82" y="-10"/>
      <point x="70" y="-51"/>
      <point x="34" y="-74" type="curve"/>
    </contour>
    <contour>
      <point x="116" y="420" type="curve"/>
      <point x="116" y="437"/>
      <point x="104" y="446"/>
      <point x="87" y="446" type="curve"/>
      <point x="70" y="446"/>
      <point x="60" y="436"/>
      <point x="60" y="420" type="curve"/>
      <point x="105" y="420"/>
      <point x="71" y="420"/>
      <point x="116" y="420" type="curve"/>
      <point x="116" y="403"/>
      <point x="104" y="395"/>
      <point x="87" y="395" type="curve"/>
      <point x="70" y="395"/>
      <point x="60" y="404"/>
      <point x="60" y="420" type="curve"/>
      <point x="105" y="420"/>
      <point x="71" y="420"/>
    </contour>
  </outline>
</glyph>
<glyph name="less" format="1">
  <advance width="741"/>
  <unicode hex="003C"/>
  <outline>
    <contour>
      <point x="674" y="589" type="curve"/>
      <point x="463" y="499"/>
      <point x="251" y="409"/>
      <point x="39" y="319" type="curve"/>
      <point x="39" y="281"/>
      <point x="39" y="319"/>
      <point x="39" y="281" type="curve"/>
      <point x="251" y="371"/>
      <point x="463" y="461"/>
      <point x="674" y="551" type="curve"/>
      <point x="674" y="589"/>
      <point x="674" y="551"/>
    </contour>
    <contour>
      <point x="685" y="55" type="curve"/>
      <point x="469" y="143"/>
      <point x="254" y="231"/>
      <point x="39" y="319" type="curve"/>
      <point x="39" y="281"/>
      <point x="39" y="319"/>
      <point x="39" y="281" type="curve"/>
      <point x="254" y="193"/>
      <point x="469" y="105"/>
      <point x="685" y="17" type="curve"/>
      <point x="685" y="55"/>
      <point x="685" y="17"/>
    </contour>
  </outline>
</glyph>
<glyph name="equal" format="1">
  <advance width="765"/>
  <unicode hex="003D"/>
  <outline>
    <contour>
      <point x="65" y="199" type="curve"/>
      <point x="284" y="199"/>
      <point x="503" y="199"/>
      <point x="721" y="199" type="curve"/>
      <point x="721" y="236"/>
      <point x="721" y="199"/>
      <point x="721" y="236" type="curve"/>
      <point x="503" y="236"/>
      <point x="284" y="236"/>
      <point x="65" y="236" type="curve"/>
      <point x="65" y="199"/>
      <point x="65" y="236"/>
    </contour>
    <contour>
      <point x="65" y="421" type="curve"/>
      <point x="284" y="421"/>
      <point x="503" y="421"/>
      <point x="721" y="421" type="curve"/>
      <point x="721" y="458"/>
      <point x="721" y="421"/>
      <point x="721" y="458" type="curve"/>
      <point x="503" y="458"/>
      <point x="284" y="458"/>
      <point x="65" y="458" type="curve"/>
      <point x="65" y="421"/>
      <point x="65" y="458"/>
    </contour>
  </outline>
</glyph>
<glyph name="greater" format="1">
  <advance width="740"/>
  <unicode hex="003E"/>
  <outline>
    <contour>
      <point x="65" y="17" type="curve"/>
      <point x="277" y="107"/>
      <point x="489" y="197"/>
      <point x="701" y="287" type="curve"/>
      <point x="701" y="325"/>
      <point x="701" y="287"/>
      <point x="701" y="325" type="curve"/>
      <point x="489" y="235"/>
      <point x="277" y="145"/>
      <point x="65" y="55" type="curve"/>
      <point x="65" y="17"/>
      <point x="65" y="55"/>
    </contour>
    <contour>
      <point x="55" y="551" type="curve"/>
      <point x="270" y="463"/>
      <point x="486" y="375"/>
      <point x="701" y="287" type="curve"/>
      <point x="701" y="325"/>
      <point x="701" y="287"/>
      <point x="701" y="325" type="curve"/>
      <point x="486" y="413"/>
      <point x="270" y="501"/>
      <point x="55" y="589" type="curve"/>
      <point x="55" y="551"/>
      <point x="55" y="589"/>
    </contour>
  </outline>
</glyph>
<glyph name="question" format="1">
  <advance width="499"/>
  <unicode hex="003F"/>
  <outline>
    <contour>
      <point x="195" y="341" type="curve"/>
      <point x="195" y="304"/>
      <point x="195" y="258"/>
      <point x="195" y="221" type="curve"/>
      <point x="237" y="221"/>
      <point x="195" y="221"/>
      <point x="237" y="221" type="curve"/>
      <point x="237" y="258"/>
      <point x="237" y="304"/>
      <point x="237" y="341" type="curve"/>
      <point x="195" y="341"/>
      <point x="237" y="341"/>
    </contour>
    <contour>
      <point x="81" y="618" type="line"/>
      <point x="114" y="652"/>
      <point x="163" y="680"/>
      <point x="224" y="680" type="curve"/>
      <point x="328" y="680"/>
      <point x="398" y="621"/>
      <point x="398" y="519" type="curve"/>
      <point x="398" y="406"/>
      <point x="318" y="341"/>
      <point x="199" y="341" type="curve"/>
      <point x="199" y="322"/>
      <point x="199" y="324"/>
      <point x="199" y="305" type="curve"/>
      <point x="342" y="305"/>
      <point x="440" y="384"/>
      <point x="440" y="519" type="curve"/>
      <point x="440" y="643"/>
      <point x="353" y="717"/>
      <point x="227" y="717" type="curve"/>
      <point x="152" y="717"/>
      <point x="97" y="686"/>
      <point x="56" y="644" type="curve"/>
    </contour>
    <contour>
      <point x="242" y="15" type="curve"/>
      <point x="242" y="31"/>
      <point x="232" y="39"/>
      <point x="216" y="39" type="curve"/>
      <point x="200" y="39"/>
      <point x="191" y="30"/>
      <point x="191" y="15" type="curve"/>
      <point x="242" y="15"/>
      <point x="191" y="15"/>
      <point x="242" y="15" type="curve"/>
      <point x="242" y="-1"/>
      <point x="232" y="-8"/>
      <point x="216" y="-8" type="curve"/>
      <point x="200" y="-8"/>
      <point x="191" y="0"/>
      <point x="191" y="15" type="curve"/>
      <point x="242" y="15"/>
      <point x="191" y="15"/>
    </contour>
  </outline>
</glyph>
<glyph name="at" format="1">
  <advance width="858"/>
  <unicode hex="0040"/>
  <outline>
    <contour>
      <point x="604" y="-75" type="curve"/>
      <point x="547" y="-104"/>
      <point x="505" y="-111"/>
      <point x="441" y="-111" type="curve"/>
      <point x="230" y="-111"/>
      <point x="105" y="1"/>
      <point x="105" y="206" type="curve"/>
      <point x="105" y="408"/>
      <point x="232" y="518"/>
      <point x="438" y="518" type="curve"/>
      <point x="633" y="518"/>
      <point x="748" y="407"/>
      <point x="748" y="216" type="curve"/>
      <point x="748" y="135"/>
      <point x="732" y="69"/>
      <point x="670" y="69" type="curve"/>
      <point x="605" y="69"/>
      <point x="586" y="132"/>
      <point x="586" y="211" type="curve"/>
      <point x="586" y="319"/>
      <point x="530" y="387"/>
      <point x="424" y="387" type="curve"/>
      <point x="313" y="387"/>
      <point x="251" y="322"/>
      <point x="251" y="211" type="curve"/>
      <point x="251" y="97"/>
      <point x="308" y="24"/>
      <point x="419" y="24" type="curve"/>
      <point x="519" y="24"/>
      <point x="563" y="95"/>
      <point x="579" y="200" type="curve"/>
      <point x="553" y="206"/>
      <point x="579" y="200"/>
      <point x="553" y="206" type="curve"/>
      <point x="532" y="123"/>
      <point x="502" y="60"/>
      <point x="425" y="60" type="curve"/>
      <point x="334" y="60"/>
      <point x="291" y="120"/>
      <point x="291" y="213" type="curve"/>
      <point x="291" y="300"/>
      <point x="336" y="352"/>
      <point x="421" y="352" type="curve"/>
      <point x="506" y="352"/>
      <point x="547" y="297"/>
      <point x="547" y="210" type="curve"/>
      <point x="547" y="111"/>
      <point x="576" y="36"/>
      <point x="667" y="36" type="curve"/>
      <point x="760" y="36"/>
      <point x="789" y="114"/>
      <point x="789" y="218" type="curve"/>
      <point x="789" y="433"/>
      <point x="660" y="555"/>
      <point x="441" y="555" type="curve"/>
      <point x="206" y="555"/>
      <point x="64" y="433"/>
      <point x="64" y="205" type="curve"/>
      <point x="64" y="-23"/>
      <point x="205" y="-146"/>
      <point x="438" y="-146" type="curve"/>
      <point x="511" y="-146"/>
      <point x="559" y="-137"/>
      <point x="621" y="-106" type="curve"/>
      <point x="604" y="-75"/>
      <point x="621" y="-106"/>
    </contour>
  </outline>
</glyph>
<glyph name="B" format="1">
  <advance width="642"/>
  <unicode hex="0042"/>
  <outline>
    <contour>
      <point x="132" y="687" type="curve"/>
      <point x="204" y="687"/>
      <point x="269" y="687"/>
      <point x="341" y="687" type="curve"/>
      <point x="430" y="687"/>
      <point x="489" y="640"/>
      <point x="489" y="552" type="curve"/>
      <point x="489" y="463"/>
      <point x="410" y="427"/>
      <point x="317" y="427" type="curve"/>
      <point x="252" y="427"/>
      <point x="196" y="427"/>
      <point x="132" y="427" type="curve"/>
      <point x="132" y="402"/>
      <point x="132" y="416"/>
      <point x="132" y="391" type="curve"/>
      <point x="189" y="391"/>
      <point x="241" y="391"/>
      <point x="298" y="391" type="curve"/>
      <point x="419" y="391"/>
      <point x="532" y="434"/>
      <point x="532" y="551" type="curve"/>
      <point x="532" y="663"/>
      <point x="457" y="722"/>
      <point x="342" y="722" type="curve"/>
      <point x="270" y="722"/>
      <point x="204" y="722"/>
      <point x="132" y="722" type="curve"/>
      <point x="132" y="697"/>
      <point x="132" y="712"/>
    </contour>
    <contour>
      <point x="164" y="0" type="curve"/>
      <point x="164" y="241"/>
      <point x="164" y="481"/>
      <point x="164" y="722" type="curve"/>
      <point x="119" y="722"/>
      <point x="164" y="722"/>
      <point x="119" y="722" type="curve"/>
      <point x="119" y="481"/>
      <point x="119" y="241"/>
      <point x="119" y="0" type="curve"/>
      <point x="164" y="0"/>
      <point x="119" y="0"/>
    </contour>
    <contour>
      <point x="132" y="391" type="curve"/>
      <point x="196" y="391"/>
      <point x="252" y="391"/>
      <point x="317" y="391" type="curve"/>
      <point x="446" y="391"/>
      <point x="538" y="333"/>
      <point x="538" y="207" type="curve"/>
      <point x="538" y="93"/>
      <point x="461" y="35"/>
      <point x="341" y="35" type="curve"/>
      <point x="268" y="35"/>
      <point x="204" y="35"/>
      <point x="132" y="35" type="curve"/>
      <point x="132" y="10"/>
      <point x="132" y="25"/>
      <point x="132" y="0" type="curve"/>
      <point x="204" y="0"/>
      <point x="269" y="0"/>
      <point x="342" y="0" type="curve"/>
      <point x="487" y="0"/>
      <point x="581" y="69"/>
      <point x="581" y="207" type="curve"/>
      <point x="581" y="362"/>
      <point x="456" y="427"/>
      <point x="299" y="427" type="curve"/>
      <point x="241" y="427"/>
      <point x="189" y="427"/>
      <point x="132" y="427" type="curve"/>
      <point x="132" y="402"/>
      <point x="132" y="416"/>
    </contour>
  </outline>
</glyph>
<glyph name="D" format="1">
  <advance width="757"/>
  <unicode hex="0044"/>
  <outline>
    <contour>
      <point x="119" y="722" type="curve"/>
      <point x="119" y="481"/>
      <point x="119" y="241"/>
      <point x="119" y="0" type="curve"/>
      <point x="162" y="0"/>
      <point x="119" y="0"/>
      <point x="162" y="0" type="curve"/>
      <point x="162" y="241"/>
      <point x="162" y="481"/>
      <point x="162" y="722" type="curve"/>
      <point x="119" y="722"/>
      <point x="162" y="722"/>
    </contour>
    <contour>
      <point x="142" y="0" type="curve"/>
      <point x="211" y="0"/>
      <point x="273" y="0"/>
      <point x="341" y="0" type="curve"/>
      <point x="569" y="0"/>
      <point x="689" y="126"/>
      <point x="689" y="353" type="curve"/>
      <point x="689" y="590"/>
      <point x="565" y="722"/>
      <point x="329" y="722" type="curve"/>
      <point x="265" y="722"/>
      <point x="206" y="722"/>
      <point x="142" y="722" type="curve"/>
      <point x="142" y="692"/>
      <point x="142" y="716"/>
      <point x="142" y="687" type="curve"/>
      <point x="206" y="687"/>
      <point x="264" y="687"/>
      <point x="327" y="687" type="curve"/>
      <point x="539" y="687"/>
      <point x="646" y="566"/>
      <point x="646" y="352" type="curve"/>
      <point x="646" y="150"/>
      <point x="545" y="35"/>
      <point x="345" y="35" type="curve"/>
      <point x="275" y="35"/>
      <point x="212" y="35"/>
      <point x="142" y="35" type="curve"/>
      <point x="142" y="6"/>
      <point x="142" y="30"/>
    </contour>
    <contour>
      <point x="311" y="818" type="move" name="top"/>
    </contour>
  </outline>
</glyph>
<glyph name="F" format="1">
  <advance width="579"/>
  <unicode hex="0046"/>
  <outline>
    <contour>
      <point x="145" y="356" type="curve"/>
      <point x="258" y="356"/>
      <point x="370" y="356"/>
      <point x="482" y="356" type="curve"/>
      <point x="482" y="392"/>
      <point x="482" y="356"/>
      <point x="482" y="392" type="curve"/>
      <point x="370" y="392"/>
      <point x="258" y="392"/>
      <point x="145" y="392" type="curve"/>
      <point x="145" y="356"/>
      <point x="145" y="392"/>
    </contour>
    <contour>
      <point x="163" y="0" type="curve"/>
      <point x="163" y="722" type="line"/>
      <point x="120" y="722"/>
      <point x="163" y="722"/>
      <point x="120" y="722" type="curve"/>
      <point x="120" y="481"/>
      <point x="120" y="241"/>
      <point x="120" y="0" type="curve"/>
      <point x="163" y="0"/>
      <point x="120" y="0"/>
    </contour>
    <contour>
      <point x="130" y="687" type="curve"/>
      <point x="272" y="687"/>
      <point x="415" y="687"/>
      <point x="558" y="687" type="curve"/>
      <point x="558" y="722"/>
      <point x="558" y="687"/>
      <point x="558" y="722" type="curve"/>
      <point x="415" y="722"/>
      <point x="272" y="722"/>
      <point x="130" y="722" type="curve"/>
      <point x="130" y="687"/>
      <point x="130" y="722"/>
    </contour>
  </outline>
</glyph>
<glyph name="G" format="1">
  <advance width="801"/>
  <unicode hex="0047"/>
  <outline>
    <contour>
      <point x="717" y="327" type="curve"/>
      <point x="640" y="327"/>
      <point x="564" y="327"/>
      <point x="487" y="327" type="curve"/>
      <point x="487" y="291"/>
      <point x="487" y="327"/>
      <point x="487" y="291" type="curve"/>
      <point x="564" y="291"/>
      <point x="640" y="291"/>
      <point x="717" y="291" type="curve"/>
      <point x="717" y="327"/>
      <point x="717" y="291"/>
    </contour>
    <contour>
      <point x="730" y="77" type="curve"/>
      <point x="730" y="161"/>
      <point x="730" y="243"/>
      <point x="730" y="327" type="curve"/>
      <point x="691" y="327"/>
      <point x="730" y="327"/>
      <point x="691" y="327" type="curve"/>
      <point x="691" y="243"/>
      <point x="691" y="161"/>
      <point x="691" y="77" type="curve"/>
      <point x="730" y="77"/>
      <point x="691" y="77"/>
    </contour>
    <contour>
      <point x="712" y="643" type="curve"/>
      <point x="617" y="700"/>
      <point x="531" y="727"/>
      <point x="419" y="727" type="curve"/>
      <point x="193" y="727"/>
      <point x="67" y="593"/>
      <point x="67" y="364" type="curve"/>
      <point x="67" y="129"/>
      <point x="199" y="-5"/>
      <point x="431" y="-5" type="curve"/>
      <point x="550" y="-5"/>
      <point x="626" y="22"/>
      <point x="730" y="77" type="curve"/>
      <point x="707" y="105"/>
      <point x="730" y="77"/>
      <point x="707" y="105" type="curve"/>
      <point x="619" y="57"/>
      <point x="539" y="33"/>
      <point x="431" y="33" type="curve"/>
      <point x="223" y="33"/>
      <point x="110" y="157"/>
      <point x="110" y="368" type="curve"/>
      <point x="110" y="568"/>
      <point x="221" y="690"/>
      <point x="419" y="690" type="curve"/>
      <point x="523" y="690"/>
      <point x="603" y="665"/>
      <point x="692" y="612" type="curve"/>
      <point x="712" y="643"/>
      <point x="692" y="612"/>
    </contour>
    <contour>
      <point x="419" y="818" type="move" name="top"/>
    </contour>
    <contour>
      <point x="442" y="-29" type="move" name="bottom"/>
    </contour>
  </outline>
</glyph>
<glyph name="H" format="1">
  <advance width="807"/>
  <unicode hex="0048"/>
  <outline>
    <contour>
      <point x="161" y="0" type="curve"/>
      <point x="161" y="722" type="line"/>
      <point x="119" y="722"/>
      <point x="161" y="722"/>
      <point x="119" y="722" type="curve"/>
      <point x="119" y="481"/>
      <point x="119" y="241"/>
      <point x="119" y="0" type="curve"/>
      <point x="161" y="0"/>
      <point x="119" y="0"/>
    </contour>
    <contour>
      <point x="664" y="381" type="curve"/>
      <point x="489" y="381"/>
      <point x="315" y="381"/>
      <point x="140" y="381" type="curve"/>
      <point x="140" y="345"/>
      <point x="140" y="381"/>
      <point x="140" y="345" type="curve"/>
      <point x="315" y="345"/>
      <point x="489" y="345"/>
      <point x="664" y="345" type="curve"/>
      <point x="664" y="381"/>
      <point x="664" y="345"/>
    </contour>
    <contour>
      <point x="688" y="1" type="curve"/>
      <point x="688" y="236"/>
      <point x="688" y="486"/>
      <point x="688" y="721" type="curve"/>
      <point x="645" y="721"/>
      <point x="688" y="721"/>
      <point x="645" y="721" type="curve"/>
      <point x="645" y="1" type="line"/>
      <point x="688" y="1"/>
      <point x="645" y="1"/>
    </contour>
  </outline>
</glyph>
<glyph name="J" format="1">
  <advance width="454"/>
  <unicode hex="004A"/>
  <outline>
    <contour>
      <point x="13" y="41" type="curve"/>
      <point x="46" y="19"/>
      <point x="89" y="-3"/>
      <point x="143" y="-3" type="curve"/>
      <point x="277" y="-3"/>
      <point x="343" y="79"/>
      <point x="343" y="221" type="curve"/>
      <point x="343" y="397"/>
      <point x="343" y="546"/>
      <point x="343" y="722" type="curve"/>
      <point x="306" y="722"/>
      <point x="337" y="722"/>
      <point x="300" y="722" type="curve"/>
      <point x="300" y="546"/>
      <point x="300" y="397"/>
      <point x="300" y="221" type="curve"/>
      <point x="300" y="107"/>
      <point x="252" y="33"/>
      <point x="143" y="33" type="curve"/>
      <point x="98" y="33"/>
      <point x="68" y="50"/>
      <point x="34" y="69" type="curve"/>
      <point x="17" y="46"/>
      <point x="30" y="65"/>
    </contour>
  </outline>
</glyph>
<glyph name="K" format="1">
  <advance width="577"/>
  <unicode hex="004B"/>
  <outline>
    <contour>
      <point x="488" y="722" type="curve"/>
      <point x="144" y="380" type="line"/>
      <point x="202" y="380"/>
      <point x="145" y="380"/>
      <point x="202" y="380" type="curve"/>
      <point x="547" y="722" type="line"/>
      <point x="490" y="722"/>
      <point x="546" y="722"/>
    </contour>
    <contour>
      <point x="162" y="0" type="curve"/>
      <point x="162" y="722" type="line"/>
      <point x="119" y="722"/>
      <point x="162" y="722"/>
      <point x="119" y="722" type="curve"/>
      <point x="119" y="481"/>
      <point x="119" y="241"/>
      <point x="119" y="0" type="curve"/>
      <point x="162" y="0"/>
      <point x="119" y="0"/>
    </contour>
    <contour>
      <point x="573" y="0" type="curve"/>
      <point x="202" y="380" type="line"/>
      <point x="145" y="380"/>
      <point x="202" y="380"/>
      <point x="144" y="380" type="curve"/>
      <point x="512" y="0" type="line"/>
      <point x="572" y="0"/>
      <point x="513" y="0"/>
    </contour>
    <contour>
      <point x="378" y="-31" type="move" name="bottom"/>
    </contour>
  </outline>
</glyph>
<glyph name="L" format="1">
  <advance width="590"/>
  <unicode hex="004C"/>
  <outline>
    <contour>
      <point x="162" y="0" type="curve"/>
      <point x="162" y="241"/>
      <point x="162" y="481"/>
      <point x="162" y="722" type="curve"/>
      <point x="119" y="722"/>
      <point x="162" y="722"/>
      <point x="119" y="722" type="curve"/>
      <point x="119" y="481"/>
      <point x="119" y="241"/>
      <point x="119" y="0" type="curve"/>
      <point x="162" y="0"/>
      <point x="119" y="0"/>
    </contour>
    <contour>
      <point x="139" y="0" type="curve"/>
      <point x="286" y="0"/>
      <point x="433" y="0"/>
      <point x="580" y="0" type="curve"/>
      <point x="580" y="35"/>
      <point x="580" y="0"/>
      <point x="580" y="35" type="curve"/>
      <point x="433" y="35"/>
      <point x="286" y="35"/>
      <point x="139" y="35" type="curve"/>
      <point x="139" y="0"/>
      <point x="139" y="35"/>
    </contour>
    <contour>
      <point x="141" y="818" type="move" name="top"/>
    </contour>
    <contour>
      <point x="323" y="-29" type="move" name="bottom"/>
    </contour>
  </outline>
</glyph>
<glyph name="M" format="1">
  <advance width="928"/>
  <unicode hex="004D"/>
  <outline>
    <contour>
      <point x="846" y="0" type="curve"/>
      <point x="824" y="241"/>
      <point x="802" y="481"/>
      <point x="781" y="722" type="curve"/>
      <point x="742" y="722"/>
      <point x="781" y="722"/>
      <point x="742" y="722" type="curve"/>
      <point x="763" y="481"/>
      <point x="783" y="241"/>
      <point x="804" y="0" type="curve"/>
      <point x="846" y="0"/>
      <point x="804" y="0"/>
    </contour>
    <contour>
      <point x="126" y="0" type="curve"/>
      <point x="146" y="241"/>
      <point x="165" y="481"/>
      <point x="185" y="722" type="curve"/>
      <point x="146" y="722"/>
      <point x="185" y="722"/>
      <point x="146" y="722" type="curve"/>
      <point x="125" y="481"/>
      <point x="105" y="241"/>
      <point x="84" y="0" type="curve"/>
      <point x="126" y="0"/>
      <point x="84" y="0"/>
    </contour>
    <contour>
      <point x="482" y="0" type="curve"/>
      <point x="385" y="241"/>
      <point x="287" y="481"/>
      <point x="188" y="722" type="curve"/>
      <point x="149" y="722"/>
      <point x="188" y="722"/>
      <point x="148" y="722" type="curve"/>
      <point x="246" y="481"/>
      <point x="343" y="241"/>
      <point x="440" y="0" type="curve"/>
      <point x="481" y="0"/>
      <point x="441" y="0"/>
    </contour>
    <contour>
      <point x="491" y="0" type="curve"/>
      <point x="587" y="241"/>
      <point x="683" y="481"/>
      <point x="778" y="722" type="curve"/>
      <point x="739" y="722"/>
      <point x="777" y="722"/>
      <point x="738" y="722" type="curve"/>
      <point x="640" y="481"/>
      <point x="545" y="241"/>
      <point x="448" y="0" type="curve"/>
      <point x="490" y="0"/>
      <point x="449" y="0"/>
    </contour>
  </outline>
</glyph>
<glyph name="N" format="1">
  <advance width="848"/>
  <unicode hex="004E"/>
  <outline>
    <contour>
      <point x="729" y="0" type="curve"/>
      <point x="542" y="241"/>
      <point x="356" y="481"/>
      <point x="171" y="722" type="curve"/>
      <point x="120" y="722"/>
      <point x="169" y="722"/>
      <point x="119" y="722" type="curve"/>
      <point x="305" y="481"/>
      <point x="491" y="241"/>
      <point x="677" y="0" type="curve"/>
      <point x="727" y="0"/>
      <point x="678" y="0"/>
    </contour>
    <contour>
      <point x="686" y="722" type="curve"/>
      <point x="686" y="481"/>
      <point x="686" y="241"/>
      <point x="686" y="0" type="curve"/>
      <point x="729" y="0"/>
      <point x="686" y="0"/>
      <point x="729" y="0" type="curve"/>
      <point x="729" y="241"/>
      <point x="729" y="481"/>
      <point x="729" y="722" type="curve"/>
      <point x="686" y="722"/>
      <point x="729" y="722"/>
    </contour>
    <contour>
      <point x="162" y="0" type="curve"/>
      <point x="162" y="241"/>
      <point x="162" y="481"/>
      <point x="162" y="722" type="curve"/>
      <point x="119" y="722"/>
      <point x="162" y="722"/>
      <point x="119" y="722" type="curve"/>
      <point x="119" y="481"/>
      <point x="119" y="241"/>
      <point x="119" y="0" type="curve"/>
      <point x="162" y="0"/>
      <point x="119" y="0"/>
    </contour>
    <contour>
      <point x="425" y="818" type="move" name="top"/>
    </contour>
    <contour>
      <point x="439" y="-29" type="move" name="bottom"/>
    </contour>
  </outline>
</glyph>
<glyph name="P" format="1">
  <advance width="594"/>
  <unicode hex="0050"/>
  <outline>
    <contour>
      <point x="136" y="321" type="curve"/>
      <point x="190" y="294"/>
      <point x="245" y="275"/>
      <point x="307" y="275" type="curve"/>
      <point x="447" y="278"/>
      <point x="541" y="352"/>
      <point x="541" y="492" type="curve"/>
      <point x="541" y="639"/>
      <point x="433" y="722"/>
      <point x="279" y="722" type="curve"/>
      <point x="234" y="722"/>
      <point x="189" y="722"/>
      <point x="145" y="722" type="curve"/>
      <point x="145" y="687"/>
      <point x="145" y="722"/>
      <point x="145" y="687" type="curve"/>
      <point x="187" y="687"/>
      <point x="231" y="687"/>
      <point x="274" y="687" type="curve"/>
      <point x="406" y="687"/>
      <point x="498" y="618"/>
      <point x="498" y="491" type="curve"/>
      <point x="498" y="377"/>
      <point x="421" y="311"/>
      <point x="306" y="311" type="curve"/>
      <point x="245" y="311"/>
      <point x="203" y="326"/>
      <point x="150" y="353" type="curve"/>
      <point x="136" y="321"/>
      <point x="150" y="352"/>
    </contour>
    <contour>
      <point x="162" y="0" type="curve"/>
      <point x="162" y="241"/>
      <point x="162" y="481"/>
      <point x="162" y="722" type="curve"/>
      <point x="119" y="722"/>
      <point x="162" y="722"/>
      <point x="119" y="722" type="curve"/>
      <point x="119" y="481"/>
      <point x="119" y="241"/>
      <point x="119" y="0" type="curve"/>
      <point x="162" y="0"/>
      <point x="119" y="0"/>
    </contour>
  </outline>
</glyph>
<glyph name="R" format="1">
  <advance width="628"/>
  <unicode hex="0052"/>
  <outline>
    <contour>
      <point x="330" y="354" type="curve"/>
      <point x="367" y="289"/>
      <point x="537" y="65"/>
      <point x="574" y="0" type="curve"/>
      <point x="622" y="0"/>
      <point x="577" y="0"/>
      <point x="625" y="0" type="curve"/>
      <point x="589" y="64"/>
      <point x="416" y="290"/>
      <point x="380" y="354" type="curve"/>
      <point x="330" y="354"/>
      <point x="380" y="354"/>
    </contour>
    <contour>
      <point x="162" y="0" type="curve"/>
      <point x="162" y="241"/>
      <point x="162" y="481"/>
      <point x="162" y="722" type="curve"/>
      <point x="119" y="722"/>
      <point x="162" y="722"/>
      <point x="119" y="722" type="curve"/>
      <point x="119" y="481"/>
      <point x="119" y="241"/>
      <point x="119" y="0" type="curve"/>
      <point x="162" y="0"/>
      <point x="119" y="0"/>
    </contour>
    <contour>
      <point x="142" y="333" type="curve"/>
      <point x="202" y="333"/>
      <point x="261" y="333"/>
      <point x="320" y="333" type="curve"/>
      <point x="464" y="333"/>
      <point x="558" y="397"/>
      <point x="558" y="534" type="curve"/>
      <point x="558" y="665"/>
      <point x="465" y="722"/>
      <point x="326" y="722" type="curve"/>
      <point x="263" y="722"/>
      <point x="205" y="722"/>
      <point x="142" y="722" type="curve"/>
      <point x="142" y="687"/>
      <point x="142" y="722"/>
      <point x="142" y="687" type="curve"/>
      <point x="203" y="687"/>
      <point x="258" y="687"/>
      <point x="319" y="687" type="curve"/>
      <point x="436" y="687"/>
      <point x="514" y="641"/>
      <point x="514" y="531" type="curve"/>
      <point x="514" y="420"/>
      <point x="439" y="369"/>
      <point x="324" y="369" type="curve"/>
      <point x="264" y="369"/>
      <point x="203" y="369"/>
      <point x="142" y="369" type="curve"/>
      <point x="142" y="333"/>
      <point x="142" y="369"/>
    </contour>
    <contour>
      <point x="286" y="818" type="move" name="top"/>
    </contour>
    <contour>
      <point x="365" y="-30" type="move" name="bottom"/>
    </contour>
  </outline>
</glyph>
<glyph name="S" format="1">
  <advance width="562"/>
  <unicode hex="0053"/>
  <outline>
    <contour>
      <point x="47" y="57" type="curve"/>
      <point x="111" y="19"/>
      <point x="184" y="-5"/>
      <point x="266" y="-5" type="curve"/>
      <point x="405" y="-5"/>
      <point x="505" y="45"/>
      <point x="505" y="173" type="curve"/>
      <point x="505" y="294"/>
      <point x="408" y="337"/>
      <point x="296" y="390" type="curve"/>
      <point x="200" y="434"/>
      <point x="111" y="466"/>
      <point x="111" y="560" type="curve"/>
      <point x="111" y="647"/>
      <point x="180" y="692"/>
      <point x="274" y="692" type="curve"/>
      <point x="344" y="692"/>
      <point x="402" y="665"/>
      <point x="455" y="634" type="curve"/>
      <point x="471" y="658"/>
      <point x="458" y="639"/>
      <point x="474" y="663" type="curve"/>
      <point x="411" y="701"/>
      <point x="353" y="726"/>
      <point x="275" y="726" type="curve"/>
      <point x="156" y="726"/>
      <point x="68" y="669"/>
      <point x="68" y="558" type="curve"/>
      <point x="68" y="444"/>
      <point x="162" y="407"/>
      <point x="268" y="358" type="curve"/>
      <point x="370" y="311"/>
      <point x="462" y="273"/>
      <point x="462" y="172" type="curve"/>
      <point x="462" y="75"/>
      <point x="378" y="32"/>
      <point x="268" y="32" type="curve"/>
      <point x="194" y="32"/>
      <point x="127" y="57"/>
      <point x="69" y="90" type="curve"/>
      <point x="50" y="62"/>
      <point x="65" y="85"/>
    </contour>
    <contour>
      <point x="276" y="818" type="move" name="top"/>
    </contour>
    <contour>
      <point x="281" y="-30" type="move" name="bottom"/>
    </contour>
  </outline>
</glyph>
<glyph name="V" format="1">
  <advance width="666"/>
  <unicode hex="0056"/>
  <outline>
    <contour>
      <point x="605" y="722" type="curve"/>
      <point x="508" y="481"/>
      <point x="412" y="241"/>
      <point x="315" y="0" type="curve"/>
      <point x="361" y="0"/>
      <point x="314" y="0"/>
      <point x="360" y="0" type="curve"/>
      <point x="457" y="241"/>
      <point x="553" y="481"/>
      <point x="650" y="722" type="curve"/>
      <point x="605" y="722"/>
      <point x="650" y="722"/>
    </contour>
    <contour>
      <point x="13" y="722" type="curve"/>
      <point x="111" y="481"/>
      <point x="210" y="241"/>
      <point x="308" y="0" type="curve"/>
      <point x="354" y="0"/>
      <point x="308" y="0"/>
      <point x="353" y="0" type="curve"/>
      <point x="255" y="241"/>
      <point x="158" y="481"/>
      <point x="60" y="722" type="curve"/>
      <point x="14" y="722"/>
      <point x="60" y="722"/>
    </contour>
  </outline>
</glyph>
<glyph name="W" format="1">
  <advance width="895"/>
  <unicode hex="0057"/>
  <outline>
    <contour>
      <point x="263" y="0" type="curve"/>
      <point x="333" y="241"/>
      <point x="403" y="481"/>
      <point x="472" y="722" type="curve"/>
      <point x="432" y="722"/>
      <point x="473" y="722"/>
      <point x="432" y="722" type="curve"/>
      <point x="364" y="481"/>
      <point x="295" y="241"/>
      <point x="227" y="0" type="curve"/>
      <point x="262" y="0"/>
      <point x="228" y="0"/>
    </contour>
    <contour>
      <point x="440" y="722" type="curve"/>
      <point x="503" y="481"/>
      <point x="565" y="241"/>
      <point x="628" y="0" type="curve"/>
      <point x="664" y="0"/>
      <point x="629" y="0"/>
      <point x="665" y="0" type="curve"/>
      <point x="604" y="241"/>
      <point x="542" y="481"/>
      <point x="480" y="722" type="curve"/>
      <point x="439" y="722"/>
      <point x="481" y="722"/>
    </contour>
    <contour>
      <point x="31" y="722" type="curve"/>
      <point x="94" y="481"/>
      <point x="158" y="241"/>
      <point x="222" y="0" type="curve"/>
      <point x="257" y="0"/>
      <point x="224" y="0"/>
      <point x="259" y="0" type="curve"/>
      <point x="198" y="241"/>
      <point x="135" y="481"/>
      <point x="74" y="722" type="curve"/>
      <point x="31" y="722"/>
      <point x="74" y="722"/>
    </contour>
    <contour>
      <point x="826" y="722" type="curve"/>
      <point x="761" y="481"/>
      <point x="697" y="241"/>
      <point x="634" y="0" type="curve"/>
      <point x="669" y="0"/>
      <point x="635" y="0"/>
      <point x="671" y="0" type="curve"/>
      <point x="737" y="241"/>
      <point x="803" y="481"/>
      <point x="869" y="722" type="curve"/>
      <point x="826" y="722"/>
      <point x="869" y="722"/>
    </contour>
  </outline>
</glyph>
<glyph name="X" format="1">
  <advance width="612"/>
  <unicode hex="0058"/>
  <outline>
    <contour>
      <point x="528" y="722" type="curve"/>
      <point x="355" y="482"/>
      <point x="178" y="240"/>
      <point x="6" y="0" type="curve"/>
      <point x="56" y="0"/>
      <point x="9" y="0"/>
      <point x="59" y="0" type="curve"/>
      <point x="231" y="240"/>
      <point x="406" y="482"/>
      <point x="578" y="722" type="curve"/>
      <point x="531" y="722"/>
      <point x="574" y="722"/>
    </contour>
    <contour>
      <point x="38" y="722" type="curve"/>
      <point x="208" y="482"/>
      <point x="381" y="240"/>
      <point x="551" y="0" type="curve"/>
      <point x="601" y="0"/>
      <point x="554" y="0"/>
      <point x="603" y="0" type="curve"/>
      <point x="432" y="240"/>
      <point x="258" y="482"/>
      <point x="87" y="722" type="curve"/>
      <point x="41" y="722"/>
      <point x="85" y="722"/>
    </contour>
  </outline>
</glyph>
<glyph name="Y" format="1">
  <advance width="585"/>
  <unicode hex="0059"/>
  <outline>
    <contour>
      <point x="23" y="722" type="curve"/>
      <point x="104" y="595"/>
      <point x="189" y="464"/>
      <point x="270" y="337" type="curve"/>
      <point x="315" y="337"/>
      <point x="268" y="339"/>
      <point x="314" y="339" type="curve"/>
      <point x="233" y="467"/>
      <point x="152" y="594"/>
      <point x="72" y="722" type="curve"/>
      <point x="27" y="722"/>
      <point x="68" y="722"/>
    </contour>
    <contour>
      <point x="527" y="722" type="curve"/>
      <point x="442" y="594"/>
      <point x="357" y="467"/>
      <point x="271" y="339" type="curve"/>
      <point x="316" y="339"/>
      <point x="271" y="337"/>
      <point x="315" y="337" type="curve"/>
      <point x="401" y="464"/>
      <point x="489" y="595"/>
      <point x="574" y="722" type="curve"/>
      <point x="530" y="722"/>
      <point x="572" y="722"/>
    </contour>
    <contour>
      <point x="316" y="0" type="curve"/>
      <point x="316" y="115"/>
      <point x="316" y="230"/>
      <point x="316" y="345" type="curve"/>
      <point x="269" y="345"/>
      <point x="316" y="345"/>
      <point x="269" y="345" type="curve"/>
      <point x="269" y="230"/>
      <point x="269" y="115"/>
      <point x="269" y="0" type="curve"/>
      <point x="316" y="0"/>
      <point x="269" y="0"/>
    </contour>
    <contour>
      <point x="295" y="818" type="move" name="top"/>
    </contour>
  </outline>
</glyph>
<glyph name="Z" format="1">
  <advance width="635"/>
  <unicode hex="005A"/>
  <outline>
    <contour>
      <point x="62" y="687" type="curve"/>
      <point x="231" y="687"/>
      <point x="407" y="687"/>
      <point x="576" y="687" type="curve"/>
      <point x="572" y="691"/>
      <point x="567" y="692"/>
      <point x="563" y="695" type="curve"/>
      <point x="560" y="698"/>
      <point x="559" y="702"/>
      <point x="556" y="705" type="curve"/>
      <point x="552" y="701"/>
      <point x="547" y="699"/>
      <point x="544" y="694" type="curve"/>
      <point x="21" y="35" type="line"/>
      <point x="21" y="17"/>
      <point x="21" y="35"/>
      <point x="21" y="17" type="curve"/>
      <point x="21" y="0"/>
      <point x="21" y="17"/>
      <point x="21" y="0" type="curve"/>
      <point x="34" y="0"/>
      <point x="21" y="0"/>
      <point x="34" y="0" type="curve"/>
      <point x="637" y="0"/>
      <point x="429" y="0"/>
      <point x="630" y="0" type="curve"/>
      <point x="630" y="35"/>
      <point x="630" y="0"/>
      <point x="630" y="35" type="curve"/>
      <point x="429" y="35"/>
      <point x="235" y="35"/>
      <point x="34" y="35" type="curve"/>
      <point x="37" y="32"/>
      <point x="41" y="31"/>
      <point x="44" y="28" type="curve"/>
      <point x="48" y="25"/>
      <point x="50" y="20"/>
      <point x="54" y="17" type="curve"/>
      <point x="58" y="21"/>
      <point x="64" y="23"/>
      <point x="68" y="28" type="curve"/>
      <point x="592" y="687" type="line"/>
      <point x="592" y="705"/>
      <point x="592" y="687"/>
      <point x="592" y="705" type="curve"/>
      <point x="592" y="722"/>
      <point x="592" y="705"/>
      <point x="592" y="722" type="curve"/>
      <point x="574" y="722"/>
      <point x="592" y="722"/>
      <point x="574" y="722" type="curve"/>
      <point x="406" y="722"/>
      <point x="230" y="722"/>
      <point x="62" y="722" type="curve"/>
      <point x="62" y="687"/>
      <point x="62" y="722"/>
    </contour>
    <contour>
      <point x="330" y="818" type="move" name="top"/>
    </contour>
  </outline>
</glyph>
<glyph name="bracketleft" format="1">
  <advance width="293"/>
  <unicode hex="005B"/>
  <outline>
    <contour>
      <point x="264" y="771" type="curve"/>
      <point x="211" y="771"/>
      <point x="158" y="771"/>
      <point x="104" y="771" type="curve"/>
      <point x="100" y="771"/>
      <point x="95" y="771"/>
      <point x="90" y="771" type="curve"/>
      <point x="90" y="767"/>
      <point x="90" y="761"/>
      <point x="90" y="757" type="curve"/>
      <point x="90" y="468"/>
      <point x="90" y="179"/>
      <point x="90" y="-111" type="curve"/>
      <point x="90" y="-114"/>
      <point x="90" y="-119"/>
      <point x="90" y="-122" type="curve"/>
      <point x="94" y="-122"/>
      <point x="100" y="-122"/>
      <point x="103" y="-122" type="curve"/>
      <point x="157" y="-122"/>
      <point x="210" y="-122"/>
      <point x="264" y="-122" type="curve"/>
      <point x="264" y="-83"/>
      <point x="264" y="-122"/>
      <point x="264" y="-83" type="curve"/>
      <point x="210" y="-83"/>
      <point x="157" y="-83"/>
      <point x="103" y="-83" type="curve"/>
      <point x="133" y="-83"/>
      <point x="103" y="-83"/>
      <point x="133" y="-83" type="curve"/>
      <point x="133" y="-111"/>
      <point x="133" y="-83"/>
      <point x="133" y="-111" type="curve"/>
      <point x="133" y="179"/>
      <point x="133" y="468"/>
      <point x="133" y="757" type="curve"/>
      <point x="133" y="732"/>
      <point x="133" y="757"/>
      <point x="133" y="732" type="curve"/>
      <point x="104" y="732"/>
      <point x="133" y="732"/>
      <point x="104" y="732" type="curve"/>
      <point x="158" y="732"/>
      <point x="211" y="732"/>
      <point x="264" y="732" type="curve"/>
      <point x="264" y="771"/>
      <point x="264" y="732"/>
    </contour>
  </outline>
</glyph>
<glyph name="bracketright" format="1">
  <advance width="293"/>
  <unicode hex="005D"/>
  <outline>
    <contour>
      <point x="29" y="732" type="curve"/>
      <point x="82" y="732"/>
      <point x="135" y="732"/>
      <point x="189" y="732" type="curve"/>
      <point x="184" y="736"/>
      <point x="178" y="739"/>
      <point x="174" y="743" type="curve"/>
      <point x="169" y="748"/>
      <point x="164" y="753"/>
      <point x="160" y="757" type="curve"/>
      <point x="160" y="468"/>
      <point x="160" y="179"/>
      <point x="160" y="-111" type="curve"/>
      <point x="165" y="-106"/>
      <point x="170" y="-101"/>
      <point x="175" y="-96" type="curve"/>
      <point x="180" y="-92"/>
      <point x="185" y="-88"/>
      <point x="190" y="-83" type="curve"/>
      <point x="136" y="-83"/>
      <point x="82" y="-83"/>
      <point x="29" y="-83" type="curve"/>
      <point x="29" y="-122"/>
      <point x="29" y="-83"/>
      <point x="29" y="-122" type="curve"/>
      <point x="82" y="-122"/>
      <point x="136" y="-122"/>
      <point x="190" y="-122" type="curve"/>
      <point x="203" y="-122"/>
      <point x="190" y="-122"/>
      <point x="203" y="-122" type="curve"/>
      <point x="203" y="-111"/>
      <point x="203" y="-122"/>
      <point x="203" y="-111" type="curve"/>
      <point x="203" y="179"/>
      <point x="203" y="468"/>
      <point x="203" y="757" type="curve"/>
      <point x="203" y="771"/>
      <point x="203" y="757"/>
      <point x="203" y="771" type="curve"/>
      <point x="189" y="771"/>
      <point x="203" y="771"/>
      <point x="189" y="771" type="curve"/>
      <point x="135" y="771"/>
      <point x="82" y="771"/>
      <point x="29" y="771" type="curve"/>
      <point x="29" y="732"/>
      <point x="29" y="771"/>
    </contour>
  </outline>
</glyph>
<glyph name="asciicircum" format="1">
  <advance width="524"/>
  <unicode hex="005E"/>
  <outline>
    <contour>
      <point x="100" y="464" type="curve"/>
      <point x="161" y="577"/>
      <point x="222" y="689"/>
      <point x="282" y="801" type="curve"/>
      <point x="240" y="801"/>
      <point x="281" y="801"/>
      <point x="239" y="801" type="curve"/>
      <point x="178" y="689"/>
      <point x="118" y="577"/>
      <point x="57" y="464" type="curve"/>
      <point x="99" y="464"/>
      <point x="58" y="464"/>
    </contour>
    <contour>
      <point x="467" y="464" type="curve"/>
      <point x="407" y="573"/>
      <point x="343" y="692"/>
      <point x="283" y="801" type="curve"/>
      <point x="241" y="801"/>
      <point x="282" y="801"/>
      <point x="240" y="801" type="curve"/>
      <point x="299" y="692"/>
      <point x="364" y="573"/>
      <point x="424" y="464" type="curve"/>
      <point x="466" y="464"/>
      <point x="424" y="464"/>
    </contour>
  </outline>
</glyph>
<glyph name="underscore" format="1">
  <advance width="712"/>
  <unicode hex="005F"/>
  <outline>
    <contour>
      <point x="0" y="-206" type="curve"/>
      <point x="237" y="-206"/>
      <point x="474" y="-206"/>
      <point x="711" y="-206" type="curve"/>
      <point x="711" y="-171"/>
      <point x="711" y="-206"/>
      <point x="711" y="-171" type="curve"/>
      <point x="474" y="-171"/>
      <point x="237" y="-171"/>
      <point x="0" y="-171" type="curve"/>
      <point x="0" y="-206"/>
      <point x="0" y="-171"/>
    </contour>
  </outline>
</glyph>
<glyph name="a" format="1">
  <advance width="556"/>
  <unicode hex="0061"/>
  <outline>
    <contour>
      <point x="461" y="0" type="curve"/>
      <point x="461" y="129"/>
      <point x="461" y="257"/>
      <point x="461" y="386" type="curve"/>
      <point x="461" y="500"/>
      <point x="390" y="538"/>
      <point x="276" y="538" type="curve"/>
      <point x="186" y="538"/>
      <point x="121" y="505"/>
      <point x="71" y="464" type="curve"/>
      <point x="89" y="435"/>
      <point x="71" y="463"/>
      <point x="90" y="434" type="curve"/>
      <point x="133" y="467"/>
      <point x="191" y="502"/>
      <point x="270" y="502" type="curve"/>
      <point x="363" y="502"/>
      <point x="417" y="472"/>
      <point x="417" y="377" type="curve"/>
      <point x="417" y="251"/>
      <point x="417" y="126"/>
      <point x="417" y="0" type="curve"/>
      <point x="461" y="0"/>
      <point x="417" y="0"/>
    </contour>
    <contour>
      <point x="437" y="324" type="curve"/>
      <point x="356" y="313"/>
      <point x="310" y="309"/>
      <point x="229" y="298" type="curve"/>
      <point x="127" y="284"/>
      <point x="57" y="247"/>
      <point x="57" y="144" type="curve"/>
      <point x="57" y="47"/>
      <point x="114" y="-5"/>
      <point x="218" y="-5" type="curve"/>
      <point x="332" y="-5"/>
      <point x="388" y="63"/>
      <point x="450" y="150" type="curve"/>
      <point x="427" y="171"/>
      <point x="451" y="151"/>
      <point x="428" y="172" type="curve"/>
      <point x="378" y="97"/>
      <point x="322" y="30"/>
      <point x="227" y="30" type="curve"/>
      <point x="143" y="30"/>
      <point x="99" y="70"/>
      <point x="99" y="146" type="curve"/>
      <point x="99" y="225"/>
      <point x="152" y="256"/>
      <point x="228" y="266" type="curve"/>
      <point x="311" y="277"/>
      <point x="356" y="282"/>
      <point x="439" y="293" type="curve"/>
      <point x="437" y="324"/>
      <point x="439" y="293"/>
    </contour>
    <contour>
      <point x="277" y="662" type="move" name="top"/>
    </contour>
    <contour>
      <point x="456" y="2" type="move" name="bottom"/>
    </contour>
  </outline>
</glyph>
<glyph name="b" format="1">
  <advance width="644"/>
  <unicode hex="0062"/>
  <outline>
    <contour>
      <point x="133" y="395" type="curve"/>
      <point x="172" y="446"/>
      <point x="248" y="502"/>
      <point x="341" y="502" type="curve"/>
      <point x="469" y="502"/>
      <point x="540" y="402"/>
      <point x="540" y="265" type="curve"/>
      <point x="540" y="133"/>
      <point x="465" y="30"/>
      <point x="341" y="31" type="curve"/>
      <point x="257" y="31"/>
      <point x="192" y="68"/>
      <point x="136" y="132" type="curve"/>
      <point x="114" y="115"/>
      <point x="133" y="127"/>
      <point x="111" y="110" type="curve"/>
      <point x="175" y="37"/>
      <point x="246" y="-5"/>
      <point x="345" y="-5" type="curve"/>
      <point x="496" y="-5"/>
      <point x="583" y="107"/>
      <point x="583" y="267" type="curve"/>
      <point x="583" y="425"/>
      <point x="498" y="538"/>
      <point x="346" y="538" type="curve"/>
      <point x="241" y="538"/>
      <point x="159" y="481"/>
      <point x="113" y="422" type="curve"/>
      <point x="130" y="402"/>
      <point x="116" y="414"/>
    </contour>
    <contour>
      <point x="144" y="0" type="curve"/>
      <point x="144" y="270"/>
      <point x="144" y="530"/>
      <point x="144" y="800" type="curve"/>
      <point x="108" y="800"/>
      <point x="136" y="800"/>
      <point x="101" y="800" type="curve"/>
      <point x="101" y="530"/>
      <point x="101" y="270"/>
      <point x="101" y="0" type="curve"/>
      <point x="136" y="0"/>
      <point x="108" y="0"/>
    </contour>
  </outline>
</glyph>
<glyph name="f" format="1">
  <advance width="469"/>
  <unicode hex="0066"/>
  <outline>
    <contour>
      <point x="22" y="498" type="curve"/>
      <point x="443" y="498" type="line"/>
      <point x="443" y="533"/>
      <point x="443" y="498"/>
      <point x="443" y="533" type="curve"/>
      <point x="22" y="533" type="line"/>
      <point x="22" y="498"/>
      <point x="22" y="533"/>
    </contour>
    <contour>
      <point x="235" y="0" type="curve"/>
      <point x="235" y="635" type="line"/>
      <point x="235" y="717"/>
      <point x="279" y="770"/>
      <point x="358" y="770" type="curve"/>
      <point x="392" y="770"/>
      <point x="425" y="759"/>
      <point x="456" y="745" type="curve"/>
      <point x="473" y="773"/>
      <point x="456" y="745"/>
      <point x="473" y="773" type="curve"/>
      <point x="437" y="790"/>
      <point x="397" y="805"/>
      <point x="358" y="805" type="curve"/>
      <point x="255" y="805"/>
      <point x="192" y="739"/>
      <point x="193" y="635" type="curve"/>
      <point x="193" y="0" type="line"/>
      <point x="235" y="0"/>
      <point x="193" y="0"/>
    </contour>
  </outline>
</glyph>
<glyph name="g" format="1">
  <advance width="531"/>
  <unicode hex="0067"/>
  <outline>
    <contour>
      <point x="364" y="490" type="curve"/>
      <point x="520" y="566" type="line"/>
      <point x="515" y="574"/>
      <point x="506" y="592"/>
      <point x="500" y="600" type="curve"/>
      <point x="341" y="517" type="line"/>
      <point x="363" y="490"/>
      <point x="341" y="517"/>
    </contour>
    <contour>
      <point x="102" y="355" type="curve"/>
      <point x="102" y="446"/>
      <point x="168" y="503"/>
      <point x="264" y="503" type="curve"/>
      <point x="358" y="503"/>
      <point x="421" y="449"/>
      <point x="421" y="357" type="curve"/>
      <point x="421" y="270"/>
      <point x="356" y="216"/>
      <point x="262" y="216" type="curve"/>
      <point x="170" y="216"/>
      <point x="102" y="266"/>
      <point x="102" y="355" type="curve"/>
      <point x="58" y="353"/>
      <point x="102" y="355"/>
      <point x="58" y="353" type="curve"/>
      <point x="58" y="243"/>
      <point x="143" y="182"/>
      <point x="259" y="182" type="curve"/>
      <point x="377" y="182"/>
      <point x="464" y="245"/>
      <point x="464" y="359" type="curve"/>
      <point x="464" y="472"/>
      <point x="381" y="538"/>
      <point x="264" y="538" type="curve"/>
      <point x="143" y="538"/>
      <point x="58" y="469"/>
      <point x="58" y="353" type="curve"/>
      <point x="102" y="355"/>
      <point x="58" y="353"/>
    </contour>
    <contour>
      <point x="147" y="230" type="curve"/>
      <point x="97" y="203"/>
      <point x="63" y="167"/>
      <point x="63" y="110" type="curve"/>
      <point x="63" y="17"/>
      <point x="153" y="-7"/>
      <point x="254" y="-16" type="curve"/>
      <point x="370" y="-25"/>
      <point x="480" y="-39"/>
      <point x="480" y="-140" type="curve"/>
      <point x="480" y="-238"/>
      <point x="377" y="-270"/>
      <point x="260" y="-270" type="curve"/>
      <point x="149" y="-270"/>
      <point x="57" y="-227"/>
      <point x="57" y="-129" type="curve"/>
      <point x="57" y="-60"/>
      <point x="100" y="-17"/>
      <point x="164" y="9" type="curve"/>
      <point x="143" y="31"/>
      <point x="164" y="9"/>
      <point x="143" y="31" type="curve"/>
      <point x="67" y="0"/>
      <point x="14" y="-48"/>
      <point x="14" y="-131" type="curve"/>
      <point x="14" y="-254"/>
      <point x="123" y="-304"/>
      <point x="258" y="-304" type="curve"/>
      <point x="399" y="-304"/>
      <point x="521" y="-265"/>
      <point x="519" y="-137" type="curve"/>
      <point x="519" y="-14"/>
      <point x="396" y="7"/>
      <point x="262" y="18" type="curve"/>
      <point x="179" y="23"/>
      <point x="106" y="40"/>
      <point x="106" y="114" type="curve"/>
      <point x="106" y="158"/>
      <point x="129" y="186"/>
      <point x="168" y="209" type="curve"/>
      <point x="147" y="230"/>
      <point x="168" y="209"/>
    </contour>
    <contour>
      <point x="263" y="662" type="move" name="top"/>
    </contour>
  </outline>
</glyph>
<glyph name="h" format="1">
  <advance width="626"/>
  <unicode hex="0068"/>
  <outline>
    <contour>
      <point x="134" y="343" type="curve"/>
      <point x="166" y="432"/>
      <point x="247" y="502"/>
      <point x="340" y="502" type="curve"/>
      <point x="442" y="502"/>
      <point x="489" y="439"/>
      <point x="489" y="335" type="curve"/>
      <point x="489" y="223"/>
      <point x="489" y="112"/>
      <point x="489" y="0" type="curve"/>
      <point x="532" y="0"/>
      <point x="489" y="0"/>
      <point x="532" y="0" type="curve"/>
      <point x="532" y="114"/>
      <point x="532" y="227"/>
      <point x="532" y="340" type="curve"/>
      <point x="532" y="465"/>
      <point x="471" y="538"/>
      <point x="347" y="538" type="curve"/>
      <point x="240" y="538"/>
      <point x="147" y="466"/>
      <point x="115" y="363" type="curve"/>
      <point x="135" y="344"/>
      <point x="114" y="362"/>
    </contour>
    <contour>
      <point x="144" y="0" type="curve"/>
      <point x="144" y="267"/>
      <point x="144" y="533"/>
      <point x="144" y="800" type="curve"/>
      <point x="101" y="800"/>
      <point x="144" y="800"/>
      <point x="101" y="800" type="curve"/>
      <point x="101" y="533"/>
      <point x="101" y="267"/>
      <point x="101" y="0" type="curve"/>
      <point x="144" y="0"/>
      <point x="101" y="0"/>
    </contour>
  </outline>
</glyph>
<glyph name="i" format="1">
  <advance width="256"/>
  <unicode hex="0069"/>
  <outline>
    <contour>
      <point x="149" y="0" type="curve"/>
      <point x="149" y="178"/>
      <point x="149" y="355"/>
      <point x="149" y="533" type="curve"/>
      <point x="104" y="533"/>
      <point x="149" y="533"/>
      <point x="104" y="533" type="curve"/>
      <point x="104" y="355"/>
      <point x="104" y="178"/>
      <point x="104" y="0" type="curve"/>
      <point x="149" y="0"/>
      <point x="104" y="0"/>
    </contour>
    <contour>
      <point x="156" y="686" type="curve"/>
      <point x="156" y="703"/>
      <point x="143" y="713"/>
      <point x="125" y="713" type="curve"/>
      <point x="108" y="713"/>
      <point x="97" y="703"/>
      <point x="97" y="686" type="curve"/>
      <point x="144" y="686"/>
      <point x="109" y="686"/>
      <point x="156" y="686" type="curve"/>
      <point x="156" y="668"/>
      <point x="143" y="659"/>
      <point x="125" y="659" type="curve"/>
      <point x="108" y="659"/>
      <point x="97" y="669"/>
      <point x="97" y="686" type="curve"/>
      <point x="144" y="686"/>
      <point x="109" y="686"/>
    </contour>
    <contour>
      <point x="125" y="661" type="move" name="top"/>
    </contour>
    <contour>
      <point x="148" y="1" type="move" name="bottom"/>
    </contour>
  </outline>
</glyph>
<glyph name="j" format="1">
  <advance width="241"/>
  <unicode hex="006A"/>
  <outline>
    <contour>
      <point x="-61" y="-301" type="curve"/>
      <point x="-52" y="-302"/>
      <point x="-41" y="-304"/>
      <point x="-29" y="-304" type="curve"/>
      <point x="73" y="-304"/>
      <point x="146" y="-241"/>
      <point x="146" y="-139" type="curve"/>
      <point x="146" y="85"/>
      <point x="146" y="309"/>
      <point x="146" y="533" type="curve"/>
      <point x="104" y="533"/>
      <point x="146" y="533"/>
      <point x="104" y="533" type="curve"/>
      <point x="104" y="309"/>
      <point x="104" y="85"/>
      <point x="104" y="-139" type="curve"/>
      <point x="104" y="-215"/>
      <point x="50" y="-268"/>
      <point x="-27" y="-268" type="curve"/>
      <point x="-36" y="-268"/>
      <point x="-48" y="-266"/>
      <point x="-54" y="-265" type="curve"/>
      <point x="-60" y="-300"/>
      <point x="-55" y="-267"/>
    </contour>
    <contour>
      <point x="157" y="685" type="curve"/>
      <point x="157" y="703"/>
      <point x="144" y="713"/>
      <point x="126" y="713" type="curve"/>
      <point x="109" y="713"/>
      <point x="98" y="702"/>
      <point x="98" y="685" type="curve"/>
      <point x="144" y="685"/>
      <point x="109" y="685"/>
      <point x="157" y="685" type="curve"/>
      <point x="157" y="668"/>
      <point x="144" y="658"/>
      <point x="126" y="658" type="curve"/>
      <point x="108" y="658"/>
      <point x="98" y="668"/>
      <point x="98" y="685" type="curve"/>
      <point x="144" y="685"/>
      <point x="109" y="685"/>
    </contour>
  </outline>
</glyph>
<glyph name="k" format="1">
  <advance width="514"/>
  <unicode hex="006B"/>
  <outline>
    <contour>
      <point x="144" y="0" type="curve"/>
      <point x="144" y="800" type="line"/>
      <point x="101" y="800"/>
      <point x="144" y="800"/>
      <point x="101" y="800" type="curve"/>
      <point x="101" y="533"/>
      <point x="101" y="267"/>
      <point x="101" y="0" type="curve"/>
      <point x="144" y="0"/>
      <point x="101" y="0"/>
    </contour>
    <contour>
      <point x="412" y="533" type="curve"/>
      <point x="128" y="275" type="line"/>
      <point x="186" y="275"/>
      <point x="128" y="275"/>
      <point x="186" y="275" type="curve"/>
      <point x="471" y="533" type="line"/>
      <point x="412" y="533"/>
      <point x="471" y="533"/>
    </contour>
    <contour>
      <point x="498" y="0" type="curve"/>
      <point x="186" y="275" type="line"/>
      <point x="128" y="275"/>
      <point x="186" y="275"/>
      <point x="128" y="275" type="curve"/>
      <point x="437" y="0" type="line"/>
      <point x="498" y="0"/>
      <point x="437" y="0"/>
    </contour>
    <contour>
      <point x="341" y="-31" type="move" name="bottom"/>
    </contour>
  </outline>
</glyph>
<glyph name="m" format="1">
  <advance width="932"/>
  <unicode hex="006D"/>
  <outline>
    <contour>
      <point x="481" y="341" type="curve"/>
      <point x="517" y="432"/>
      <point x="575" y="502"/>
      <point x="664" y="502" type="curve"/>
      <point x="765" y="502"/>
      <point x="794" y="443"/>
      <point x="794" y="336" type="curve"/>
      <point x="794" y="225"/>
      <point x="794" y="112"/>
      <point x="794" y="0" type="curve"/>
      <point x="837" y="0"/>
      <point x="794" y="0"/>
      <point x="837" y="0" type="curve"/>
      <point x="837" y="114"/>
      <point x="837" y="227"/>
      <point x="837" y="340" type="curve"/>
      <point x="837" y="468"/>
      <point x="796" y="538"/>
      <point x="674" y="538" type="curve"/>
      <point x="567" y="538"/>
      <point x="497" y="466"/>
      <point x="462" y="359" type="curve"/>
      <point x="481" y="341"/>
      <point x="461" y="359"/>
    </contour>
    <contour>
      <point x="134" y="341" type="curve"/>
      <point x="170" y="432"/>
      <point x="227" y="503"/>
      <point x="317" y="503" type="curve"/>
      <point x="417" y="503"/>
      <point x="448" y="443"/>
      <point x="448" y="336" type="curve"/>
      <point x="448" y="225"/>
      <point x="448" y="112"/>
      <point x="448" y="0" type="curve"/>
      <point x="490" y="0"/>
      <point x="448" y="0"/>
      <point x="490" y="0" type="curve"/>
      <point x="490" y="114"/>
      <point x="490" y="227"/>
      <point x="490" y="340" type="curve"/>
      <point x="490" y="468"/>
      <point x="450" y="538"/>
      <point x="328" y="538" type="curve"/>
      <point x="219" y="538"/>
      <point x="152" y="468"/>
      <point x="115" y="360" type="curve"/>
      <point x="135" y="341"/>
      <point x="115" y="359"/>
    </contour>
    <contour>
      <point x="144" y="0" type="curve"/>
      <point x="144" y="178"/>
      <point x="144" y="355"/>
      <point x="144" y="533" type="curve"/>
      <point x="101" y="533"/>
      <point x="144" y="533"/>
      <point x="101" y="533" type="curve"/>
      <point x="101" y="355"/>
      <point x="101" y="178"/>
      <point x="101" y="0" type="curve"/>
      <point x="144" y="0"/>
      <point x="101" y="0"/>
    </contour>
  </outline>
</glyph>
<glyph name="p" format="1">
  <advance width="645"/>
  <unicode hex="0070"/>
  <outline>
    <contour>
      <point x="132" y="396" type="curve"/>
      <point x="171" y="451"/>
      <point x="250" y="503"/>
      <point x="342" y="503" type="curve"/>
      <point x="473" y="503"/>
      <point x="542" y="407"/>
      <point x="542" y="274" type="curve"/>
      <point x="545" y="133"/>
      <point x="474" y="29"/>
      <point x="343" y="30" type="curve"/>
      <point x="255" y="30"/>
      <point x="194" y="70"/>
      <point x="134" y="131" type="curve"/>
      <point x="114" y="115"/>
      <point x="131" y="126"/>
      <point x="111" y="110" type="curve"/>
      <point x="176" y="38"/>
      <point x="246" y="-5"/>
      <point x="346" y="-5" type="curve"/>
      <point x="504" y="-5"/>
      <point x="585" y="114"/>
      <point x="584" y="276" type="curve"/>
      <point x="584" y="429"/>
      <point x="500" y="538"/>
      <point x="348" y="538" type="curve"/>
      <point x="244" y="538"/>
      <point x="160" y="486"/>
      <point x="114" y="424" type="curve"/>
      <point x="130" y="401"/>
      <point x="115" y="419"/>
    </contour>
    <contour>
      <point x="144" y="-300" type="curve"/>
      <point x="144" y="-22"/>
      <point x="144" y="255"/>
      <point x="144" y="533" type="curve"/>
      <point x="101" y="533"/>
      <point x="144" y="533"/>
      <point x="101" y="533" type="curve"/>
      <point x="101" y="255"/>
      <point x="101" y="-22"/>
      <point x="101" y="-300" type="curve"/>
      <point x="144" y="-300"/>
      <point x="101" y="-300"/>
    </contour>
  </outline>
</glyph>
<glyph name="q" format="1">
  <advance width="650"/>
  <unicode hex="0071"/>
  <outline>
    <contour>
      <point x="536" y="431" type="curve"/>
      <point x="477" y="499"/>
      <point x="391" y="538"/>
      <point x="301" y="538" type="curve"/>
      <point x="144" y="538"/>
      <point x="62" y="424"/>
      <point x="62" y="264" type="curve"/>
      <point x="62" y="104"/>
      <point x="149" y="-5"/>
      <point x="305" y="-5" type="curve"/>
      <point x="401" y="-5"/>
      <point x="484" y="49"/>
      <point x="538" y="124" type="curve"/>
      <point x="519" y="142"/>
      <point x="535" y="132"/>
      <point x="517" y="149" type="curve"/>
      <point x="468" y="78"/>
      <point x="393" y="30"/>
      <point x="309" y="30" type="curve"/>
      <point x="177" y="30"/>
      <point x="105" y="128"/>
      <point x="105" y="266" type="curve"/>
      <point x="105" y="403"/>
      <point x="175" y="502"/>
      <point x="306" y="502" type="curve"/>
      <point x="386" y="502"/>
      <point x="464" y="466"/>
      <point x="520" y="405" type="curve"/>
      <point x="535" y="424"/>
      <point x="521" y="412"/>
    </contour>
    <contour>
      <point x="549" y="-300" type="curve"/>
      <point x="549" y="-20"/>
      <point x="549" y="253"/>
      <point x="549" y="533" type="curve"/>
      <point x="513" y="533"/>
      <point x="541" y="533"/>
      <point x="504" y="533" type="curve"/>
      <point x="504" y="253"/>
      <point x="504" y="-20"/>
      <point x="504" y="-300" type="curve"/>
      <point x="541" y="-300"/>
      <point x="513" y="-300"/>
    </contour>
  </outline>
</glyph>
<glyph name="r" format="1">
  <advance width="396"/>
  <unicode hex="0072"/>
  <outline>
    <contour>
      <point x="144" y="0" type="curve"/>
      <point x="144" y="180"/>
      <point x="144" y="353"/>
      <point x="144" y="533" type="curve"/>
      <point x="108" y="533"/>
      <point x="136" y="533"/>
      <point x="101" y="533" type="curve"/>
      <point x="101" y="353"/>
      <point x="101" y="180"/>
      <point x="101" y="0" type="curve"/>
      <point x="136" y="0"/>
      <point x="108" y="0"/>
    </contour>
    <contour>
      <point x="133" y="347" type="curve"/>
      <point x="180" y="456"/>
      <point x="277" y="500"/>
      <point x="384" y="500" type="curve"/>
      <point x="384" y="533"/>
      <point x="384" y="505"/>
      <point x="384" y="538" type="curve"/>
      <point x="267" y="538"/>
      <point x="161" y="483"/>
      <point x="118" y="376" type="curve"/>
      <point x="134" y="356"/>
      <point x="119" y="365"/>
    </contour>
    <contour>
      <point x="132" y="662" type="move" name="top"/>
    </contour>
    <contour>
      <point x="144" y="-28" type="move" name="bottom"/>
    </contour>
  </outline>
</glyph>
<glyph name="s" format="1">
  <advance width="479"/>
  <unicode hex="0073"/>
  <outline>
    <contour>
      <point x="47" y="50" type="curve"/>
      <point x="113" y="18"/>
      <point x="174" y="-5"/>
      <point x="245" y="-5" type="curve"/>
      <point x="354" y="-5"/>
      <point x="428" y="39"/>
      <point x="428" y="140" type="curve"/>
      <point x="427" y="241"/>
      <point x="344" y="263"/>
      <point x="243" y="294" type="curve" smooth="yes"/>
      <point x="168" y="317"/>
      <point x="110" y="343"/>
      <point x="110" y="413" type="curve"/>
      <point x="110" y="474"/>
      <point x="158" y="502"/>
      <point x="228" y="502" type="curve"/>
      <point x="281" y="502"/>
      <point x="337" y="484"/>
      <point x="375" y="460" type="curve"/>
      <point x="390" y="486"/>
      <point x="377" y="465"/>
      <point x="393" y="491" type="curve"/>
      <point x="351" y="517"/>
      <point x="289" y="538"/>
      <point x="230" y="538" type="curve"/>
      <point x="136" y="538"/>
      <point x="71" y="499"/>
      <point x="71" y="413" type="curve"/>
      <point x="71" y="321"/>
      <point x="136" y="288"/>
      <point x="229" y="260" type="curve" smooth="yes"/>
      <point x="312" y="234"/>
      <point x="387" y="218"/>
      <point x="386" y="139" type="curve"/>
      <point x="386" y="65"/>
      <point x="330" y="31"/>
      <point x="251" y="31" type="curve"/>
      <point x="185" y="31"/>
      <point x="130" y="52"/>
      <point x="66" y="82" type="curve"/>
      <point x="47" y="50"/>
      <point x="66" y="82"/>
    </contour>
    <contour>
      <point x="233" y="662" type="move" name="top"/>
    </contour>
    <contour>
      <point x="260" y="-31" type="move" name="bottom"/>
    </contour>
  </outline>
</glyph>
<glyph name="t" format="1">
  <advance width="428"/>
  <unicode hex="0074"/>
  <outline>
    <contour>
      <point x="15" y="498" type="curve"/>
      <point x="419" y="498" type="line"/>
      <point x="419" y="533"/>
      <point x="419" y="498"/>
      <point x="419" y="533" type="curve"/>
      <point x="15" y="533" type="line"/>
      <point x="15" y="498"/>
      <point x="15" y="533"/>
    </contour>
    <contour>
      <point x="394" y="59" type="curve"/>
      <point x="360" y="42"/>
      <point x="335" y="32"/>
      <point x="297" y="32" type="curve"/>
      <point x="228" y="32"/>
      <point x="197" y="73"/>
      <point x="197" y="150" type="curve"/>
      <point x="197" y="678" type="line"/>
      <point x="176" y="665"/>
      <point x="175" y="662"/>
      <point x="154" y="649" type="curve"/>
      <point x="154" y="147" type="line"/>
      <point x="154" y="49"/>
      <point x="200" y="-5"/>
      <point x="293" y="-5" type="curve"/>
      <point x="339" y="-5"/>
      <point x="370" y="7"/>
      <point x="410" y="27" type="curve"/>
      <point x="394" y="59"/>
      <point x="410" y="27"/>
    </contour>
    <contour>
      <point x="302" y="-31" type="move" name="bottom"/>
    </contour>
  </outline>
</glyph>
<glyph name="v" format="1">
  <advance width="549"/>
  <unicode hex="0076"/>
  <outline>
    <contour>
      <point x="31" y="533" type="curve"/>
      <point x="103" y="355"/>
      <point x="176" y="178"/>
      <point x="248" y="0" type="curve"/>
      <point x="290" y="0"/>
      <point x="248" y="0"/>
      <point x="290" y="0" type="curve"/>
      <point x="218" y="178"/>
      <point x="148" y="355"/>
      <point x="76" y="533" type="curve"/>
      <point x="31" y="533"/>
      <point x="76" y="533"/>
    </contour>
    <contour>
      <point x="481" y="533" type="curve"/>
      <point x="254" y="0" type="line"/>
      <point x="297" y="0"/>
      <point x="254" y="0"/>
      <point x="297" y="0" type="curve"/>
      <point x="373" y="178"/>
      <point x="449" y="355"/>
      <point x="525" y="533" type="curve"/>
      <point x="481" y="533"/>
      <point x="525" y="533"/>
    </contour>
  </outline>
</glyph>
<glyph name="w" format="1">
  <advance width="899"/>
  <unicode hex="0077"/>
  <outline>
    <contour>
      <point x="265" y="0" type="curve"/>
      <point x="336" y="178"/>
      <point x="407" y="355"/>
      <point x="477" y="533" type="curve"/>
      <point x="433" y="533"/>
      <point x="477" y="533"/>
      <point x="433" y="533" type="curve"/>
      <point x="363" y="355"/>
      <point x="293" y="178"/>
      <point x="224" y="0" type="curve"/>
      <point x="265" y="0"/>
      <point x="224" y="0"/>
    </contour>
    <contour>
      <point x="826" y="533" type="curve"/>
      <point x="761" y="355"/>
      <point x="696" y="178"/>
      <point x="631" y="0" type="curve"/>
      <point x="672" y="0"/>
      <point x="631" y="0"/>
      <point x="672" y="0" type="curve"/>
      <point x="739" y="178"/>
      <point x="804" y="355"/>
      <point x="871" y="533" type="curve"/>
      <point x="826" y="533"/>
      <point x="871" y="533"/>
    </contour>
    <contour>
      <point x="439" y="533" type="curve"/>
      <point x="503" y="355"/>
      <point x="566" y="178"/>
      <point x="630" y="0" type="curve"/>
      <point x="671" y="0"/>
      <point x="630" y="0"/>
      <point x="671" y="0" type="curve"/>
      <point x="608" y="178"/>
      <point x="545" y="355"/>
      <point x="482" y="533" type="curve"/>
      <point x="439" y="533"/>
      <point x="482" y="533"/>
    </contour>
    <contour>
      <point x="32" y="533" type="curve"/>
      <point x="96" y="355"/>
      <point x="160" y="178"/>
      <point x="223" y="0" type="curve"/>
      <point x="264" y="0"/>
      <point x="223" y="0"/>
      <point x="264" y="0" type="curve"/>
      <point x="201" y="178"/>
      <point x="139" y="355"/>
      <point x="77" y="533" type="curve"/>
      <point x="32" y="533"/>
      <point x="77" y="533"/>
    </contour>
  </outline>
</glyph>
<glyph name="x" format="1">
  <advance width="543"/>
  <unicode hex="0078"/>
  <outline>
    <contour>
      <point x="526" y="0" type="curve"/>
      <point x="401" y="152"/>
      <point x="207" y="381"/>
      <point x="83" y="533" type="curve"/>
      <point x="27" y="533"/>
      <point x="90" y="533"/>
      <point x="34" y="533" type="curve"/>
      <point x="157" y="381"/>
      <point x="350" y="152"/>
      <point x="473" y="0" type="curve"/>
      <point x="526" y="0"/>
      <point x="473" y="0"/>
    </contour>
    <contour>
      <point x="463" y="533" type="curve"/>
      <point x="338" y="381"/>
      <point x="141" y="152"/>
      <point x="16" y="0" type="curve"/>
      <point x="69" y="0"/>
      <point x="16" y="0"/>
      <point x="69" y="0" type="curve"/>
      <point x="193" y="152"/>
      <point x="388" y="381"/>
      <point x="513" y="533" type="curve"/>
      <point x="453" y="533"/>
      <point x="523" y="533"/>
    </contour>
  </outline>
</glyph>
<glyph name="z" format="1">
  <advance width="517"/>
  <unicode hex="007A"/>
  <outline>
    <contour>
      <point x="53" y="498" type="curve"/>
      <point x="184" y="498"/>
      <point x="312" y="498"/>
      <point x="443" y="498" type="curve"/>
      <point x="439" y="502"/>
      <point x="434" y="502"/>
      <point x="430" y="506" type="curve"/>
      <point x="427" y="509"/>
      <point x="426" y="513"/>
      <point x="423" y="516" type="curve"/>
      <point x="419" y="512"/>
      <point x="414" y="510"/>
      <point x="410" y="506" type="curve"/>
      <point x="37" y="35" type="line"/>
      <point x="37" y="17"/>
      <point x="37" y="35"/>
      <point x="37" y="17" type="curve"/>
      <point x="37" y="0"/>
      <point x="37" y="17"/>
      <point x="37" y="0" type="curve"/>
      <point x="51" y="0"/>
      <point x="37" y="0"/>
      <point x="51" y="0" type="curve"/>
      <point x="484" y="0"/>
      <point x="338" y="0"/>
      <point x="483" y="0" type="curve"/>
      <point x="483" y="35"/>
      <point x="483" y="0"/>
      <point x="483" y="35" type="curve"/>
      <point x="338" y="35"/>
      <point x="195" y="35"/>
      <point x="51" y="35" type="curve"/>
      <point x="54" y="33"/>
      <point x="58" y="31"/>
      <point x="62" y="28" type="curve"/>
      <point x="65" y="25"/>
      <point x="68" y="20"/>
      <point x="71" y="17" type="curve"/>
      <point x="75" y="21"/>
      <point x="77" y="23"/>
      <point x="81" y="27" type="curve"/>
      <point x="455" y="498" type="line"/>
      <point x="455" y="516"/>
      <point x="455" y="498"/>
      <point x="455" y="516" type="curve"/>
      <point x="455" y="533"/>
      <point x="455" y="516"/>
      <point x="455" y="533" type="curve"/>
      <point x="443" y="533"/>
      <point x="455" y="533"/>
      <point x="443" y="533" type="curve"/>
      <point x="312" y="533"/>
      <point x="184" y="533"/>
      <point x="53" y="533" type="curve"/>
      <point x="53" y="498"/>
      <point x="53" y="533"/>
    </contour>
    <contour>
      <point x="256" y="661" type="move" name="top"/>
    </contour>
  </outline>
</glyph>
<glyph name="braceleft" format="1">
  <advance width="285"/>
  <unicode hex="007B"/>
  <outline>
    <contour>
      <point x="257" y="-86" type="curve"/>
      <point x="188" y="-86"/>
      <point x="155" y="-39"/>
      <point x="155" y="32" type="curve"/>
      <point x="155" y="90"/>
      <point x="155" y="148"/>
      <point x="155" y="205" type="curve"/>
      <point x="155" y="296"/>
      <point x="105" y="357"/>
      <point x="15" y="357" type="curve"/>
      <point x="15" y="321"/>
      <point x="15" y="357"/>
      <point x="15" y="321" type="curve"/>
      <point x="81" y="321"/>
      <point x="116" y="277"/>
      <point x="116" y="209" type="curve"/>
      <point x="116" y="151"/>
      <point x="116" y="92"/>
      <point x="116" y="34" type="curve"/>
      <point x="116" y="-60"/>
      <point x="165" y="-121"/>
      <point x="257" y="-121" type="curve"/>
      <point x="257" y="-86"/>
      <point x="257" y="-121"/>
    </contour>
    <contour>
      <point x="257" y="798" type="curve"/>
      <point x="165" y="798"/>
      <point x="116" y="738"/>
      <point x="116" y="645" type="curve"/>
      <point x="116" y="585"/>
      <point x="116" y="526"/>
      <point x="116" y="467" type="curve"/>
      <point x="116" y="400"/>
      <point x="81" y="357"/>
      <point x="15" y="357" type="curve"/>
      <point x="15" y="321"/>
      <point x="15" y="357"/>
      <point x="15" y="321" type="curve"/>
      <point x="104" y="321"/>
      <point x="154" y="380"/>
      <point x="154" y="472" type="curve"/>
      <point x="154" y="529"/>
      <point x="154" y="587"/>
      <point x="154" y="645" type="curve"/>
      <point x="154" y="715"/>
      <point x="187" y="763"/>
      <point x="257" y="763" type="curve"/>
      <point x="257" y="798"/>
      <point x="257" y="763"/>
    </contour>
  </outline>
</glyph>
<glyph name="bar" format="1">
  <advance width="226"/>
  <unicode hex="007C"/>
  <outline>
    <contour>
      <point x="134" y="-300" type="curve"/>
      <point x="134" y="67"/>
      <point x="134" y="433"/>
      <point x="134" y="800" type="curve"/>
      <point x="92" y="800"/>
      <point x="134" y="800"/>
      <point x="92" y="800" type="curve"/>
      <point x="92" y="433"/>
      <point x="92" y="67"/>
      <point x="92" y="-300" type="curve"/>
      <point x="134" y="-300"/>
      <point x="92" y="-300"/>
    </contour>
  </outline>
</glyph>
<glyph name="braceright" format="1">
  <advance width="285"/>
  <unicode hex="007D"/>
  <outline>
    <contour>
      <point x="28" y="-122" type="curve"/>
      <point x="119" y="-122"/>
      <point x="169" y="-60"/>
      <point x="169" y="34" type="curve"/>
      <point x="169" y="92"/>
      <point x="169" y="151"/>
      <point x="169" y="209" type="curve"/>
      <point x="169" y="276"/>
      <point x="204" y="320"/>
      <point x="269" y="320" type="curve"/>
      <point x="269" y="357"/>
      <point x="269" y="320"/>
      <point x="269" y="357" type="curve"/>
      <point x="180" y="357"/>
      <point x="130" y="296"/>
      <point x="130" y="205" type="curve"/>
      <point x="130" y="148"/>
      <point x="130" y="90"/>
      <point x="130" y="32" type="curve"/>
      <point x="130" y="-39"/>
      <point x="97" y="-87"/>
      <point x="28" y="-87" type="curve"/>
      <point x="28" y="-122"/>
      <point x="28" y="-87"/>
    </contour>
    <contour>
      <point x="28" y="763" type="curve"/>
      <point x="97" y="763"/>
      <point x="130" y="715"/>
      <point x="130" y="645" type="curve"/>
      <point x="130" y="587"/>
      <point x="130" y="529"/>
      <point x="130" y="472" type="curve"/>
      <point x="130" y="380"/>
      <point x="180" y="320"/>
      <point x="269" y="320" type="curve"/>
      <point x="269" y="357"/>
      <point x="269" y="320"/>
      <point x="269" y="357" type="curve"/>
      <point x="204" y="357"/>
      <point x="168" y="399"/>
      <point x="168" y="467" type="curve"/>
      <point x="168" y="526"/>
      <point x="168" y="585"/>
      <point x="168" y="645" type="curve"/>
      <point x="168" y="738"/>
      <point x="119" y="798"/>
      <point x="28" y="798" type="curve"/>
      <point x="28" y="763"/>
      <point x="28" y="798"/>
    </contour>
  </outline>
</glyph>
<glyph name="asciitilde" format="1">
  <advance width="708"/>
  <unicode hex="007E"/>
  <outline>
    <contour>
      <point x="586" y="349" type="curve"/>
      <point x="567" y="301"/>
      <point x="543" y="251"/>
      <point x="484" y="251" type="curve"/>
      <point x="436" y="251"/>
      <point x="404" y="266"/>
      <point x="366" y="296" type="curve"/>
      <point x="323" y="331"/>
      <point x="289" y="352"/>
      <point x="234" y="352" type="curve"/>
      <point x="148" y="352"/>
      <point x="110" y="307"/>
      <point x="87" y="229" type="curve"/>
      <point x="110" y="220"/>
      <point x="97" y="224"/>
      <point x="121" y="216" type="curve"/>
      <point x="138" y="273"/>
      <point x="166" y="317"/>
      <point x="231" y="317" type="curve"/>
      <point x="274" y="317"/>
      <point x="301" y="302"/>
      <point x="334" y="275" type="curve"/>
      <point x="383" y="238"/>
      <point x="420" y="216"/>
      <point x="481" y="216" type="curve"/>
      <point x="562" y="216"/>
      <point x="595" y="267"/>
      <point x="621" y="338" type="curve"/>
      <point x="596" y="345"/>
      <point x="610" y="342"/>
    </contour>
  </outline>
</glyph>
<glyph name="exclamdown" format="1">
  <advance width="243"/>
  <unicode hex="00A1"/>
  <outline>
    <contour>
      <point x="103" y="306" type="line"/>
      <point x="97" y="-187" type="line"/>
      <point x="148" y="-187" type="line"/>
      <point x="143" y="306" type="line"/>
    </contour>
    <contour>
      <point x="94" y="516" type="curve"/>
      <point x="94" y="499"/>
      <point x="105" y="490"/>
      <point x="122" y="490" type="curve"/>
      <point x="139" y="490"/>
      <point x="150" y="500"/>
      <point x="150" y="516" type="curve"/>
      <point x="104" y="516"/>
      <point x="139" y="516"/>
      <point x="94" y="516" type="curve"/>
      <point x="94" y="533"/>
      <point x="105" y="542"/>
      <point x="122" y="541" type="curve"/>
      <point x="139" y="541"/>
      <point x="150" y="532"/>
      <point x="150" y="516" type="curve"/>
      <point x="104" y="516"/>
      <point x="139" y="516"/>
    </contour>
  </outline>
</glyph>
<glyph name="cent" format="1">
  <advance width="652"/>
  <unicode hex="00A2"/>
  <outline>
    <contour>
      <point x="361" y="-53" type="curve"/>
      <point x="361" y="-13"/>
      <point x="361" y="27"/>
      <point x="361" y="67" type="curve"/>
      <point x="319" y="67"/>
      <point x="361" y="67"/>
      <point x="319" y="67" type="curve"/>
      <point x="319" y="27"/>
      <point x="319" y="-13"/>
      <point x="319" y="-53" type="curve"/>
      <point x="361" y="-53"/>
      <point x="319" y="-53"/>
    </contour>
    <contour>
      <point x="340" y="778" type="curve"/>
      <point x="340" y="742"/>
      <point x="340" y="706"/>
      <point x="340" y="670" type="curve"/>
      <point x="382" y="670"/>
      <point x="340" y="670"/>
      <point x="382" y="670" type="curve"/>
      <point x="382" y="706"/>
      <point x="382" y="742"/>
      <point x="382" y="778" type="curve"/>
      <point x="340" y="778"/>
      <point x="382" y="778"/>
    </contour>
    <contour>
      <point x="594" y="608" type="curve"/>
      <point x="519" y="659"/>
      <point x="457" y="680"/>
      <point x="366" y="680" type="curve"/>
      <point x="173" y="680"/>
      <point x="56" y="560"/>
      <point x="56" y="366" type="curve"/>
      <point x="56" y="179"/>
      <point x="154" y="53"/>
      <point x="337" y="53" type="curve"/>
      <point x="440" y="53"/>
      <point x="511" y="83"/>
      <point x="593" y="146" type="curve"/>
      <point x="567" y="174"/>
      <point x="593" y="146"/>
      <point x="567" y="174" type="curve"/>
      <point x="494" y="117"/>
      <point x="433" y="89"/>
      <point x="341" y="89" type="curve"/>
      <point x="182" y="89"/>
      <point x="99" y="202"/>
      <point x="99" y="367" type="curve"/>
      <point x="99" y="537"/>
      <point x="197" y="644"/>
      <point x="363" y="644" type="curve"/>
      <point x="446" y="644"/>
      <point x="503" y="625"/>
      <point x="571" y="579" type="curve"/>
      <point x="594" y="608"/>
      <point x="571" y="579"/>
    </contour>
  </outline>
</glyph>
<glyph name="sterling" format="1">
  <advance width="534"/>
  <unicode hex="00A3"/>
  <outline>
    <contour>
      <point x="463" y="35" type="curve"/>
      <point x="321" y="35"/>
      <point x="181" y="35"/>
      <point x="41" y="35" type="curve"/>
      <point x="41" y="0"/>
      <point x="41" y="35"/>
      <point x="41" y="0" type="curve"/>
      <point x="181" y="0"/>
      <point x="322" y="0"/>
      <point x="463" y="0" type="curve"/>
      <point x="463" y="35"/>
      <point x="463" y="0"/>
    </contour>
    <contour>
      <point x="413" y="394" type="curve"/>
      <point x="301" y="394"/>
      <point x="188" y="394"/>
      <point x="77" y="394" type="curve"/>
      <point x="77" y="359"/>
      <point x="77" y="394"/>
      <point x="77" y="359" type="curve"/>
      <point x="188" y="359"/>
      <point x="301" y="359"/>
      <point x="413" y="359" type="curve"/>
      <point x="413" y="394"/>
      <point x="413" y="359"/>
    </contour>
    <contour>
      <point x="477" y="673" type="curve"/>
      <point x="429" y="707"/>
      <point x="391" y="723"/>
      <point x="333" y="723" type="curve"/>
      <point x="173" y="723"/>
      <point x="127" y="563"/>
      <point x="168" y="373" type="curve"/>
      <point x="207" y="195"/>
      <point x="183" y="35"/>
      <point x="41" y="35" type="curve"/>
      <point x="41" y="0"/>
      <point x="41" y="35"/>
      <point x="41" y="0" type="curve"/>
      <point x="218" y="0"/>
      <point x="252" y="177"/>
      <point x="209" y="380" type="curve"/>
      <point x="175" y="544"/>
      <point x="207" y="689"/>
      <point x="331" y="689" type="curve"/>
      <point x="381" y="689"/>
      <point x="415" y="675"/>
      <point x="455" y="647" type="curve"/>
      <point x="477" y="673"/>
      <point x="455" y="647"/>
    </contour>
  </outline>
</glyph>
<glyph name="currency" format="1">
  <advance width="658"/>
  <unicode hex="00A4"/>
  <outline>
    <contour>
      <point x="197" y="311" type="curve"/>
      <point x="197" y="395"/>
      <point x="246" y="449"/>
      <point x="330" y="449" type="curve"/>
      <point x="415" y="449"/>
      <point x="461" y="395"/>
      <point x="461" y="311" type="curve"/>
      <point x="461" y="226"/>
      <point x="417" y="167"/>
      <point x="334" y="167" type="curve"/>
      <point x="246" y="167"/>
      <point x="197" y="223"/>
      <point x="197" y="311" type="curve"/>
      <point x="154" y="311"/>
      <point x="197" y="311"/>
      <point x="155" y="311" type="curve"/>
      <point x="155" y="200"/>
      <point x="222" y="132"/>
      <point x="333" y="132" type="curve"/>
      <point x="441" y="132"/>
      <point x="504" y="204"/>
      <point x="504" y="312" type="curve"/>
      <point x="504" y="418"/>
      <point x="439" y="484"/>
      <point x="334" y="484" type="curve"/>
      <point x="223" y="484"/>
      <point x="155" y="420"/>
      <point x="155" y="311" type="curve"/>
      <point x="197" y="311"/>
      <point x="154" y="311"/>
    </contour>
    <contour>
      <point x="450" y="402" type="line"/>
      <point x="590" y="536" type="line"/>
      <point x="555" y="571" type="line"/>
      <point x="420" y="431" type="line"/>
    </contour>
    <contour>
      <point x="421" y="190" type="line"/>
      <point x="555" y="50" type="line"/>
      <point x="590" y="85" type="line"/>
      <point x="450" y="219" type="line"/>
    </contour>
    <contour>
      <point x="207" y="220" type="line"/>
      <point x="67" y="86" type="line"/>
      <point x="101" y="51" type="line"/>
      <point x="236" y="191" type="line"/>
    </contour>
    <contour>
      <point x="238" y="432" type="line"/>
      <point x="104" y="572" type="line"/>
      <point x="69" y="537" type="line"/>
      <point x="209" y="403" type="line"/>
    </contour>
  </outline>
</glyph>
<glyph name="yen" format="1">
  <advance width="642"/>
  <unicode hex="00A5"/>
  <outline>
    <contour>
      <point x="556" y="381" type="curve"/>
      <point x="482" y="381"/>
      <point x="409" y="381"/>
      <point x="335" y="381" type="curve"/>
      <point x="335" y="342"/>
      <point x="335" y="381"/>
      <point x="335" y="342" type="curve"/>
      <point x="409" y="342"/>
      <point x="482" y="342"/>
      <point x="556" y="342" type="curve"/>
      <point x="556" y="381"/>
      <point x="556" y="342"/>
    </contour>
    <contour>
      <point x="305" y="381" type="curve"/>
      <point x="233" y="381"/>
      <point x="161" y="381"/>
      <point x="89" y="381" type="curve"/>
      <point x="89" y="342"/>
      <point x="89" y="381"/>
      <point x="89" y="342" type="curve"/>
      <point x="161" y="342"/>
      <point x="233" y="342"/>
      <point x="305" y="342" type="curve"/>
      <point x="305" y="381"/>
      <point x="305" y="342"/>
    </contour>
    <contour>
      <point x="556" y="256" type="curve"/>
      <point x="400" y="256"/>
      <point x="244" y="256"/>
      <point x="89" y="256" type="curve"/>
      <point x="89" y="218"/>
      <point x="89" y="256"/>
      <point x="89" y="218" type="curve"/>
      <point x="244" y="218"/>
      <point x="400" y="218"/>
      <point x="556" y="218" type="curve"/>
      <point x="556" y="256"/>
      <point x="556" y="218"/>
    </contour>
    <contour>
      <point x="48" y="722" type="curve"/>
      <point x="129" y="595"/>
      <point x="214" y="464"/>
      <point x="295" y="337" type="curve"/>
      <point x="340" y="337"/>
      <point x="293" y="339"/>
      <point x="339" y="339" type="curve"/>
      <point x="258" y="467"/>
      <point x="178" y="594"/>
      <point x="97" y="722" type="curve"/>
      <point x="52" y="722"/>
      <point x="93" y="722"/>
    </contour>
    <contour>
      <point x="552" y="722" type="curve"/>
      <point x="467" y="594"/>
      <point x="382" y="467"/>
      <point x="297" y="339" type="curve"/>
      <point x="341" y="339"/>
      <point x="296" y="337"/>
      <point x="340" y="337" type="curve"/>
      <point x="426" y="464"/>
      <point x="514" y="595"/>
      <point x="600" y="722" type="curve"/>
      <point x="555" y="722"/>
      <point x="597" y="722"/>
    </contour>
    <contour>
      <point x="341" y="0" type="curve"/>
      <point x="341" y="115"/>
      <point x="341" y="230"/>
      <point x="341" y="345" type="curve"/>
      <point x="294" y="345"/>
      <point x="341" y="345"/>
      <point x="294" y="345" type="curve"/>
      <point x="294" y="230"/>
      <point x="294" y="115"/>
      <point x="294" y="0" type="curve"/>
      <point x="341" y="0"/>
      <point x="294" y="0"/>
    </contour>
  </outline>
</glyph>
<glyph name="section" format="1">
  <advance width="505"/>
  <unicode hex="00A7"/>
  <outline>
    <contour>
      <point x="411" y="708" type="curve"/>
      <point x="357" y="736"/>
      <point x="315" y="751"/>
      <point x="254" y="751" type="curve"/>
      <point x="161" y="751"/>
      <point x="98" y="706"/>
      <point x="98" y="622" type="curve"/>
      <point x="98" y="542"/>
      <point x="153" y="503"/>
      <point x="232" y="476" type="curve"/>
      <point x="317" y="448"/>
      <point x="404" y="440"/>
      <point x="404" y="360" type="curve"/>
      <point x="404" y="290"/>
      <point x="355" y="251"/>
      <point x="279" y="236" type="curve"/>
      <point x="304" y="208"/>
      <point x="279" y="236"/>
      <point x="304" y="208" type="curve"/>
      <point x="391" y="229"/>
      <point x="447" y="275"/>
      <point x="447" y="361" type="curve"/>
      <point x="446" y="461"/>
      <point x="353" y="478"/>
      <point x="253" y="509" type="curve"/>
      <point x="189" y="530"/>
      <point x="140" y="559"/>
      <point x="140" y="622" type="curve"/>
      <point x="140" y="683"/>
      <point x="183" y="716"/>
      <point x="252" y="716" type="curve"/>
      <point x="307" y="716"/>
      <point x="343" y="704"/>
      <point x="392" y="679" type="curve"/>
      <point x="411" y="708"/>
      <point x="392" y="679"/>
    </contour>
    <contour>
      <point x="198" y="515" type="curve"/>
      <point x="117" y="491"/>
      <point x="63" y="449"/>
      <point x="63" y="367" type="curve"/>
      <point x="63" y="272"/>
      <point x="144" y="245"/>
      <point x="240" y="216" type="curve"/>
      <point x="310" y="192"/>
      <point x="375" y="172"/>
      <point x="375" y="105" type="curve"/>
      <point x="375" y="41"/>
      <point x="326" y="6"/>
      <point x="256" y="6" type="curve"/>
      <point x="193" y="6"/>
      <point x="152" y="23"/>
      <point x="99" y="56" type="curve"/>
      <point x="76" y="29"/>
      <point x="99" y="56"/>
      <point x="76" y="29" type="curve"/>
      <point x="135" y="-11"/>
      <point x="183" y="-29"/>
      <point x="254" y="-29" type="curve"/>
      <point x="349" y="-29"/>
      <point x="417" y="14"/>
      <point x="417" y="105" type="curve"/>
      <point x="415" y="188"/>
      <point x="351" y="223"/>
      <point x="267" y="248" type="curve"/>
      <point x="185" y="275"/>
      <point x="105" y="291"/>
      <point x="105" y="368" type="curve"/>
      <point x="105" y="436"/>
      <point x="151" y="468"/>
      <point x="219" y="490" type="curve"/>
      <point x="198" y="515"/>
      <point x="219" y="490"/>
    </contour>
  </outline>
</glyph>
<glyph name="dieresis" format="1">
  <advance width="423"/>
  <unicode hex="00A8"/>
  <outline>
    <contour>
      <point x="153" y="661" type="curve"/>
      <point x="153" y="678"/>
      <point x="141" y="687"/>
      <point x="124" y="687" type="curve"/>
      <point x="107" y="687"/>
      <point x="97" y="677"/>
      <point x="97" y="661" type="curve"/>
      <point x="142" y="661"/>
      <point x="107" y="661"/>
      <point x="153" y="661" type="curve"/>
      <point x="153" y="644"/>
      <point x="141" y="636"/>
      <point x="124" y="636" type="curve"/>
      <point x="107" y="636"/>
      <point x="97" y="645"/>
      <point x="97" y="661" type="curve"/>
      <point x="142" y="661"/>
      <point x="107" y="661"/>
    </contour>
    <contour>
      <point x="292" y="661" type="curve"/>
      <point x="292" y="678"/>
      <point x="280" y="687"/>
      <point x="263" y="687" type="curve"/>
      <point x="246" y="687"/>
      <point x="236" y="677"/>
      <point x="236" y="661" type="curve"/>
      <point x="281" y="661"/>
      <point x="247" y="661"/>
      <point x="292" y="661" type="curve"/>
      <point x="292" y="644"/>
      <point x="280" y="636"/>
      <point x="263" y="636" type="curve"/>
      <point x="246" y="636"/>
      <point x="236" y="645"/>
      <point x="236" y="661" type="curve"/>
      <point x="281" y="661"/>
      <point x="247" y="661"/>
    </contour>
    <contour>
      <point x="194" y="637" type="move" name="_top"/>
    </contour>
  </outline>
</glyph>
<glyph name="copyright" format="1">
  <advance width="805"/>
  <unicode hex="00A9"/>
  <outline>
    <contour>
      <point x="106" y="320" type="curve"/>
      <point x="106" y="499"/>
      <point x="226" y="615"/>
      <point x="406" y="615" type="curve"/>
      <point x="582" y="615"/>
      <point x="699" y="496"/>
      <point x="699" y="319" type="curve"/>
      <point x="699" y="145"/>
      <point x="586" y="29"/>
      <point x="413" y="29" type="curve"/>
      <point x="233" y="29"/>
      <point x="106" y="140"/>
      <point x="106" y="320" type="curve"/>
      <point x="68" y="320"/>
      <point x="106" y="320"/>
      <point x="68" y="320" type="curve"/>
      <point x="68" y="122"/>
      <point x="209" y="-3"/>
      <point x="411" y="-3" type="curve"/>
      <point x="606" y="-3"/>
      <point x="737" y="126"/>
      <point x="737" y="320" type="curve"/>
      <point x="737" y="517"/>
      <point x="603" y="645"/>
      <point x="406" y="645" type="curve"/>
      <point x="206" y="645"/>
      <point x="68" y="519"/>
      <point x="68" y="320" type="curve"/>
      <point x="106" y="320"/>
      <point x="68" y="320"/>
    </contour>
    <contour>
      <point x="536" y="462" type="curve"/>
      <point x="496" y="488"/>
      <point x="461" y="499"/>
      <point x="412" y="499" type="curve"/>
      <point x="302" y="499"/>
      <point x="235" y="430"/>
      <point x="235" y="320" type="curve"/>
      <point x="235" y="213"/>
      <point x="294" y="145"/>
      <point x="399" y="145" type="curve"/>
      <point x="458" y="145"/>
      <point x="500" y="157"/>
      <point x="547" y="193" type="curve"/>
      <point x="525" y="216"/>
      <point x="547" y="193"/>
      <point x="525" y="216" type="curve"/>
      <point x="485" y="187"/>
      <point x="450" y="176"/>
      <point x="401" y="176" type="curve"/>
      <point x="316" y="176"/>
      <point x="272" y="234"/>
      <point x="272" y="321" type="curve"/>
      <point x="272" y="410"/>
      <point x="322" y="467"/>
      <point x="411" y="467" type="curve"/>
      <point x="449" y="467"/>
      <point x="478" y="460"/>
      <point x="517" y="439" type="curve"/>
      <point x="536" y="462"/>
      <point x="517" y="439"/>
    </contour>
  </outline>
</glyph>
<glyph name="ordfeminine" format="1">
  <advance width="421"/>
  <unicode hex="00AA"/>
  <outline>
    <contour>
      <point x="334" y="427" type="curve"/>
      <point x="334" y="519"/>
      <point x="334" y="587"/>
      <point x="334" y="679" type="curve"/>
      <point x="334" y="744"/>
      <point x="279" y="768"/>
      <point x="208" y="768" type="curve"/>
      <point x="154" y="768"/>
      <point x="111" y="747"/>
      <point x="80" y="717" type="curve"/>
      <point x="88" y="703"/>
      <point x="86" y="708"/>
      <point x="95" y="692" type="curve"/>
      <point x="120" y="715"/>
      <point x="157" y="738"/>
      <point x="203" y="738" type="curve"/>
      <point x="257" y="738"/>
      <point x="298" y="720"/>
      <point x="298" y="671" type="curve"/>
      <point x="298" y="582"/>
      <point x="298" y="516"/>
      <point x="298" y="427" type="curve"/>
      <point x="321" y="427"/>
      <point x="312" y="427"/>
    </contour>
    <contour>
      <point x="315" y="635" type="curve"/>
      <point x="264" y="628"/>
      <point x="230" y="627"/>
      <point x="179" y="620" type="curve"/>
      <point x="114" y="611"/>
      <point x="65" y="582"/>
      <point x="65" y="519" type="curve"/>
      <point x="65" y="455"/>
      <point x="112" y="423"/>
      <point x="180" y="423" type="curve"/>
      <point x="248" y="423"/>
      <point x="289" y="464"/>
      <point x="325" y="517" type="curve"/>
      <point x="314" y="526"/>
      <point x="318" y="523"/>
      <point x="307" y="532" type="curve"/>
      <point x="278" y="489"/>
      <point x="243" y="453"/>
      <point x="187" y="453" type="curve"/>
      <point x="136" y="453"/>
      <point x="100" y="474"/>
      <point x="100" y="521" type="curve"/>
      <point x="100" y="565"/>
      <point x="133" y="587"/>
      <point x="178" y="593" type="curve"/>
      <point x="229" y="600"/>
      <point x="265" y="602"/>
      <point x="316" y="609" type="curve"/>
      <point x="316" y="624"/>
      <point x="316" y="619"/>
    </contour>
  </outline>
</glyph>
<glyph name="guillemotleft" format="1">
  <advance width="608"/>
  <unicode hex="00AB"/>
  <outline>
    <contour>
      <point x="290" y="411" type="curve"/>
      <point x="281" y="406"/>
      <point x="58" y="303"/>
      <point x="49" y="298" type="curve"/>
      <point x="49" y="259"/>
      <point x="49" y="296"/>
      <point x="49" y="258" type="curve"/>
      <point x="58" y="263"/>
      <point x="281" y="367"/>
      <point x="290" y="372" type="curve"/>
      <point x="290" y="410"/>
      <point x="290" y="373"/>
    </contour>
    <contour>
      <point x="290" y="184" type="curve"/>
      <point x="282" y="189"/>
      <point x="58" y="293"/>
      <point x="49" y="298" type="curve"/>
      <point x="49" y="259"/>
      <point x="49" y="296"/>
      <point x="49" y="258" type="curve"/>
      <point x="58" y="253"/>
      <point x="282" y="150"/>
      <point x="290" y="145" type="curve"/>
      <point x="290" y="183"/>
      <point x="290" y="146"/>
    </contour>
    <contour>
      <point x="528" y="411" type="curve"/>
      <point x="520" y="406"/>
      <point x="296" y="303"/>
      <point x="288" y="298" type="curve"/>
      <point x="288" y="259"/>
      <point x="288" y="296"/>
      <point x="288" y="258" type="curve"/>
      <point x="296" y="263"/>
      <point x="520" y="367"/>
      <point x="528" y="372" type="curve"/>
      <point x="528" y="410"/>
      <point x="528" y="373"/>
    </contour>
    <contour>
      <point x="529" y="184" type="curve"/>
      <point x="520" y="189"/>
      <point x="296" y="293"/>
      <point x="288" y="298" type="curve"/>
      <point x="288" y="259"/>
      <point x="288" y="296"/>
      <point x="288" y="258" type="curve"/>
      <point x="296" y="253"/>
      <point x="520" y="150"/>
      <point x="529" y="145" type="curve"/>
      <point x="529" y="183"/>
      <point x="529" y="146"/>
    </contour>
  </outline>
</glyph>
<glyph name="logicalnot" format="1">
  <advance width="713"/>
  <unicode hex="00AC"/>
  <outline>
    <contour>
      <point x="89" y="290" type="curve"/>
      <point x="621" y="290" type="line"/>
      <point x="621" y="329"/>
      <point x="621" y="290"/>
      <point x="621" y="329" type="curve"/>
      <point x="89" y="329" type="line"/>
      <point x="89" y="290"/>
      <point x="89" y="329"/>
    </contour>
    <contour>
      <point x="621" y="151" type="curve"/>
      <point x="621" y="329" type="line"/>
      <point x="578" y="329"/>
      <point x="622" y="329"/>
      <point x="579" y="329" type="curve"/>
      <point x="579" y="151" type="line"/>
      <point x="622" y="151"/>
      <point x="578" y="151"/>
    </contour>
  </outline>
</glyph>
<glyph name="registered" format="1">
  <advance width="806"/>
  <unicode hex="00AE"/>
  <outline>
    <contour>
      <point x="105" y="320" type="curve"/>
      <point x="105" y="501"/>
      <point x="225" y="616"/>
      <point x="407" y="616" type="curve"/>
      <point x="585" y="616"/>
      <point x="702" y="498"/>
      <point x="702" y="318" type="curve"/>
      <point x="702" y="143"/>
      <point x="588" y="27"/>
      <point x="414" y="27" type="curve"/>
      <point x="231" y="27"/>
      <point x="105" y="138"/>
      <point x="105" y="320" type="curve"/>
      <point x="79" y="320"/>
      <point x="95" y="320"/>
      <point x="69" y="320" type="curve"/>
      <point x="69" y="121"/>
      <point x="209" y="-3"/>
      <point x="412" y="-3" type="curve"/>
      <point x="608" y="-3"/>
      <point x="737" y="124"/>
      <point x="737" y="320" type="curve"/>
      <point x="737" y="518"/>
      <point x="605" y="645"/>
      <point x="407" y="645" type="curve"/>
      <point x="206" y="645"/>
      <point x="69" y="520"/>
      <point x="69" y="320" type="curve"/>
      <point x="95" y="320"/>
      <point x="79" y="320"/>
    </contour>
    <contour>
      <point x="407" y="310" type="curve"/>
      <point x="419" y="284"/>
      <point x="490" y="174"/>
      <point x="502" y="148" type="curve"/>
      <point x="524" y="148"/>
      <point x="515" y="148"/>
      <point x="540" y="148" type="curve"/>
      <point x="528" y="173"/>
      <point x="459" y="283"/>
      <point x="447" y="310" type="curve"/>
      <point x="404" y="310"/>
      <point x="450" y="311"/>
    </contour>
    <contour>
      <point x="345" y="148" type="curve"/>
      <point x="345" y="258"/>
      <point x="345" y="383"/>
      <point x="345" y="494" type="curve"/>
      <point x="322" y="494"/>
      <point x="332" y="494"/>
      <point x="308" y="494" type="curve"/>
      <point x="308" y="384"/>
      <point x="308" y="257"/>
      <point x="308" y="148" type="curve"/>
      <point x="332" y="148"/>
      <point x="321" y="148"/>
    </contour>
    <contour>
      <point x="329" y="291" type="curve"/>
      <point x="350" y="291"/>
      <point x="372" y="291"/>
      <point x="393" y="291" type="curve"/>
      <point x="469" y="291"/>
      <point x="521" y="318"/>
      <point x="521" y="392" type="curve"/>
      <point x="521" y="459"/>
      <point x="473" y="494"/>
      <point x="404" y="494" type="curve"/>
      <point x="385" y="494"/>
      <point x="358" y="494"/>
      <point x="338" y="494" type="curve"/>
      <point x="308" y="465"/>
      <point x="346" y="494"/>
      <point x="308" y="462" type="curve"/>
      <point x="338" y="462"/>
      <point x="368" y="462"/>
      <point x="397" y="462" type="curve"/>
      <point x="448" y="462"/>
      <point x="484" y="439"/>
      <point x="484" y="390" type="curve"/>
      <point x="484" y="340"/>
      <point x="450" y="323"/>
      <point x="399" y="323" type="curve"/>
      <point x="375" y="323"/>
      <point x="352" y="323"/>
      <point x="329" y="323" type="curve"/>
      <point x="329" y="291"/>
      <point x="329" y="323"/>
    </contour>
  </outline>
</glyph>
<glyph name="macron" format="1">
  <advance width="339"/>
  <unicode hex="00AF"/>
  <outline>
    <contour>
      <point x="274" y="678" type="curve"/>
      <point x="196" y="678"/>
      <point x="117" y="678"/>
      <point x="39" y="678" type="curve"/>
      <point x="39" y="644"/>
      <point x="39" y="678"/>
      <point x="39" y="644" type="curve"/>
      <point x="117" y="644"/>
      <point x="196" y="644"/>
      <point x="274" y="644" type="curve"/>
      <point x="274" y="678"/>
      <point x="274" y="644"/>
    </contour>
    <contour>
      <point x="160" y="644" type="move" name="_top"/>
    </contour>
  </outline>
</glyph>
<glyph name="degree" format="1">
  <advance width="491"/>
  <unicode hex="00B0"/>
  <outline>
    <contour>
      <point x="423" y="448" type="curve"/>
      <point x="423" y="570"/>
      <point x="362" y="653"/>
      <point x="245" y="653" type="curve"/>
      <point x="129" y="653"/>
      <point x="69" y="570"/>
      <point x="69" y="450" type="curve"/>
      <point x="102" y="450"/>
      <point x="74" y="450"/>
      <point x="107" y="450" type="curve"/>
      <point x="107" y="548"/>
      <point x="149" y="620"/>
      <point x="243" y="620" type="curve"/>
      <point x="338" y="620"/>
      <point x="384" y="549"/>
      <point x="384" y="448" type="curve"/>
      <point x="384" y="345"/>
      <point x="342" y="271"/>
      <point x="246" y="271" type="curve"/>
      <point x="149" y="271"/>
      <point x="107" y="347"/>
      <point x="107" y="450" type="curve"/>
      <point x="74" y="450"/>
      <point x="102" y="450"/>
      <point x="69" y="450" type="curve"/>
      <point x="69" y="325"/>
      <point x="126" y="237"/>
      <point x="245" y="237" type="curve"/>
      <point x="364" y="237"/>
      <point x="423" y="324"/>
    </contour>
  </outline>
</glyph>
<glyph name="plusminus" format="1">
  <advance width="695"/>
  <unicode hex="00B1"/>
  <outline>
    <contour>
      <point x="68" y="20" type="line"/>
      <point x="627" y="20" type="line"/>
      <point x="627" y="59" type="line"/>
      <point x="68" y="59" type="line"/>
    </contour>
    <contour>
      <point x="68" y="290" type="curve"/>
      <point x="627" y="290" type="line"/>
      <point x="627" y="329"/>
      <point x="627" y="290"/>
      <point x="627" y="329" type="curve"/>
      <point x="68" y="329" type="line"/>
      <point x="68" y="290"/>
      <point x="68" y="329"/>
    </contour>
    <contour>
      <point x="366" y="21" type="curve"/>
      <point x="366" y="587" type="line"/>
      <point x="323" y="587"/>
      <point x="367" y="587"/>
      <point x="325" y="587" type="curve"/>
      <point x="325" y="21" type="line"/>
      <point x="367" y="21"/>
      <point x="323" y="21"/>
    </contour>
  </outline>
</glyph>
<glyph name="twosuperior" format="1">
  <advance width="476"/>
  <unicode hex="00B2"/>
  <outline>
    <contour>
      <point x="63" y="293" type="curve"/>
      <point x="184" y="293"/>
      <point x="295" y="293"/>
      <point x="404" y="293" type="curve"/>
      <point x="404" y="311"/>
      <point x="404" y="310"/>
      <point x="404" y="326" type="curve"/>
      <point x="294" y="326"/>
      <point x="173" y="326"/>
      <point x="63" y="326" type="curve"/>
      <point x="63" y="294"/>
      <point x="63" y="326"/>
    </contour>
    <contour>
      <point x="121" y="607" type="curve"/>
      <point x="150" y="652"/>
      <point x="183" y="678"/>
      <point x="239" y="678" type="curve"/>
      <point x="302" y="678"/>
      <point x="343" y="647"/>
      <point x="343" y="588" type="curve"/>
      <point x="343" y="535"/>
      <point x="307" y="510"/>
      <point x="266" y="476" type="curve"/>
      <point x="198" y="426"/>
      <point x="130" y="376"/>
      <point x="63" y="326" type="curve"/>
      <point x="72" y="294"/>
      <point x="63" y="326"/>
      <point x="72" y="294" type="curve"/>
      <point x="147" y="347"/>
      <point x="220" y="398"/>
      <point x="290" y="450" type="curve"/>
      <point x="340" y="492"/>
      <point x="382" y="524"/>
      <point x="382" y="590" type="curve"/>
      <point x="382" y="670"/>
      <point x="325" y="712"/>
      <point x="242" y="712" type="curve"/>
      <point x="172" y="712"/>
      <point x="124" y="684"/>
      <point x="91" y="624" type="curve"/>
      <point x="121" y="607"/>
      <point x="91" y="624"/>
    </contour>
    <contour>
      <point x="252" y="711" type="move" name="_top"/>
    </contour>
    <contour>
      <point x="226" y="292" type="move" name="_bottom"/>
    </contour>
  </outline>
</glyph>
<glyph name="threesuperior" format="1">
  <advance width="423"/>
  <unicode hex="00B3"/>
  <outline>
    <contour>
      <point x="95" y="636" type="curve"/>
      <point x="124" y="661"/>
      <point x="156" y="679"/>
      <point x="195" y="679" type="curve"/>
      <point x="256" y="679"/>
      <point x="301" y="657"/>
      <point x="301" y="600" type="curve"/>
      <point x="301" y="534"/>
      <point x="226" y="523"/>
      <point x="149" y="518" type="curve"/>
      <point x="149" y="490"/>
      <point x="149" y="518"/>
      <point x="149" y="490" type="curve"/>
      <point x="252" y="492"/>
      <point x="341" y="512"/>
      <point x="341" y="603" type="curve"/>
      <point x="341" y="680"/>
      <point x="282" y="711"/>
      <point x="199" y="711" type="curve"/>
      <point x="150" y="711"/>
      <point x="105" y="690"/>
      <point x="72" y="657" type="curve"/>
      <point x="95" y="636"/>
      <point x="72" y="657"/>
    </contour>
    <contour>
      <point x="66" y="322" type="curve"/>
      <point x="104" y="300"/>
      <point x="143" y="288"/>
      <point x="187" y="288" type="curve"/>
      <point x="285" y="285"/>
      <point x="360" y="316"/>
      <point x="358" y="404" type="curve"/>
      <point x="358" y="501"/>
      <point x="259" y="508"/>
      <point x="149" y="511" type="curve"/>
      <point x="149" y="486"/>
      <point x="149" y="511"/>
      <point x="149" y="486" type="curve"/>
      <point x="239" y="482"/>
      <point x="317" y="473"/>
      <point x="317" y="403" type="curve"/>
      <point x="317" y="340"/>
      <point x="263" y="318"/>
      <point x="191" y="320" type="curve"/>
      <point x="154" y="320"/>
      <point x="119" y="329"/>
      <point x="85" y="347" type="curve"/>
      <point x="66" y="322"/>
      <point x="85" y="347"/>
    </contour>
    <contour>
      <point x="214" y="711" type="move" name="_top"/>
    </contour>
    <contour>
      <point x="202" y="288" type="move" name="_bottom"/>
    </contour>
  </outline>
</glyph>
<glyph name="paragraph" format="1">
  <advance width="736"/>
  <unicode hex="00B6"/>
  <outline>
    <contour>
      <point x="444" y="687" type="curve"/>
      <point x="611" y="687"/>
      <point x="444" y="687"/>
      <point x="611" y="687" type="curve"/>
      <point x="611" y="722"/>
      <point x="611" y="687"/>
      <point x="611" y="722" type="curve"/>
      <point x="556" y="722"/>
      <point x="500" y="722"/>
      <point x="444" y="722" type="curve"/>
      <point x="444" y="687"/>
      <point x="444" y="722"/>
    </contour>
    <contour>
      <point x="435" y="353" type="curve"/>
      <point x="382" y="326"/>
      <point x="340" y="311"/>
      <point x="279" y="311" type="curve"/>
      <point x="165" y="311"/>
      <point x="88" y="377"/>
      <point x="88" y="490" type="curve"/>
      <point x="88" y="617"/>
      <point x="179" y="687"/>
      <point x="312" y="687" type="curve"/>
      <point x="355" y="687"/>
      <point x="398" y="687"/>
      <point x="441" y="687" type="curve"/>
      <point x="441" y="722"/>
      <point x="441" y="687"/>
      <point x="441" y="722" type="curve"/>
      <point x="396" y="722"/>
      <point x="351" y="722"/>
      <point x="306" y="722" type="curve"/>
      <point x="153" y="722"/>
      <point x="45" y="639"/>
      <point x="45" y="492" type="curve"/>
      <point x="45" y="352"/>
      <point x="141" y="278"/>
      <point x="283" y="275" type="curve"/>
      <point x="344" y="275"/>
      <point x="396" y="295"/>
      <point x="449" y="321" type="curve"/>
      <point x="435" y="352"/>
      <point x="449" y="321"/>
    </contour>
    <contour>
      <point x="467" y="0" type="curve"/>
      <point x="467" y="241"/>
      <point x="467" y="481"/>
      <point x="467" y="722" type="curve"/>
      <point x="424" y="722"/>
      <point x="467" y="722"/>
      <point x="424" y="722" type="curve"/>
      <point x="424" y="481"/>
      <point x="424" y="241"/>
      <point x="424" y="0" type="curve"/>
      <point x="467" y="0"/>
      <point x="424" y="0"/>
    </contour>
    <contour>
      <point x="641" y="0" type="curve"/>
      <point x="641" y="241"/>
      <point x="641" y="481"/>
      <point x="641" y="722" type="curve"/>
      <point x="598" y="722"/>
      <point x="641" y="722"/>
      <point x="598" y="722" type="curve"/>
      <point x="598" y="481"/>
      <point x="598" y="241"/>
      <point x="598" y="0" type="curve"/>
      <point x="641" y="0"/>
      <point x="598" y="0"/>
    </contour>
  </outline>
</glyph>
<glyph name="periodcentered" format="1">
  <advance width="213"/>
  <unicode hex="00B7"/>
  <outline>
    <contour>
      <point x="135" y="440" type="curve"/>
      <point x="135" y="457"/>
      <point x="123" y="466"/>
      <point x="106" y="466" type="curve"/>
      <point x="89" y="466"/>
      <point x="79" y="456"/>
      <point x="79" y="440" type="curve"/>
      <point x="124" y="440"/>
      <point x="90" y="440"/>
      <point x="135" y="440" type="curve"/>
      <point x="135" y="423"/>
      <point x="123" y="414"/>
      <point x="106" y="414" type="curve"/>
      <point x="89" y="414"/>
      <point x="79" y="424"/>
      <point x="79" y="440" type="curve"/>
      <point x="124" y="440"/>
      <point x="90" y="440"/>
    </contour>
  </outline>
</glyph>
<glyph name="cedilla" format="1">
  <advance width="319"/>
  <unicode hex="00B8"/>
  <outline>
    <contour>
      <point x="174" y="40" type="curve"/>
      <point x="159" y="14"/>
      <point x="137" y="-24"/>
      <point x="122" y="-49" type="curve"/>
      <point x="151" y="-78"/>
      <point x="122" y="-49"/>
      <point x="151" y="-78" type="curve"/>
      <point x="166" y="-50"/>
      <point x="191" y="-11"/>
      <point x="207" y="16" type="curve"/>
      <point x="174" y="40"/>
      <point x="207" y="16"/>
    </contour>
    <contour>
      <point x="151" y="-78" type="curve"/>
      <point x="165" y="-69"/>
      <point x="177" y="-66"/>
      <point x="194" y="-66" type="curve"/>
      <point x="225" y="-66"/>
      <point x="243" y="-84"/>
      <point x="243" y="-116" type="curve"/>
      <point x="243" y="-151"/>
      <point x="217" y="-165"/>
      <point x="180" y="-165" type="curve"/>
      <point x="153" y="-165"/>
      <point x="132" y="-162"/>
      <point x="108" y="-148" type="curve"/>
      <point x="92" y="-175"/>
      <point x="108" y="-148"/>
      <point x="92" y="-175" type="curve"/>
      <point x="121" y="-191"/>
      <point x="145" y="-198"/>
      <point x="178" y="-198" type="curve"/>
      <point x="238" y="-198"/>
      <point x="281" y="-172"/>
      <point x="281" y="-116" type="curve"/>
      <point x="281" y="-63"/>
      <point x="248" y="-32"/>
      <point x="195" y="-32" type="curve"/>
      <point x="167" y="-32"/>
      <point x="148" y="-38"/>
      <point x="122" y="-50" type="curve"/>
      <point x="151" y="-78"/>
      <point x="122" y="-50"/>
    </contour>
    <contour>
      <point x="203" y="16" type="move" name="_bottom"/>
    </contour>
  </outline>
</glyph>
<glyph name="onesuperior" format="1">
  <advance width="297"/>
  <unicode hex="00B9"/>
  <outline>
    <contour>
      <point x="51" y="570" type="line"/>
      <point x="205" y="696" type="line"/>
      <point x="165" y="704" type="line"/>
      <point x="30" y="595" type="line"/>
    </contour>
    <contour>
      <point x="206" y="293" type="curve"/>
      <point x="206" y="704" type="line"/>
      <point x="165" y="704" type="line"/>
      <point x="165" y="293" type="line"/>
      <point x="195" y="293"/>
      <point x="181" y="293"/>
    </contour>
    <contour>
      <point x="184" y="701" type="move" name="_top"/>
    </contour>
    <contour>
      <point x="186" y="295" type="move" name="_bottom"/>
    </contour>
  </outline>
</glyph>
<glyph name="ordmasculine" format="1">
  <advance width="435"/>
  <unicode hex="00BA"/>
  <outline>
    <contour>
      <point x="94" y="602" type="curve"/>
      <point x="94" y="686"/>
      <point x="137" y="740"/>
      <point x="218" y="740" type="curve"/>
      <point x="298" y="740"/>
      <point x="341" y="684"/>
      <point x="341" y="600" type="curve"/>
      <point x="341" y="512"/>
      <point x="300" y="450"/>
      <point x="222" y="450" type="curve"/>
      <point x="137" y="450"/>
      <point x="94" y="512"/>
      <point x="94" y="602" type="curve"/>
      <point x="72" y="602"/>
      <point x="81" y="602"/>
      <point x="59" y="602" type="curve"/>
      <point x="59" y="492"/>
      <point x="115" y="420"/>
      <point x="221" y="420" type="curve"/>
      <point x="322" y="420"/>
      <point x="376" y="492"/>
      <point x="376" y="600" type="curve"/>
      <point x="376" y="703"/>
      <point x="321" y="769"/>
      <point x="220" y="769" type="curve"/>
      <point x="116" y="769"/>
      <point x="59" y="704"/>
      <point x="59" y="602" type="curve"/>
      <point x="81" y="602"/>
      <point x="72" y="602"/>
    </contour>
  </outline>
</glyph>
<glyph name="guillemotright" format="1">
  <advance width="623"/>
  <unicode hex="00BB"/>
  <outline>
    <contour>
      <point x="328" y="411" type="curve"/>
      <point x="336" y="406"/>
      <point x="560" y="303"/>
      <point x="569" y="298" type="curve"/>
      <point x="569" y="259"/>
      <point x="569" y="296"/>
      <point x="569" y="258" type="curve"/>
      <point x="560" y="263"/>
      <point x="336" y="367"/>
      <point x="328" y="372" type="curve"/>
      <point x="328" y="410"/>
      <point x="328" y="373"/>
    </contour>
    <contour>
      <point x="327" y="184" type="curve"/>
      <point x="336" y="189"/>
      <point x="560" y="293"/>
      <point x="569" y="298" type="curve"/>
      <point x="569" y="259"/>
      <point x="569" y="296"/>
      <point x="569" y="258" type="curve"/>
      <point x="560" y="253"/>
      <point x="336" y="150"/>
      <point x="327" y="145" type="curve"/>
      <point x="327" y="183"/>
      <point x="327" y="146"/>
    </contour>
    <contour>
      <point x="89" y="411" type="curve"/>
      <point x="98" y="406"/>
      <point x="321" y="303"/>
      <point x="330" y="298" type="curve"/>
      <point x="330" y="259"/>
      <point x="330" y="296"/>
      <point x="330" y="258" type="curve"/>
      <point x="321" y="263"/>
      <point x="98" y="367"/>
      <point x="89" y="372" type="curve"/>
      <point x="89" y="410"/>
      <point x="89" y="373"/>
    </contour>
    <contour>
      <point x="89" y="184" type="curve"/>
      <point x="98" y="189"/>
      <point x="321" y="293"/>
      <point x="330" y="298" type="curve"/>
      <point x="330" y="259"/>
      <point x="330" y="296"/>
      <point x="330" y="258" type="curve"/>
      <point x="321" y="253"/>
      <point x="98" y="150"/>
      <point x="89" y="145" type="curve"/>
      <point x="89" y="183"/>
      <point x="89" y="146"/>
    </contour>
  </outline>
</glyph>
<glyph name="onequarter" format="1">
  <advance width="1006"/>
  <unicode hex="00BC"/>
  <outline>
    <contour>
      <point x="310" y="-84" type="line"/>
      <point x="755" y="749" type="line"/>
      <point x="712" y="749" type="line"/>
      <point x="267" y="-84" type="line"/>
    </contour>
    <contour>
      <point x="54" y="619" type="line"/>
      <point x="208" y="745" type="line"/>
      <point x="168" y="753" type="line"/>
      <point x="33" y="644" type="line"/>
    </contour>
    <contour>
      <point x="209" y="342" type="curve"/>
      <point x="209" y="753" type="line"/>
      <point x="168" y="753" type="line"/>
      <point x="168" y="342" type="line"/>
      <point x="198" y="342"/>
      <point x="184" y="342"/>
    </contour>
    <contour>
      <point x="969" y="61" type="line"/>
      <point x="583" y="61" type="line"/>
      <point x="583" y="29" type="line"/>
      <point x="969" y="29" type="line"/>
    </contour>
    <contour>
      <point x="600" y="31" type="line"/>
      <point x="857" y="335" type="line"/>
      <point x="822" y="345" type="line"/>
      <point x="583" y="61" type="line"/>
    </contour>
    <contour>
      <point x="862" y="-90" type="line"/>
      <point x="862" y="345" type="line"/>
      <point x="822" y="345" type="line"/>
      <point x="822" y="-90" type="line"/>
    </contour>
  </outline>
</glyph>
<glyph name="onehalf" format="1">
  <advance width="1054"/>
  <unicode hex="00BD"/>
  <outline>
    <contour>
      <point x="318" y="-84" type="line"/>
      <point x="763" y="749" type="line"/>
      <point x="719" y="749" type="line"/>
      <point x="275" y="-84" type="line"/>
    </contour>
    <contour>
      <point x="54" y="619" type="line"/>
      <point x="208" y="745" type="line"/>
      <point x="168" y="753" type="line"/>
      <point x="33" y="644" type="line"/>
    </contour>
    <contour>
      <point x="209" y="342" type="curve"/>
      <point x="209" y="753" type="line"/>
      <point x="168" y="753" type="line"/>
      <point x="168" y="342" type="line"/>
      <point x="198" y="342"/>
      <point x="184" y="342"/>
    </contour>
    <contour>
      <point x="670" y="-86" type="curve"/>
      <point x="790" y="-86"/>
      <point x="901" y="-86"/>
      <point x="1010" y="-86" type="curve"/>
      <point x="1010" y="-68"/>
      <point x="1010" y="-70"/>
      <point x="1010" y="-53" type="curve"/>
      <point x="900" y="-53"/>
      <point x="779" y="-53"/>
      <point x="670" y="-53" type="curve"/>
      <point x="670" y="-86"/>
      <point x="670" y="-53"/>
    </contour>
    <contour>
      <point x="727" y="228" type="curve"/>
      <point x="756" y="272"/>
      <point x="790" y="299"/>
      <point x="846" y="299" type="curve"/>
      <point x="908" y="299"/>
      <point x="950" y="268"/>
      <point x="950" y="209" type="curve"/>
      <point x="950" y="156"/>
      <point x="913" y="131"/>
      <point x="872" y="96" type="curve"/>
      <point x="805" y="47"/>
      <point x="737" y="-3"/>
      <point x="670" y="-53" type="curve"/>
      <point x="679" y="-86"/>
      <point x="670" y="-53"/>
      <point x="679" y="-86" type="curve"/>
      <point x="754" y="-32"/>
      <point x="827" y="19"/>
      <point x="897" y="70" type="curve"/>
      <point x="947" y="113"/>
      <point x="989" y="145"/>
      <point x="989" y="210" type="curve"/>
      <point x="989" y="290"/>
      <point x="931" y="333"/>
      <point x="849" y="333" type="curve"/>
      <point x="779" y="333"/>
      <point x="730" y="305"/>
      <point x="697" y="245" type="curve"/>
      <point x="727" y="228"/>
      <point x="697" y="245"/>
    </contour>
  </outline>
</glyph>
<glyph name="threequarters" format="1">
  <advance width="1021"/>
  <unicode hex="00BE"/>
  <outline>
    <contour>
      <point x="329" y="-84" type="line"/>
      <point x="774" y="749" type="line"/>
      <point x="730" y="749" type="line"/>
      <point x="286" y="-84" type="line"/>
    </contour>
    <contour>
      <point x="80" y="675" type="curve"/>
      <point x="108" y="701"/>
      <point x="141" y="719"/>
      <point x="180" y="719" type="curve"/>
      <point x="241" y="719"/>
      <point x="286" y="697"/>
      <point x="286" y="640" type="curve"/>
      <point x="286" y="574"/>
      <point x="211" y="563"/>
      <point x="134" y="558" type="curve"/>
      <point x="134" y="530"/>
      <point x="134" y="558"/>
      <point x="134" y="530" type="curve"/>
      <point x="237" y="532"/>
      <point x="326" y="552"/>
      <point x="326" y="643" type="curve"/>
      <point x="326" y="719"/>
      <point x="266" y="751"/>
      <point x="184" y="751" type="curve"/>
      <point x="134" y="751"/>
      <point x="89" y="730"/>
      <point x="57" y="697" type="curve"/>
      <point x="80" y="675"/>
      <point x="57" y="697"/>
    </contour>
    <contour>
      <point x="51" y="362" type="curve"/>
      <point x="89" y="339"/>
      <point x="128" y="328"/>
      <point x="172" y="328" type="curve"/>
      <point x="270" y="325"/>
      <point x="345" y="356"/>
      <point x="343" y="444" type="curve"/>
      <point x="343" y="541"/>
      <point x="243" y="548"/>
      <point x="134" y="551" type="curve"/>
      <point x="134" y="526"/>
      <point x="134" y="551"/>
      <point x="134" y="526" type="curve"/>
      <point x="224" y="522"/>
      <point x="302" y="513"/>
      <point x="302" y="443" type="curve"/>
      <point x="302" y="379"/>
      <point x="248" y="358"/>
      <point x="176" y="360" type="curve"/>
      <point x="138" y="360"/>
      <point x="104" y="369"/>
      <point x="70" y="387" type="curve"/>
      <point x="51" y="362"/>
      <point x="70" y="387"/>
    </contour>
    <contour>
      <point x="986" y="61" type="line"/>
      <point x="600" y="61" type="line"/>
      <point x="600" y="29" type="line"/>
      <point x="986" y="29" type="line"/>
    </contour>
    <contour>
      <point x="618" y="31" type="line"/>
      <point x="874" y="335" type="line"/>
      <point x="840" y="345" type="line"/>
      <point x="600" y="61" type="line"/>
    </contour>
    <contour>
      <point x="879" y="-90" type="line"/>
      <point x="879" y="345" type="line"/>
      <point x="840" y="345" type="line"/>
      <point x="840" y="-90" type="line"/>
    </contour>
  </outline>
</glyph>
<glyph name="questiondown" format="1">
  <advance width="498"/>
  <unicode hex="00BF"/>
  <outline>
    <contour>
      <point x="304" y="369" type="curve"/>
      <point x="304" y="406"/>
      <point x="304" y="451"/>
      <point x="304" y="488" type="curve"/>
      <point x="261" y="488"/>
      <point x="304" y="488"/>
      <point x="261" y="488" type="curve"/>
      <point x="261" y="451"/>
      <point x="261" y="406"/>
      <point x="261" y="369" type="curve"/>
      <point x="304" y="369"/>
      <point x="261" y="369"/>
    </contour>
    <contour>
      <point x="418" y="92" type="line"/>
      <point x="385" y="58"/>
      <point x="336" y="30"/>
      <point x="275" y="30" type="curve"/>
      <point x="170" y="30"/>
      <point x="101" y="89"/>
      <point x="101" y="191" type="curve"/>
      <point x="101" y="304"/>
      <point x="181" y="369"/>
      <point x="299" y="369" type="curve"/>
      <point x="299" y="388"/>
      <point x="299" y="386"/>
      <point x="299" y="405" type="curve"/>
      <point x="157" y="405"/>
      <point x="59" y="326"/>
      <point x="59" y="191" type="curve"/>
      <point x="59" y="67"/>
      <point x="146" y="-7"/>
      <point x="272" y="-7" type="curve"/>
      <point x="347" y="-7"/>
      <point x="402" y="24"/>
      <point x="443" y="66" type="curve"/>
    </contour>
    <contour>
      <point x="256" y="694" type="curve"/>
      <point x="256" y="679"/>
      <point x="267" y="670"/>
      <point x="283" y="670" type="curve"/>
      <point x="298" y="670"/>
      <point x="308" y="680"/>
      <point x="308" y="694" type="curve"/>
      <point x="256" y="694"/>
      <point x="308" y="694"/>
      <point x="256" y="694" type="curve"/>
      <point x="256" y="710"/>
      <point x="267" y="718"/>
      <point x="283" y="718" type="curve"/>
      <point x="299" y="718"/>
      <point x="308" y="710"/>
      <point x="308" y="694" type="curve"/>
      <point x="256" y="694"/>
      <point x="308" y="694"/>
    </contour>
  </outline>
</glyph>
<glyph name="Aacute" format="1">
  <advance width="669"/>
  <unicode hex="00C1"/>
  <outline>
    <contour>
      <point x="514" y="281" type="curve"/>
      <point x="394" y="281"/>
      <point x="274" y="281"/>
      <point x="155" y="281" type="curve"/>
      <point x="137" y="244"/>
      <point x="155" y="281"/>
      <point x="137" y="244" type="curve"/>
      <point x="267" y="244"/>
      <point x="397" y="244"/>
      <point x="527" y="244" type="curve"/>
      <point x="514" y="281"/>
      <point x="527" y="244"/>
    </contour>
    <contour>
      <point x="646" y="0" type="curve"/>
      <point x="551" y="241"/>
      <point x="456" y="481"/>
      <point x="362" y="722" type="curve"/>
      <point x="323" y="722"/>
      <point x="362" y="722"/>
      <point x="323" y="722" type="curve"/>
      <point x="416" y="481"/>
      <point x="508" y="241"/>
      <point x="601" y="0" type="curve"/>
      <point x="646" y="0"/>
      <point x="601" y="0"/>
    </contour>
    <contour>
      <point x="51" y="0" type="curve"/>
      <point x="155" y="241"/>
      <point x="256" y="481"/>
      <point x="360" y="722" type="curve"/>
      <point x="321" y="722"/>
      <point x="360" y="722"/>
      <point x="321" y="722" type="curve"/>
      <point x="216" y="481"/>
      <point x="109" y="241"/>
      <point x="4" y="0" type="curve"/>
      <point x="51" y="0"/>
      <point x="4" y="0"/>
    </contour>
    <contour>
      <point x="361" y="818" type="line"/>
      <point x="504" y="984" type="line"/>
      <point x="445" y="984" type="line"/>
      <point x="317" y="818" type="line"/>
    </contour>
  </outline>
</glyph>
<glyph name="Atilde" format="1">
  <advance width="669"/>
  <unicode hex="00C3"/>
  <outline>
    <contour>
      <point x="514" y="281" type="curve"/>
      <point x="394" y="281"/>
      <point x="274" y="281"/>
      <point x="155" y="281" type="curve"/>
      <point x="137" y="244"/>
      <point x="155" y="281"/>
      <point x="137" y="244" type="curve"/>
      <point x="267" y="244"/>
      <point x="397" y="244"/>
      <point x="527" y="244" type="curve"/>
      <point x="514" y="281"/>
      <point x="527" y="244"/>
    </contour>
    <contour>
      <point x="646" y="0" type="curve"/>
      <point x="551" y="241"/>
      <point x="456" y="481"/>
      <point x="362" y="722" type="curve"/>
      <point x="323" y="722"/>
      <point x="362" y="722"/>
      <point x="323" y="722" type="curve"/>
      <point x="416" y="481"/>
      <point x="508" y="241"/>
      <point x="601" y="0" type="curve"/>
      <point x="646" y="0"/>
      <point x="601" y="0"/>
    </contour>
    <contour>
      <point x="51" y="0" type="curve"/>
      <point x="155" y="241"/>
      <point x="256" y="481"/>
      <point x="360" y="722" type="curve"/>
      <point x="321" y="722"/>
      <point x="360" y="722"/>
      <point x="321" y="722" type="curve"/>
      <point x="216" y="481"/>
      <point x="109" y="241"/>
      <point x="4" y="0" type="curve"/>
      <point x="51" y="0"/>
      <point x="4" y="0"/>
    </contour>
    <contour>
      <point x="511" y="951" type="curve"/>
      <point x="497" y="900"/>
      <point x="481" y="855"/>
      <point x="437" y="855" type="curve"/>
      <point x="398" y="855"/>
      <point x="375" y="872"/>
      <point x="348" y="900" type="curve"/>
      <point x="317" y="932"/>
      <point x="293" y="953"/>
      <point x="249" y="953" type="curve"/>
      <point x="181" y="953"/>
      <point x="152" y="901"/>
      <point x="135" y="831" type="curve"/>
      <point x="168" y="818"/>
      <point x="136" y="831"/>
      <point x="169" y="818" type="curve"/>
      <point x="183" y="874"/>
      <point x="202" y="915"/>
      <point x="251" y="915" type="curve"/>
      <point x="287" y="915"/>
      <point x="305" y="896"/>
      <point x="330" y="871" type="curve"/>
      <point x="363" y="837"/>
      <point x="391" y="817"/>
      <point x="438" y="817" type="curve"/>
      <point x="505" y="817"/>
      <point x="526" y="872"/>
      <point x="546" y="939" type="curve"/>
      <point x="511" y="951"/>
      <point x="546" y="939"/>
    </contour>
  </outline>
</glyph>
<glyph name="Adieresis" format="1">
  <advance width="669"/>
  <unicode hex="00C4"/>
  <outline>
    <contour>
      <point x="514" y="281" type="curve"/>
      <point x="394" y="281"/>
      <point x="274" y="281"/>
      <point x="155" y="281" type="curve"/>
      <point x="137" y="244"/>
      <point x="155" y="281"/>
      <point x="137" y="244" type="curve"/>
      <point x="267" y="244"/>
      <point x="397" y="244"/>
      <point x="527" y="244" type="curve"/>
      <point x="514" y="281"/>
      <point x="527" y="244"/>
    </contour>
    <contour>
      <point x="646" y="0" type="curve"/>
      <point x="551" y="241"/>
      <point x="456" y="481"/>
      <point x="362" y="722" type="curve"/>
      <point x="323" y="722"/>
      <point x="362" y="722"/>
      <point x="323" y="722" type="curve"/>
      <point x="416" y="481"/>
      <point x="508" y="241"/>
      <point x="601" y="0" type="curve"/>
      <point x="646" y="0"/>
      <point x="601" y="0"/>
    </contour>
    <contour>
      <point x="51" y="0" type="curve"/>
      <point x="155" y="241"/>
      <point x="256" y="481"/>
      <point x="360" y="722" type="curve"/>
      <point x="321" y="722"/>
      <point x="360" y="722"/>
      <point x="321" y="722" type="curve"/>
      <point x="216" y="481"/>
      <point x="109" y="241"/>
      <point x="4" y="0" type="curve"/>
      <point x="51" y="0"/>
      <point x="4" y="0"/>
    </contour>
    <contour>
      <point x="300" y="842" type="curve"/>
      <point x="300" y="859"/>
      <point x="288" y="868"/>
      <point x="271" y="868" type="curve"/>
      <point x="254" y="868"/>
      <point x="244" y="858"/>
      <point x="244" y="842" type="curve"/>
      <point x="289" y="842"/>
      <point x="254" y="842"/>
      <point x="300" y="842" type="curve"/>
      <point x="300" y="825"/>
      <point x="288" y="817"/>
      <point x="271" y="817" type="curve"/>
      <point x="254" y="817"/>
      <point x="244" y="826"/>
      <point x="244" y="842" type="curve"/>
      <point x="289" y="842"/>
      <point x="254" y="842"/>
    </contour>
    <contour>
      <point x="439" y="842" type="curve"/>
      <point x="439" y="859"/>
      <point x="427" y="868"/>
      <point x="410" y="868" type="curve"/>
      <point x="393" y="868"/>
      <point x="383" y="858"/>
      <point x="383" y="842" type="curve"/>
      <point x="428" y="842"/>
      <point x="394" y="842"/>
      <point x="439" y="842" type="curve"/>
      <point x="439" y="825"/>
      <point x="427" y="817"/>
      <point x="410" y="817" type="curve"/>
      <point x="393" y="817"/>
      <point x="383" y="826"/>
      <point x="383" y="842" type="curve"/>
      <point x="428" y="842"/>
      <point x="394" y="842"/>
    </contour>
  </outline>
</glyph>
<glyph name="Aring" format="1">
  <advance width="669"/>
  <unicode hex="00C5"/>
  <outline>
    <contour>
      <point x="514" y="281" type="curve"/>
      <point x="394" y="281"/>
      <point x="274" y="281"/>
      <point x="155" y="281" type="curve"/>
      <point x="137" y="244"/>
      <point x="155" y="281"/>
      <point x="137" y="244" type="curve"/>
      <point x="267" y="244"/>
      <point x="397" y="244"/>
      <point x="527" y="244" type="curve"/>
      <point x="514" y="281"/>
      <point x="527" y="244"/>
    </contour>
    <contour>
      <point x="646" y="0" type="curve"/>
      <point x="551" y="241"/>
      <point x="456" y="481"/>
      <point x="362" y="722" type="curve"/>
      <point x="323" y="722"/>
      <point x="362" y="722"/>
      <point x="323" y="722" type="curve"/>
      <point x="416" y="481"/>
      <point x="508" y="241"/>
      <point x="601" y="0" type="curve"/>
      <point x="646" y="0"/>
      <point x="601" y="0"/>
    </contour>
    <contour>
      <point x="51" y="0" type="curve"/>
      <point x="155" y="241"/>
      <point x="256" y="481"/>
      <point x="360" y="722" type="curve"/>
      <point x="321" y="722"/>
      <point x="360" y="722"/>
      <point x="321" y="722" type="curve"/>
      <point x="216" y="481"/>
      <point x="109" y="241"/>
      <point x="4" y="0" type="curve"/>
      <point x="51" y="0"/>
      <point x="4" y="0"/>
    </contour>
    <contour>
      <point x="214" y="938" type="curve"/>
      <point x="214" y="862"/>
      <point x="264" y="817"/>
      <point x="341" y="817" type="curve"/>
      <point x="420" y="817"/>
      <point x="471" y="861"/>
      <point x="471" y="938" type="curve"/>
      <point x="471" y="1016"/>
      <point x="419" y="1060"/>
      <point x="339" y="1060" type="curve"/>
      <point x="262" y="1060"/>
      <point x="214" y="1015"/>
      <point x="214" y="938" type="curve"/>
      <point x="252" y="938"/>
      <point x="213" y="938"/>
      <point x="252" y="938" type="curve"/>
      <point x="252" y="993"/>
      <point x="283" y="1027"/>
      <point x="339" y="1027" type="curve"/>
      <point x="397" y="1027"/>
      <point x="432" y="995"/>
      <point x="432" y="938" type="curve"/>
      <point x="432" y="882"/>
      <point x="398" y="849"/>
      <point x="341" y="849" type="curve"/>
      <point x="285" y="849"/>
      <point x="252" y="882"/>
      <point x="252" y="938" type="curve"/>
      <point x="213" y="938"/>
      <point x="252" y="938"/>
    </contour>
  </outline>
</glyph>
<glyph name="AE" format="1">
  <advance width="917"/>
  <unicode hex="00C6"/>
  <outline>
    <contour>
      <point x="432" y="260" type="curve"/>
      <point x="312" y="260"/>
      <point x="281" y="260"/>
      <point x="162" y="260" type="curve"/>
      <point x="144" y="223"/>
      <point x="162" y="260"/>
      <point x="144" y="223" type="curve"/>
      <point x="274" y="223"/>
      <point x="315" y="223"/>
      <point x="445" y="223" type="curve"/>
      <point x="432" y="260"/>
      <point x="445" y="223"/>
    </contour>
    <contour>
      <point x="44" y="0" type="curve"/>
      <point x="462" y="722" type="line"/>
      <point x="423" y="722"/>
      <point x="460" y="722"/>
      <point x="421" y="722" type="curve"/>
      <point x="-4" y="0" type="line"/>
      <point x="43" y="0"/>
      <point x="-3" y="0"/>
    </contour>
    <contour>
      <point x="448" y="356" type="curve"/>
      <point x="562" y="356"/>
      <point x="677" y="356"/>
      <point x="791" y="356" type="curve"/>
      <point x="791" y="392"/>
      <point x="791" y="356"/>
      <point x="791" y="392" type="curve"/>
      <point x="677" y="392"/>
      <point x="562" y="392"/>
      <point x="448" y="392" type="curve"/>
      <point x="448" y="356"/>
      <point x="448" y="392"/>
    </contour>
    <contour>
      <point x="433" y="687" type="curve"/>
      <point x="574" y="687"/>
      <point x="715" y="687"/>
      <point x="857" y="687" type="curve"/>
      <point x="857" y="722"/>
      <point x="857" y="687"/>
      <point x="857" y="722" type="curve"/>
      <point x="715" y="722"/>
      <point x="574" y="722"/>
      <point x="433" y="722" type="curve"/>
      <point x="433" y="687"/>
      <point x="433" y="722"/>
    </contour>
    <contour>
      <point x="463" y="0" type="curve"/>
      <point x="463" y="722" type="line"/>
      <point x="421" y="722"/>
      <point x="463" y="722"/>
      <point x="421" y="722" type="curve"/>
      <point x="421" y="481"/>
      <point x="421" y="241"/>
      <point x="421" y="0" type="curve"/>
      <point x="463" y="0"/>
      <point x="421" y="0"/>
    </contour>
    <contour>
      <point x="433" y="0" type="curve"/>
      <point x="586" y="0"/>
      <point x="739" y="0"/>
      <point x="892" y="0" type="curve"/>
      <point x="892" y="35"/>
      <point x="892" y="0"/>
      <point x="892" y="35" type="curve"/>
      <point x="739" y="35"/>
      <point x="586" y="35"/>
      <point x="433" y="35" type="curve"/>
      <point x="433" y="0"/>
      <point x="433" y="35"/>
    </contour>
  </outline>
</glyph>
<glyph name="Ccedilla" format="1">
  <advance width="702"/>
  <unicode hex="00C7"/>
  <outline>
    <contour>
      <point x="652" y="655" type="curve"/>
      <point x="581" y="696"/>
      <point x="502" y="727"/>
      <point x="412" y="727" type="curve"/>
      <point x="185" y="727"/>
      <point x="67" y="579"/>
      <point x="67" y="344" type="curve"/>
      <point x="67" y="128"/>
      <point x="179" y="-5"/>
      <point x="390" y="-5" type="curve"/>
      <point x="507" y="-5"/>
      <point x="582" y="29"/>
      <point x="670" y="96" type="curve"/>
      <point x="647" y="124"/>
      <point x="670" y="96"/>
      <point x="646" y="124" type="curve"/>
      <point x="565" y="62"/>
      <point x="496" y="34"/>
      <point x="391" y="34" type="curve"/>
      <point x="205" y="34"/>
      <point x="110" y="155"/>
      <point x="110" y="346" type="curve"/>
      <point x="110" y="554"/>
      <point x="212" y="690"/>
      <point x="410" y="690" type="curve"/>
      <point x="492" y="690"/>
      <point x="565" y="665"/>
      <point x="631" y="626" type="curve"/>
      <point x="652" y="655"/>
      <point x="631" y="626"/>
    </contour>
    <contour>
      <point x="366" y="23" type="curve"/>
      <point x="350" y="-3"/>
      <point x="328" y="-40"/>
      <point x="313" y="-66" type="curve"/>
      <point x="342" y="-94"/>
      <point x="313" y="-66"/>
      <point x="342" y="-94" type="curve"/>
      <point x="358" y="-67"/>
      <point x="382" y="-28"/>
      <point x="398" y="-1" type="curve"/>
      <point x="366" y="23"/>
      <point x="398" y="-1"/>
    </contour>
    <contour>
      <point x="342" y="-95" type="curve"/>
      <point x="357" y="-86"/>
      <point x="368" y="-83"/>
      <point x="385" y="-83" type="curve"/>
      <point x="417" y="-83"/>
      <point x="435" y="-101"/>
      <point x="435" y="-133" type="curve"/>
      <point x="435" y="-168"/>
      <point x="408" y="-182"/>
      <point x="372" y="-182" type="curve"/>
      <point x="344" y="-182"/>
      <point x="324" y="-179"/>
      <point x="299" y="-165" type="curve"/>
      <point x="284" y="-192"/>
      <point x="299" y="-165"/>
      <point x="284" y="-192" type="curve"/>
      <point x="312" y="-208"/>
      <point x="337" y="-215"/>
      <point x="370" y="-215" type="curve"/>
      <point x="430" y="-215"/>
      <point x="473" y="-189"/>
      <point x="473" y="-133" type="curve"/>
      <point x="473" y="-80"/>
      <point x="439" y="-49"/>
      <point x="387" y="-49" type="curve"/>
      <point x="359" y="-49"/>
      <point x="339" y="-55"/>
      <point x="314" y="-67" type="curve"/>
      <point x="342" y="-95"/>
      <point x="314" y="-67"/>
    </contour>
  </outline>
</glyph>
<glyph name="Egrave" format="1">
  <advance width="616"/>
  <unicode hex="00C8"/>
  <outline>
    <contour>
      <point x="148" y="356" type="curve"/>
      <point x="262" y="356"/>
      <point x="376" y="356"/>
      <point x="490" y="356" type="curve"/>
      <point x="490" y="392"/>
      <point x="490" y="356"/>
      <point x="490" y="392" type="curve"/>
      <point x="376" y="392"/>
      <point x="262" y="392"/>
      <point x="148" y="392" type="curve"/>
      <point x="148" y="356"/>
      <point x="148" y="392"/>
    </contour>
    <contour>
      <point x="132" y="687" type="curve"/>
      <point x="273" y="687"/>
      <point x="414" y="687"/>
      <point x="556" y="687" type="curve"/>
      <point x="556" y="722"/>
      <point x="556" y="687"/>
      <point x="556" y="722" type="curve"/>
      <point x="414" y="722"/>
      <point x="273" y="722"/>
      <point x="132" y="722" type="curve"/>
      <point x="132" y="687"/>
      <point x="132" y="722"/>
    </contour>
    <contour>
      <point x="163" y="0" type="curve"/>
      <point x="163" y="722" type="line"/>
      <point x="120" y="722"/>
      <point x="163" y="722"/>
      <point x="120" y="722" type="curve"/>
      <point x="120" y="481"/>
      <point x="120" y="241"/>
      <point x="120" y="0" type="curve"/>
      <point x="163" y="0"/>
      <point x="120" y="0"/>
    </contour>
    <contour>
      <point x="132" y="0" type="curve"/>
      <point x="285" y="0"/>
      <point x="438" y="0"/>
      <point x="591" y="0" type="curve"/>
      <point x="591" y="35"/>
      <point x="591" y="0"/>
      <point x="591" y="35" type="curve"/>
      <point x="438" y="35"/>
      <point x="285" y="35"/>
      <point x="132" y="35" type="curve"/>
      <point x="132" y="0"/>
      <point x="132" y="35"/>
    </contour>
    <contour>
      <point x="336" y="818" type="line"/>
      <point x="207" y="984" type="line"/>
      <point x="148" y="984" type="line"/>
      <point x="291" y="818" type="line"/>
    </contour>
  </outline>
</glyph>
<glyph name="Eacute" format="1">
  <advance width="615"/>
  <unicode hex="00C9"/>
  <outline>
    <contour>
      <point x="146" y="356" type="curve"/>
      <point x="260" y="356"/>
      <point x="375" y="356"/>
      <point x="489" y="356" type="curve"/>
      <point x="489" y="392"/>
      <point x="489" y="356"/>
      <point x="489" y="392" type="curve"/>
      <point x="375" y="392"/>
      <point x="260" y="392"/>
      <point x="146" y="392" type="curve"/>
      <point x="146" y="356"/>
      <point x="146" y="392"/>
    </contour>
    <contour>
      <point x="131" y="687" type="curve"/>
      <point x="272" y="687"/>
      <point x="413" y="687"/>
      <point x="555" y="687" type="curve"/>
      <point x="555" y="722"/>
      <point x="555" y="687"/>
      <point x="555" y="722" type="curve"/>
      <point x="413" y="722"/>
      <point x="272" y="722"/>
      <point x="131" y="722" type="curve"/>
      <point x="131" y="687"/>
      <point x="131" y="722"/>
    </contour>
    <contour>
      <point x="161" y="0" type="curve"/>
      <point x="161" y="722" type="line"/>
      <point x="119" y="722"/>
      <point x="161" y="722"/>
      <point x="119" y="722" type="curve"/>
      <point x="119" y="481"/>
      <point x="119" y="241"/>
      <point x="119" y="0" type="curve"/>
      <point x="161" y="0"/>
      <point x="119" y="0"/>
    </contour>
    <contour>
      <point x="131" y="0" type="curve"/>
      <point x="284" y="0"/>
      <point x="437" y="0"/>
      <point x="590" y="0" type="curve"/>
      <point x="590" y="35"/>
      <point x="590" y="0"/>
      <point x="590" y="35" type="curve"/>
      <point x="437" y="35"/>
      <point x="284" y="35"/>
      <point x="131" y="35" type="curve"/>
      <point x="131" y="0"/>
      <point x="131" y="35"/>
    </contour>
    <contour>
      <point x="329" y="818" type="line"/>
      <point x="472" y="984" type="line"/>
      <point x="413" y="984" type="line"/>
      <point x="285" y="818" type="line"/>
    </contour>
  </outline>
</glyph>
<glyph name="Ecircumflex" format="1">
  <advance width="610"/>
  <unicode hex="00CA"/>
  <outline>
    <contour>
      <point x="143" y="356" type="curve"/>
      <point x="257" y="356"/>
      <point x="372" y="356"/>
      <point x="486" y="356" type="curve"/>
      <point x="486" y="392"/>
      <point x="486" y="356"/>
      <point x="486" y="392" type="curve"/>
      <point x="372" y="392"/>
      <point x="257" y="392"/>
      <point x="143" y="392" type="curve"/>
      <point x="143" y="356"/>
      <point x="143" y="392"/>
    </contour>
    <contour>
      <point x="127" y="687" type="curve"/>
      <point x="269" y="687"/>
      <point x="410" y="687"/>
      <point x="552" y="687" type="curve"/>
      <point x="552" y="722"/>
      <point x="552" y="687"/>
      <point x="552" y="722" type="curve"/>
      <point x="410" y="722"/>
      <point x="269" y="722"/>
      <point x="127" y="722" type="curve"/>
      <point x="127" y="687"/>
      <point x="127" y="722"/>
    </contour>
    <contour>
      <point x="158" y="0" type="curve"/>
      <point x="158" y="722" type="line"/>
      <point x="116" y="722"/>
      <point x="158" y="722"/>
      <point x="116" y="722" type="curve"/>
      <point x="116" y="481"/>
      <point x="116" y="241"/>
      <point x="116" y="0" type="curve"/>
      <point x="158" y="0"/>
      <point x="116" y="0"/>
    </contour>
    <contour>
      <point x="127" y="0" type="curve"/>
      <point x="281" y="0"/>
      <point x="434" y="0"/>
      <point x="587" y="0" type="curve"/>
      <point x="587" y="35"/>
      <point x="587" y="0"/>
      <point x="587" y="35" type="curve"/>
      <point x="434" y="35"/>
      <point x="281" y="35"/>
      <point x="127" y="35" type="curve"/>
      <point x="127" y="0"/>
      <point x="127" y="35"/>
    </contour>
    <contour>
      <point x="184" y="819" type="line"/>
      <point x="327" y="985" type="line"/>
      <point x="268" y="985" type="line"/>
      <point x="140" y="819" type="line"/>
    </contour>
    <contour>
      <point x="472" y="819" type="line"/>
      <point x="343" y="985" type="line"/>
      <point x="284" y="985" type="line"/>
      <point x="427" y="819" type="line"/>
    </contour>
  </outline>
</glyph>
<glyph name="Edieresis" format="1">
  <advance width="614"/>
  <unicode hex="00CB"/>
  <outline>
    <contour>
      <point x="146" y="356" type="curve"/>
      <point x="260" y="356"/>
      <point x="374" y="356"/>
      <point x="489" y="356" type="curve"/>
      <point x="489" y="392"/>
      <point x="489" y="356"/>
      <point x="489" y="392" type="curve"/>
      <point x="374" y="392"/>
      <point x="260" y="392"/>
      <point x="146" y="392" type="curve"/>
      <point x="146" y="356"/>
      <point x="146" y="392"/>
    </contour>
    <contour>
      <point x="130" y="687" type="curve"/>
      <point x="272" y="687"/>
      <point x="413" y="687"/>
      <point x="554" y="687" type="curve"/>
      <point x="554" y="722"/>
      <point x="554" y="687"/>
      <point x="554" y="722" type="curve"/>
      <point x="413" y="722"/>
      <point x="272" y="722"/>
      <point x="130" y="722" type="curve"/>
      <point x="130" y="687"/>
      <point x="130" y="722"/>
    </contour>
    <contour>
      <point x="161" y="0" type="curve"/>
      <point x="161" y="722" type="line"/>
      <point x="118" y="722"/>
      <point x="161" y="722"/>
      <point x="118" y="722" type="curve"/>
      <point x="118" y="481"/>
      <point x="118" y="241"/>
      <point x="118" y="0" type="curve"/>
      <point x="161" y="0"/>
      <point x="118" y="0"/>
    </contour>
    <contour>
      <point x="130" y="0" type="curve"/>
      <point x="283" y="0"/>
      <point x="436" y="0"/>
      <point x="590" y="0" type="curve"/>
      <point x="590" y="35"/>
      <point x="590" y="0"/>
      <point x="590" y="35" type="curve"/>
      <point x="436" y="35"/>
      <point x="283" y="35"/>
      <point x="130" y="35" type="curve"/>
      <point x="130" y="0"/>
      <point x="130" y="35"/>
    </contour>
    <contour>
      <point x="267" y="842" type="curve"/>
      <point x="267" y="859"/>
      <point x="255" y="868"/>
      <point x="238" y="868" type="curve"/>
      <point x="222" y="868"/>
      <point x="211" y="858"/>
      <point x="211" y="842" type="curve"/>
      <point x="256" y="842"/>
      <point x="222" y="842"/>
      <point x="267" y="842" type="curve"/>
      <point x="267" y="825"/>
      <point x="255" y="817"/>
      <point x="238" y="817" type="curve"/>
      <point x="222" y="817"/>
      <point x="211" y="826"/>
      <point x="211" y="842" type="curve"/>
      <point x="256" y="842"/>
      <point x="222" y="842"/>
    </contour>
    <contour>
      <point x="407" y="842" type="curve"/>
      <point x="407" y="859"/>
      <point x="395" y="868"/>
      <point x="378" y="868" type="curve"/>
      <point x="361" y="868"/>
      <point x="351" y="858"/>
      <point x="351" y="842" type="curve"/>
      <point x="396" y="842"/>
      <point x="361" y="842"/>
      <point x="407" y="842" type="curve"/>
      <point x="407" y="825"/>
      <point x="395" y="817"/>
      <point x="378" y="817" type="curve"/>
      <point x="361" y="817"/>
      <point x="351" y="826"/>
      <point x="351" y="842" type="curve"/>
      <point x="396" y="842"/>
      <point x="361" y="842"/>
    </contour>
  </outline>
</glyph>
<glyph name="Iacute" format="1">
  <advance width="288"/>
  <unicode hex="00CD"/>
  <outline>
    <contour>
      <point x="163" y="0" type="curve"/>
      <point x="163" y="241"/>
      <point x="163" y="481"/>
      <point x="163" y="722" type="curve"/>
      <point x="120" y="722"/>
      <point x="163" y="722"/>
      <point x="120" y="722" type="curve"/>
      <point x="120" y="481"/>
      <point x="120" y="241"/>
      <point x="120" y="0" type="curve"/>
      <point x="163" y="0"/>
      <point x="120" y="0"/>
    </contour>
    <contour>
      <point x="163" y="818" type="line"/>
      <point x="305" y="984" type="line"/>
      <point x="247" y="984" type="line"/>
      <point x="118" y="818" type="line"/>
    </contour>
  </outline>
</glyph>
<glyph name="Icircumflex" format="1">
  <advance width="287"/>
  <unicode hex="00CE"/>
  <outline>
    <contour>
      <point x="170" y="0" type="curve"/>
      <point x="170" y="241"/>
      <point x="170" y="481"/>
      <point x="170" y="722" type="curve"/>
      <point x="128" y="722"/>
      <point x="170" y="722"/>
      <point x="128" y="722" type="curve"/>
      <point x="128" y="481"/>
      <point x="128" y="241"/>
      <point x="128" y="0" type="curve"/>
      <point x="170" y="0"/>
      <point x="128" y="0"/>
    </contour>
    <contour>
      <point x="29" y="819" type="line"/>
      <point x="171" y="985" type="line"/>
      <point x="112" y="985" type="line"/>
      <point x="-16" y="819" type="line"/>
    </contour>
    <contour>
      <point x="316" y="819" type="line"/>
      <point x="187" y="985" type="line"/>
      <point x="128" y="985" type="line"/>
      <point x="271" y="819" type="line"/>
    </contour>
  </outline>
</glyph>
<glyph name="Idieresis" format="1">
  <advance width="254"/>
  <unicode hex="00CF"/>
  <outline>
    <contour>
      <point x="149" y="0" type="curve"/>
      <point x="149" y="241"/>
      <point x="149" y="481"/>
      <point x="149" y="722" type="curve"/>
      <point x="107" y="722"/>
      <point x="149" y="722"/>
      <point x="107" y="722" type="curve"/>
      <point x="107" y="481"/>
      <point x="107" y="241"/>
      <point x="107" y="0" type="curve"/>
      <point x="149" y="0"/>
      <point x="107" y="0"/>
    </contour>
    <contour>
      <point x="88" y="842" type="curve"/>
      <point x="88" y="859"/>
      <point x="76" y="868"/>
      <point x="59" y="868" type="curve"/>
      <point x="42" y="868"/>
      <point x="32" y="858"/>
      <point x="32" y="842" type="curve"/>
      <point x="77" y="842"/>
      <point x="43" y="842"/>
      <point x="88" y="842" type="curve"/>
      <point x="88" y="825"/>
      <point x="76" y="817"/>
      <point x="59" y="817" type="curve"/>
      <point x="42" y="817"/>
      <point x="32" y="826"/>
      <point x="32" y="842" type="curve"/>
      <point x="77" y="842"/>
      <point x="43" y="842"/>
    </contour>
    <contour>
      <point x="227" y="842" type="curve"/>
      <point x="227" y="859"/>
      <point x="215" y="868"/>
      <point x="198" y="868" type="curve"/>
      <point x="182" y="868"/>
      <point x="171" y="858"/>
      <point x="171" y="842" type="curve"/>
      <point x="216" y="842"/>
      <point x="182" y="842"/>
      <point x="227" y="842" type="curve"/>
      <point x="227" y="825"/>
      <point x="215" y="817"/>
      <point x="198" y="817" type="curve"/>
      <point x="181" y="817"/>
      <point x="171" y="826"/>
      <point x="171" y="842" type="curve"/>
      <point x="216" y="842"/>
      <point x="182" y="842"/>
    </contour>
  </outline>
</glyph>
<glyph name="Ntilde" format="1">
  <advance width="848"/>
  <unicode hex="00D1"/>
  <outline>
    <contour>
      <point x="729" y="0" type="curve"/>
      <point x="542" y="241"/>
      <point x="356" y="481"/>
      <point x="171" y="722" type="curve"/>
      <point x="120" y="722"/>
      <point x="169" y="722"/>
      <point x="119" y="722" type="curve"/>
      <point x="305" y="481"/>
      <point x="491" y="241"/>
      <point x="677" y="0" type="curve"/>
      <point x="727" y="0"/>
      <point x="678" y="0"/>
    </contour>
    <contour>
      <point x="686" y="722" type="curve"/>
      <point x="686" y="481"/>
      <point x="686" y="241"/>
      <point x="686" y="0" type="curve"/>
      <point x="729" y="0"/>
      <point x="686" y="0"/>
      <point x="729" y="0" type="curve"/>
      <point x="729" y="241"/>
      <point x="729" y="481"/>
      <point x="729" y="722" type="curve"/>
      <point x="686" y="722"/>
      <point x="729" y="722"/>
    </contour>
    <contour>
      <point x="162" y="0" type="curve"/>
      <point x="162" y="241"/>
      <point x="162" y="481"/>
      <point x="162" y="722" type="curve"/>
      <point x="119" y="722"/>
      <point x="162" y="722"/>
      <point x="119" y="722" type="curve"/>
      <point x="119" y="481"/>
      <point x="119" y="241"/>
      <point x="119" y="0" type="curve"/>
      <point x="162" y="0"/>
      <point x="119" y="0"/>
    </contour>
    <contour>
      <point x="603" y="951" type="curve"/>
      <point x="589" y="900"/>
      <point x="573" y="855"/>
      <point x="530" y="855" type="curve"/>
      <point x="491" y="855"/>
      <point x="468" y="872"/>
      <point x="441" y="900" type="curve"/>
      <point x="410" y="932"/>
      <point x="385" y="953"/>
      <point x="342" y="953" type="curve"/>
      <point x="274" y="953"/>
      <point x="245" y="901"/>
      <point x="228" y="831" type="curve"/>
      <point x="261" y="818"/>
      <point x="228" y="831"/>
      <point x="261" y="818" type="curve"/>
      <point x="275" y="874"/>
      <point x="295" y="915"/>
      <point x="344" y="915" type="curve"/>
      <point x="380" y="915"/>
      <point x="398" y="896"/>
      <point x="422" y="871" type="curve"/>
      <point x="456" y="837"/>
      <point x="484" y="817"/>
      <point x="531" y="817" type="curve"/>
      <point x="597" y="817"/>
      <point x="619" y="872"/>
      <point x="638" y="939" type="curve"/>
      <point x="604" y="951"/>
      <point x="638" y="939"/>
    </contour>
  </outline>
</glyph>
<glyph name="Oacute" format="1">
  <advance width="779"/>
  <unicode hex="00D3"/>
  <outline>
    <contour>
      <point x="110" y="360" type="curve" name="FullCurve"/>
      <point x="110" y="553"/>
      <point x="202" y="690"/>
      <point x="387" y="690" type="curve" name="FullCurve"/>
      <point x="573" y="690"/>
      <point x="669" y="555"/>
      <point x="669" y="363" type="curve" name="FullCurve"/>
      <point x="669" y="171"/>
      <point x="577" y="32"/>
      <point x="391" y="32" type="curve" name="FullCurve"/>
      <point x="204" y="32"/>
      <point x="110" y="167"/>
      <point x="110" y="360" type="curve" name="FullCurve"/>
      <point x="67" y="360"/>
      <point x="110" y="360"/>
      <point x="67" y="360" type="curve" name="FullCurve"/>
      <point x="67" y="143"/>
      <point x="179" y="-5"/>
      <point x="389" y="-5" type="curve" name="FullCurve"/>
      <point x="600" y="-5"/>
      <point x="712" y="145"/>
      <point x="712" y="363" type="curve" name="FullCurve"/>
      <point x="712" y="579"/>
      <point x="600" y="727"/>
      <point x="390" y="727" type="curve" name="FullCurve"/>
      <point x="179" y="727"/>
      <point x="67" y="577"/>
      <point x="67" y="360" type="curve" name="FullCurve"/>
      <point x="110" y="360"/>
      <point x="67" y="360"/>
    </contour>
    <contour>
      <point x="410" y="818" type="line"/>
      <point x="552" y="984" type="line"/>
      <point x="493" y="984" type="line"/>
      <point x="365" y="818" type="line"/>
    </contour>
  </outline>
</glyph>
<glyph name="Otilde" format="1">
  <advance width="779"/>
  <unicode hex="00D5"/>
  <outline>
    <contour>
      <point x="110" y="360" type="curve" name="FullCurve"/>
      <point x="110" y="553"/>
      <point x="202" y="690"/>
      <point x="387" y="690" type="curve" name="FullCurve"/>
      <point x="573" y="690"/>
      <point x="669" y="555"/>
      <point x="669" y="363" type="curve" name="FullCurve"/>
      <point x="669" y="171"/>
      <point x="577" y="32"/>
      <point x="391" y="32" type="curve" name="FullCurve"/>
      <point x="204" y="32"/>
      <point x="110" y="167"/>
      <point x="110" y="360" type="curve" name="FullCurve"/>
      <point x="67" y="360"/>
      <point x="110" y="360"/>
      <point x="67" y="360" type="curve" name="FullCurve"/>
      <point x="67" y="143"/>
      <point x="179" y="-5"/>
      <point x="389" y="-5" type="curve" name="FullCurve"/>
      <point x="600" y="-5"/>
      <point x="712" y="145"/>
      <point x="712" y="363" type="curve" name="FullCurve"/>
      <point x="712" y="579"/>
      <point x="600" y="727"/>
      <point x="390" y="727" type="curve" name="FullCurve"/>
      <point x="179" y="727"/>
      <point x="67" y="577"/>
      <point x="67" y="360" type="curve" name="FullCurve"/>
      <point x="110" y="360"/>
      <point x="67" y="360"/>
    </contour>
    <contour>
      <point x="559" y="951" type="curve"/>
      <point x="545" y="900"/>
      <point x="529" y="855"/>
      <point x="486" y="855" type="curve"/>
      <point x="446" y="855"/>
      <point x="423" y="872"/>
      <point x="396" y="900" type="curve"/>
      <point x="365" y="932"/>
      <point x="341" y="953"/>
      <point x="297" y="953" type="curve"/>
      <point x="229" y="953"/>
      <point x="200" y="901"/>
      <point x="184" y="831" type="curve"/>
      <point x="217" y="818"/>
      <point x="184" y="831"/>
      <point x="217" y="818" type="curve"/>
      <point x="231" y="874"/>
      <point x="251" y="915"/>
      <point x="299" y="915" type="curve"/>
      <point x="335" y="915"/>
      <point x="354" y="896"/>
      <point x="378" y="871" type="curve"/>
      <point x="411" y="837"/>
      <point x="439" y="817"/>
      <point x="486" y="817" type="curve"/>
      <point x="553" y="817"/>
      <point x="575" y="872"/>
      <point x="594" y="939" type="curve"/>
      <point x="559" y="951"/>
      <point x="594" y="939"/>
    </contour>
  </outline>
</glyph>
<glyph name="Odieresis" format="1">
  <advance width="779"/>
  <unicode hex="00D6"/>
  <outline>
    <contour>
      <point x="110" y="360" type="curve" name="FullCurve"/>
      <point x="110" y="553"/>
      <point x="202" y="690"/>
      <point x="387" y="690" type="curve" name="FullCurve"/>
      <point x="573" y="690"/>
      <point x="669" y="555"/>
      <point x="669" y="363" type="curve" name="FullCurve"/>
      <point x="669" y="171"/>
      <point x="577" y="32"/>
      <point x="391" y="32" type="curve" name="FullCurve"/>
      <point x="204" y="32"/>
      <point x="110" y="167"/>
      <point x="110" y="360" type="curve" name="FullCurve"/>
      <point x="67" y="360"/>
      <point x="110" y="360"/>
      <point x="67" y="360" type="curve" name="FullCurve"/>
      <point x="67" y="143"/>
      <point x="179" y="-5"/>
      <point x="389" y="-5" type="curve" name="FullCurve"/>
      <point x="600" y="-5"/>
      <point x="712" y="145"/>
      <point x="712" y="363" type="curve" name="FullCurve"/>
      <point x="712" y="579"/>
      <point x="600" y="727"/>
      <point x="390" y="727" type="curve" name="FullCurve"/>
      <point x="179" y="727"/>
      <point x="67" y="577"/>
      <point x="67" y="360" type="curve" name="FullCurve"/>
      <point x="110" y="360"/>
      <point x="67" y="360"/>
    </contour>
    <contour>
      <point x="348" y="842" type="curve"/>
      <point x="348" y="859"/>
      <point x="336" y="868"/>
      <point x="319" y="868" type="curve"/>
      <point x="302" y="868"/>
      <point x="292" y="858"/>
      <point x="292" y="842" type="curve"/>
      <point x="337" y="842"/>
      <point x="303" y="842"/>
      <point x="348" y="842" type="curve"/>
      <point x="348" y="825"/>
      <point x="336" y="817"/>
      <point x="319" y="817" type="curve"/>
      <point x="302" y="817"/>
      <point x="292" y="826"/>
      <point x="292" y="842" type="curve"/>
      <point x="337" y="842"/>
      <point x="303" y="842"/>
    </contour>
    <contour>
      <point x="487" y="842" type="curve"/>
      <point x="487" y="859"/>
      <point x="475" y="868"/>
      <point x="458" y="868" type="curve"/>
      <point x="442" y="868"/>
      <point x="431" y="858"/>
      <point x="431" y="842" type="curve"/>
      <point x="476" y="842"/>
      <point x="442" y="842"/>
      <point x="487" y="842" type="curve"/>
      <point x="487" y="825"/>
      <point x="475" y="817"/>
      <point x="458" y="817" type="curve"/>
      <point x="441" y="817"/>
      <point x="431" y="826"/>
      <point x="431" y="842" type="curve"/>
      <point x="476" y="842"/>
      <point x="442" y="842"/>
    </contour>
  </outline>
</glyph>
<glyph name="multiply" format="1">
  <advance width="538"/>
  <unicode hex="00D7"/>
  <outline>
    <contour>
      <point x="93" y="106" type="line"/>
      <point x="470" y="484" type="line"/>
      <point x="443" y="511" type="line"/>
      <point x="66" y="133" type="line"/>
    </contour>
    <contour>
      <point x="473" y="131" type="line"/>
      <point x="94" y="513" type="line"/>
      <point x="66" y="486" type="line"/>
      <point x="446" y="104" type="line"/>
    </contour>
  </outline>
</glyph>
<glyph name="Ucircumflex" format="1">
  <advance width="784"/>
  <unicode hex="00DB"/>
  <outline>
    <contour>
      <point x="109" y="721" type="curve"/>
      <point x="109" y="560"/>
      <point x="109" y="434"/>
      <point x="109" y="272" type="curve"/>
      <point x="109" y="85"/>
      <point x="203" y="-5"/>
      <point x="393" y="-5" type="curve"/>
      <point x="580" y="-5"/>
      <point x="674" y="83"/>
      <point x="674" y="267" type="curve"/>
      <point x="674" y="431"/>
      <point x="674" y="558"/>
      <point x="674" y="721" type="curve"/>
      <point x="641" y="721"/>
      <point x="668" y="721"/>
      <point x="635" y="721" type="curve"/>
      <point x="635" y="555"/>
      <point x="635" y="428"/>
      <point x="635" y="262" type="curve"/>
      <point x="635" y="110"/>
      <point x="553" y="34"/>
      <point x="397" y="34" type="curve"/>
      <point x="230" y="34"/>
      <point x="149" y="114"/>
      <point x="149" y="279" type="curve"/>
      <point x="149" y="438"/>
      <point x="149" y="562"/>
      <point x="149" y="721" type="curve"/>
      <point x="116" y="721"/>
      <point x="142" y="721"/>
    </contour>
    <contour>
      <point x="275" y="819" type="line"/>
      <point x="418" y="985" type="line"/>
      <point x="359" y="985" type="line"/>
      <point x="230" y="819" type="line"/>
    </contour>
    <contour>
      <point x="562" y="819" type="line"/>
      <point x="434" y="985" type="line"/>
      <point x="375" y="985" type="line"/>
      <point x="517" y="819" type="line"/>
    </contour>
  </outline>
</glyph>
<glyph name="Udieresis" format="1">
  <advance width="784"/>
  <unicode hex="00DC"/>
  <outline>
    <contour>
      <point x="109" y="721" type="curve"/>
      <point x="109" y="560"/>
      <point x="109" y="434"/>
      <point x="109" y="272" type="curve"/>
      <point x="109" y="85"/>
      <point x="203" y="-5"/>
      <point x="393" y="-5" type="curve"/>
      <point x="580" y="-5"/>
      <point x="674" y="83"/>
      <point x="674" y="267" type="curve"/>
      <point x="674" y="431"/>
      <point x="674" y="558"/>
      <point x="674" y="721" type="curve"/>
      <point x="641" y="721"/>
      <point x="668" y="721"/>
      <point x="635" y="721" type="curve"/>
      <point x="635" y="555"/>
      <point x="635" y="428"/>
      <point x="635" y="262" type="curve"/>
      <point x="635" y="110"/>
      <point x="553" y="34"/>
      <point x="397" y="34" type="curve"/>
      <point x="230" y="34"/>
      <point x="149" y="114"/>
      <point x="149" y="279" type="curve"/>
      <point x="149" y="438"/>
      <point x="149" y="562"/>
      <point x="149" y="721" type="curve"/>
      <point x="116" y="721"/>
      <point x="142" y="721"/>
    </contour>
    <contour>
      <point x="356" y="842" type="curve"/>
      <point x="356" y="859"/>
      <point x="344" y="868"/>
      <point x="327" y="868" type="curve"/>
      <point x="310" y="868"/>
      <point x="300" y="858"/>
      <point x="300" y="842" type="curve"/>
      <point x="345" y="842"/>
      <point x="310" y="842"/>
      <point x="356" y="842" type="curve"/>
      <point x="356" y="825"/>
      <point x="344" y="817"/>
      <point x="327" y="817" type="curve"/>
      <point x="310" y="817"/>
      <point x="300" y="826"/>
      <point x="300" y="842" type="curve"/>
      <point x="345" y="842"/>
      <point x="310" y="842"/>
    </contour>
    <contour>
      <point x="495" y="842" type="curve"/>
      <point x="495" y="859"/>
      <point x="483" y="868"/>
      <point x="466" y="868" type="curve"/>
      <point x="449" y="868"/>
      <point x="439" y="858"/>
      <point x="439" y="842" type="curve"/>
      <point x="484" y="842"/>
      <point x="450" y="842"/>
      <point x="495" y="842" type="curve"/>
      <point x="495" y="825"/>
      <point x="483" y="817"/>
      <point x="466" y="817" type="curve"/>
      <point x="449" y="817"/>
      <point x="439" y="826"/>
      <point x="439" y="842" type="curve"/>
      <point x="484" y="842"/>
      <point x="450" y="842"/>
    </contour>
  </outline>
</glyph>
